Atma-Regular.ufo
<glyph name="numbersign" format="1">
  <advance width="603"/>
  <unicode hex="0023"/>
  <outline>
    <contour>
      <point x="100" y="-35" type="curve"/>
      <point x="206" y="207"/>
      <point x="256" y="389"/>
      <point x="278" y="599" type="curve"/>
      <point x="258" y="612"/>
      <point x="239" y="618"/>
      <point x="222" y="621" type="curve"/>
      <point x="204" y="416"/>
      <point x="143" y="190"/>
      <point x="47" y="-15" type="curve"/>
      <point x="62" y="-25"/>
      <point x="76" y="-30"/>
    </contour>
    <contour>
      <point x="10" y="207" type="curve"/>
      <point x="224" y="161"/>
      <point x="393" y="156"/>
      <point x="574" y="173" type="curve"/>
      <point x="581" y="194"/>
      <point x="582" y="213"/>
      <point x="582" y="229" type="curve"/>
      <point x="407" y="210"/>
      <point x="198" y="216"/>
      <point x="17" y="260" type="curve"/>
      <point x="12" y="244"/>
      <point x="9" y="229"/>
    </contour>
    <contour>
      <point x="22" y="405" type="curve"/>
      <point x="236" y="360"/>
      <point x="405" y="355"/>
      <point x="586" y="372" type="curve"/>
      <point x="593" y="393"/>
      <point x="595" y="412"/>
      <point x="594" y="427" type="curve"/>
      <point x="420" y="409"/>
      <point x="210" y="414"/>
      <point x="29" y="458" type="curve"/>
      <point x="24" y="443"/>
      <point x="21" y="428"/>
    </contour>
    <contour>
      <point x="328" y="-39" type="curve"/>
      <point x="434" y="203"/>
      <point x="481" y="385"/>
      <point x="503" y="595" type="curve"/>
      <point x="483" y="608"/>
      <point x="465" y="613"/>
      <point x="447" y="616" type="curve"/>
      <point x="429" y="411"/>
      <point x="372" y="185"/>
      <point x="275" y="-20" type="curve"/>
      <point x="290" y="-30"/>
      <point x="304" y="-34"/>
    </contour>
  </outline>
</glyph>
<glyph name="dollar" format="1">
  <advance width="355"/>
  <unicode hex="0024"/>
  <outline>
    <contour>
      <point x="263" y="179" type="curve" smooth="yes"/>
      <point x="263" y="124"/>
      <point x="234" y="95"/>
      <point x="186" y="95" type="curve" smooth="yes"/>
      <point x="124" y="95"/>
      <point x="90" y="150"/>
      <point x="95" y="244" type="curve"/>
      <point x="74" y="245"/>
      <point x="49" y="241"/>
      <point x="25" y="233" type="curve"/>
      <point x="25" y="118"/>
      <point x="83" y="42"/>
      <point x="183" y="42" type="curve" smooth="yes"/>
      <point x="274" y="42"/>
      <point x="340" y="100"/>
      <point x="340" y="190" type="curve" smooth="yes"/>
      <point x="340" y="277"/>
      <point x="282" y="329"/>
      <point x="216" y="383" type="curve" smooth="yes"/>
      <point x="158" y="430"/>
      <point x="108" y="476"/>
      <point x="108" y="547" type="curve" smooth="yes"/>
      <point x="108" y="601"/>
      <point x="138" y="630"/>
      <point x="181" y="630" type="curve"/>
      <point x="230" y="630"/>
      <point x="254" y="594"/>
      <point x="265" y="515" type="curve"/>
      <point x="291" y="516"/>
      <point x="312" y="521"/>
      <point x="330" y="531" type="curve"/>
      <point x="315" y="630"/>
      <point x="273" y="683"/>
      <point x="182" y="683" type="curve" smooth="yes"/>
      <point x="84" y="683"/>
      <point x="31" y="621"/>
      <point x="31" y="535" type="curve" smooth="yes"/>
      <point x="31" y="443"/>
      <point x="91" y="390"/>
      <point x="152" y="339" type="curve" smooth="yes"/>
      <point x="209" y="290"/>
      <point x="263" y="247"/>
    </contour>
    <contour>
      <point x="210" y="652" type="line"/>
      <point x="205" y="695"/>
      <point x="205" y="736"/>
      <point x="208" y="774" type="curve"/>
      <point x="183" y="777"/>
      <point x="164" y="775"/>
      <point x="148" y="768" type="curve"/>
      <point x="145" y="735"/>
      <point x="152" y="694"/>
      <point x="159" y="653" type="curve"/>
    </contour>
    <contour>
      <point x="146" y="-63" type="curve"/>
      <point x="171" y="-67"/>
      <point x="188" y="-66"/>
      <point x="205" y="-60" type="curve"/>
      <point x="209" y="-24"/>
      <point x="207" y="16"/>
      <point x="204" y="55" type="curve"/>
      <point x="153" y="58" type="line"/>
      <point x="155" y="11"/>
      <point x="152" y="-21"/>
    </contour>
  </outline>
</glyph>
<glyph name="ampersand" format="1">
  <advance width="759"/>
  <unicode hex="0026"/>
  <outline>
    <contour>
      <point x="709" y="10" type="curve"/>
      <point x="423" y="127"/>
      <point x="293" y="311"/>
      <point x="293" y="528" type="curve" smooth="yes"/>
      <point x="293" y="624"/>
      <point x="328" y="671"/>
      <point x="370" y="671" type="curve" smooth="yes"/>
      <point x="412" y="671"/>
      <point x="433" y="634"/>
      <point x="433" y="579" type="curve" smooth="yes"/>
      <point x="433" y="507"/>
      <point x="390" y="450"/>
      <point x="290" y="429" type="curve"/>
      <point x="292" y="389" type="line"/>
      <point x="429" y="416"/>
      <point x="506" y="483"/>
      <point x="506" y="586" type="curve" smooth="yes"/>
      <point x="506" y="667"/>
      <point x="454" y="721"/>
      <point x="379" y="721" type="curve" smooth="yes"/>
      <point x="276" y="721"/>
      <point x="220" y="639"/>
      <point x="220" y="521" type="curve" smooth="yes"/>
      <point x="220" y="251"/>
      <point x="411" y="56"/>
      <point x="659" y="-43" type="curve"/>
      <point x="682" y="-31"/>
      <point x="700" y="-12"/>
    </contour>
    <contour>
      <point x="601" y="389"/>
      <point x="574" y="388"/>
      <point x="554" y="383" type="curve"/>
      <point x="562" y="347"/>
      <point x="565" y="318"/>
      <point x="565" y="279" type="curve" smooth="yes"/>
      <point x="565" y="124"/>
      <point x="461" y="0"/>
      <point x="325" y="0" type="curve" smooth="yes"/>
      <point x="201" y="0"/>
      <point x="116" y="76"/>
      <point x="116" y="196" type="curve" smooth="yes"/>
      <point x="116" y="304"/>
      <point x="195" y="369"/>
      <point x="292" y="380" type="curve"/>
      <point x="288" y="422" type="line"/>
      <point x="118" y="398"/>
      <point x="40" y="301"/>
      <point x="40" y="184" type="curve" smooth="yes"/>
      <point x="40" y="51"/>
      <point x="140" y="-57"/>
      <point x="319" y="-57" type="curve" smooth="yes"/>
      <point x="481" y="-57"/>
      <point x="630" y="60"/>
      <point x="636" y="284" type="curve" smooth="yes"/>
      <point x="637" y="315"/>
      <point x="636" y="345"/>
      <point x="632" y="381" type="curve"/>
    </contour>
  </outline>
</glyph>
<glyph name="quotesingle" format="1">
  <advance width="139"/>
  <unicode hex="0027"/>
  <outline>
    <contour>
      <point x="97" y="736" type="curve"/>
      <point x="86" y="738"/>
      <point x="79" y="739"/>
      <point x="68" y="739" type="curve" smooth="yes"/>
      <point x="56" y="739"/>
      <point x="38" y="738"/>
      <point x="28" y="735" type="curve"/>
      <point x="33" y="655"/>
      <point x="34" y="592"/>
      <point x="34" y="497" type="curve"/>
      <point x="50" y="496"/>
      <point x="70" y="496"/>
      <point x="81" y="500" type="curve"/>
      <point x="94" y="613"/>
      <point x="97" y="674"/>
    </contour>
  </outline>
</glyph>
<glyph name="parenright" format="1">
  <advance width="352"/>
  <unicode hex="0029"/>
  <outline>
    <contour>
      <point x="246" y="323" type="curve" smooth="yes"/>
      <point x="246" y="167"/>
      <point x="180" y="-7"/>
      <point x="1" y="-119" type="curve"/>
      <point x="18" y="-138"/>
      <point x="35" y="-154"/>
      <point x="54" y="-163" type="curve"/>
      <point x="226" y="-44"/>
      <point x="314" y="131"/>
      <point x="314" y="329" type="curve" smooth="yes"/>
      <point x="314" y="521"/>
      <point x="229" y="690"/>
      <point x="77" y="800" type="curve"/>
      <point x="53" y="789"/>
      <point x="39" y="774"/>
      <point x="25" y="757" type="curve"/>
      <point x="172" y="657"/>
      <point x="246" y="501"/>
    </contour>
  </outline>
</glyph>
<glyph name="plus" format="1">
  <advance width="365"/>
  <unicode hex="002B"/>
  <outline>
    <contour>
      <point x="34" y="371" type="curve"/>
      <point x="30" y="354"/>
      <point x="28" y="338"/>
      <point x="28" y="318" type="curve"/>
      <point x="126" y="305"/>
      <point x="235" y="305"/>
      <point x="332" y="318" type="curve"/>
      <point x="336" y="334"/>
      <point x="338" y="352"/>
      <point x="338" y="370" type="curve"/>
      <point x="211" y="359"/>
      <point x="125" y="360"/>
    </contour>
    <contour>
      <point x="149" y="183" type="curve"/>
      <point x="166" y="180"/>
      <point x="184" y="180"/>
      <point x="202" y="183" type="curve"/>
      <point x="215" y="283"/>
      <point x="214" y="392"/>
      <point x="202" y="487" type="curve"/>
      <point x="185" y="489"/>
      <point x="168" y="489"/>
      <point x="150" y="485" type="curve"/>
      <point x="161" y="360"/>
      <point x="159" y="275"/>
    </contour>
  </outline>
</glyph>
<glyph name="comma" format="1">
  <advance width="139"/>
  <unicode hex="002C"/>
  <outline>
    <contour>
      <point x="117" y="77" type="curve"/>
      <point x="93" y="81"/>
      <point x="68" y="82"/>
      <point x="43" y="81" type="curve"/>
      <point x="40" y="-16"/>
      <point x="28" y="-101"/>
      <point x="1" y="-211" type="curve"/>
      <point x="18" y="-216"/>
      <point x="35" y="-220"/>
      <point x="53" y="-222" type="curve"/>
      <point x="96" y="-107"/>
      <point x="114" y="-18"/>
    </contour>
  </outline>
</glyph>
<glyph name="hyphen" format="1">
  <advance width="282"/>
  <unicode hex="002D"/>
  <outline>
    <contour>
      <point x="29" y="301"/>
      <point x="28" y="282"/>
      <point x="29" y="257" type="curve"/>
      <point x="74" y="243"/>
      <point x="159" y="241"/>
      <point x="247" y="251" type="curve"/>
      <point x="252" y="277"/>
      <point x="253" y="300"/>
      <point x="253" y="319" type="curve"/>
      <point x="228" y="315"/>
      <point x="199" y="314"/>
      <point x="162" y="314" type="curve" smooth="yes"/>
      <point x="121" y="314"/>
      <point x="69" y="318"/>
      <point x="35" y="325" type="curve"/>
    </contour>
  </outline>
</glyph>
<glyph name="slash" format="1">
  <advance width="464"/>
  <unicode hex="002F"/>
  <outline>
    <contour>
      <point x="168" y="73"/>
      <point x="330" y="408"/>
      <point x="458" y="714" type="curve"/>
      <point x="439" y="730"/>
      <point x="420" y="740"/>
      <point x="402" y="746" type="curve"/>
      <point x="263" y="420"/>
      <point x="97" y="56"/>
      <point x="-33" y="-171" type="curve"/>
      <point x="-18" y="-182"/>
      <point x="1" y="-193"/>
      <point x="25" y="-200" type="curve"/>
    </contour>
  </outline>
</glyph>
<glyph name="zero" format="1">
  <advance width="512"/>
  <unicode hex="0030"/>
  <outline>
    <contour>
      <point x="285" y="673" type="curve"/>
      <point x="136" y="673"/>
      <point x="38" y="544"/>
      <point x="38" y="310" type="curve"/>
      <point x="38" y="128"/>
      <point x="113" y="-20"/>
      <point x="245" y="-20" type="curve" smooth="yes"/>
      <point x="394" y="-20"/>
      <point x="473" y="132"/>
      <point x="473" y="389" type="curve"/>
      <point x="473" y="554"/>
      <point x="409" y="673"/>
    </contour>
    <contour>
      <point x="268" y="616" type="curve" smooth="yes"/>
      <point x="358" y="616"/>
      <point x="395" y="524"/>
      <point x="395" y="347" type="curve" smooth="yes"/>
      <point x="395" y="159"/>
      <point x="342" y="36"/>
      <point x="257" y="36" type="curve" smooth="yes"/>
      <point x="170" y="36"/>
      <point x="116" y="156"/>
      <point x="116" y="321" type="curve" smooth="yes"/>
      <point x="116" y="507"/>
      <point x="181" y="616"/>
    </contour>
  </outline>
</glyph>
<glyph name="one" format="1">
  <advance width="339"/>
  <unicode hex="0031"/>
  <outline>
    <contour>
      <point x="224" y="-36" type="curve"/>
      <point x="243" y="198"/>
      <point x="290" y="515"/>
      <point x="348" y="663" type="curve"/>
      <point x="269" y="661" type="line"/>
      <point x="227" y="522"/>
      <point x="195" y="336"/>
      <point x="179" y="181" type="curve" smooth="yes"/>
      <point x="168" y="91"/>
      <point x="164" y="36"/>
      <point x="160" y="-43" type="curve"/>
      <point x="171" y="-44"/>
      <point x="180" y="-44"/>
      <point x="191" y="-43" type="curve" smooth="yes"/>
      <point x="205" y="-42"/>
      <point x="216" y="-40"/>
    </contour>
    <contour>
      <point x="303" y="694" type="curve"/>
      <point x="214" y="608"/>
      <point x="113" y="541"/>
      <point x="22" y="491" type="curve"/>
      <point x="34" y="466"/>
      <point x="45" y="452"/>
      <point x="64" y="435" type="curve"/>
      <point x="193" y="517"/>
      <point x="276" y="584"/>
      <point x="348" y="663" type="curve"/>
      <point x="334" y="676"/>
      <point x="321" y="684"/>
    </contour>
  </outline>
</glyph>
<glyph name="two" format="1">
  <advance width="395"/>
  <unicode hex="0032"/>
  <outline>
    <contour>
      <point x="374" y="470" type="curve" smooth="yes"/>
      <point x="374" y="573"/>
      <point x="310" y="641"/>
      <point x="215" y="641" type="curve" smooth="yes"/>
      <point x="133" y="641"/>
      <point x="59" y="584"/>
      <point x="30" y="448" type="curve"/>
      <point x="53" y="438"/>
      <point x="77" y="432"/>
      <point x="102" y="432" type="curve"/>
      <point x="120" y="534"/>
      <point x="161" y="587"/>
      <point x="213" y="587" type="curve" smooth="yes"/>
      <point x="267" y="587"/>
      <point x="297" y="540"/>
      <point x="297" y="477" type="curve" smooth="yes"/>
      <point x="297" y="348"/>
      <point x="224" y="232"/>
      <point x="12" y="73" type="curve"/>
      <point x="6" y="56"/>
      <point x="3" y="38"/>
      <point x="2" y="20" type="curve"/>
      <point x="95" y="-5"/>
      <point x="211" y="-22"/>
      <point x="360" y="-33" type="curve"/>
      <point x="370" y="-12"/>
      <point x="375" y="10"/>
      <point x="377" y="35" type="curve"/>
      <point x="245" y="36"/>
      <point x="164" y="45"/>
      <point x="64" y="61" type="curve"/>
      <point x="57" y="36" type="line"/>
      <point x="273" y="190"/>
      <point x="374" y="336"/>
    </contour>
  </outline>
</glyph>
<glyph name="three" format="1">
  <advance width="406"/>
  <unicode hex="0033"/>
  <outline>
    <contour>
      <point x="383" y="567" type="curve"/>
      <point x="384" y="588"/>
      <point x="382" y="609"/>
      <point x="378" y="627" type="curve"/>
      <point x="277" y="626"/>
      <point x="153" y="615"/>
      <point x="11" y="585" type="curve"/>
      <point x="8" y="563"/>
      <point x="9" y="539"/>
      <point x="15" y="517" type="curve"/>
      <point x="157" y="554"/>
      <point x="281" y="560"/>
    </contour>
    <contour>
      <point x="218" y="-57" type="curve" smooth="yes"/>
      <point x="321" y="-57"/>
      <point x="401" y="25"/>
      <point x="401" y="157" type="curve" smooth="yes"/>
      <point x="401" y="280"/>
      <point x="326" y="355"/>
      <point x="186" y="375" type="curve"/>
      <point x="168" y="344" type="line"/>
      <point x="283" y="425"/>
      <point x="336" y="486"/>
      <point x="383" y="567" type="curve"/>
      <point x="328" y="595" type="line"/>
      <point x="277" y="508"/>
      <point x="213" y="439"/>
      <point x="108" y="373" type="curve"/>
      <point x="108" y="356"/>
      <point x="110" y="342"/>
      <point x="114" y="325" type="curve"/>
      <point x="254" y="335"/>
      <point x="323" y="258"/>
      <point x="323" y="137" type="curve" smooth="yes"/>
      <point x="323" y="47"/>
      <point x="283" y="-2"/>
      <point x="219" y="-2" type="curve" smooth="yes"/>
      <point x="158" y="-2"/>
      <point x="104" y="53"/>
      <point x="104" y="185" type="curve"/>
      <point x="77" y="183"/>
      <point x="53" y="179"/>
      <point x="31" y="171" type="curve"/>
      <point x="39" y="14"/>
      <point x="122" y="-57"/>
    </contour>
  </outline>
</glyph>
<glyph name="four" format="1">
  <advance width="504"/>
  <unicode hex="0034"/>
  <outline>
    <contour>
      <point x="490" y="128" type="curve"/>
      <point x="498" y="146"/>
      <point x="504" y="169"/>
      <point x="505" y="190" type="curve"/>
      <point x="357" y="195"/>
      <point x="230" y="208"/>
      <point x="82" y="243" type="curve"/>
      <point x="80" y="202" type="line"/>
      <point x="198" y="372"/>
      <point x="281" y="548"/>
      <point x="347" y="730" type="curve"/>
      <point x="325" y="740"/>
      <point x="297" y="750"/>
      <point x="270" y="753" type="curve"/>
      <point x="204" y="541"/>
      <point x="143" y="409"/>
      <point x="17" y="225" type="curve"/>
      <point x="21" y="209"/>
      <point x="26" y="195"/>
      <point x="35" y="180" type="curve"/>
      <point x="196" y="151"/>
      <point x="341" y="134"/>
    </contour>
    <contour>
      <point x="330" y="-40" type="curve"/>
      <point x="332" y="110"/>
      <point x="344" y="295"/>
      <point x="378" y="409" type="curve"/>
      <point x="368" y="412"/>
      <point x="352" y="413"/>
      <point x="339" y="412" type="curve" smooth="yes"/>
      <point x="318" y="412"/>
      <point x="305" y="407"/>
      <point x="296" y="403" type="curve"/>
      <point x="276" y="306"/>
      <point x="267" y="190"/>
      <point x="267" y="66" type="curve" smooth="yes"/>
      <point x="267" y="32"/>
      <point x="268" y="-1"/>
      <point x="269" y="-35" type="curve"/>
      <point x="276" y="-38"/>
      <point x="283" y="-40"/>
      <point x="294" y="-41" type="curve" smooth="yes"/>
      <point x="307" y="-42"/>
      <point x="319" y="-41"/>
    </contour>
  </outline>
</glyph>
<glyph name="six" format="1">
  <advance width="472"/>
  <unicode hex="0036"/>
  <outline>
    <contour>
      <point x="274" y="633" type="curve" smooth="yes"/>
      <point x="188" y="633"/>
      <point x="116" y="517"/>
      <point x="116" y="302" type="curve" smooth="yes"/>
      <point x="116" y="124"/>
      <point x="168" y="6"/>
      <point x="252" y="6" type="curve" smooth="yes"/>
      <point x="323" y="6"/>
      <point x="369" y="84"/>
      <point x="369" y="164" type="curve" smooth="yes"/>
      <point x="369" y="263"/>
      <point x="325" y="324"/>
      <point x="254" y="324" type="curve" smooth="yes"/>
      <point x="193" y="324"/>
      <point x="142" y="263"/>
      <point x="118" y="171" type="curve"/>
      <point x="95" y="232" type="line"/>
      <point x="125" y="313"/>
      <point x="182" y="381"/>
      <point x="275" y="381" type="curve" smooth="yes"/>
      <point x="382" y="381"/>
      <point x="447" y="295"/>
      <point x="447" y="193" type="curve" smooth="yes"/>
      <point x="447" y="65"/>
      <point x="379" y="-50"/>
      <point x="243" y="-50" type="curve" smooth="yes"/>
      <point x="112" y="-50"/>
      <point x="38" y="86"/>
      <point x="38" y="293" type="curve" smooth="yes"/>
      <point x="38" y="542"/>
      <point x="130" y="691"/>
      <point x="281" y="691" type="curve" smooth="yes"/>
      <point x="372" y="691"/>
      <point x="426" y="632"/>
      <point x="444" y="508" type="curve"/>
      <point x="422" y="496"/>
      <point x="401" y="489"/>
      <point x="373" y="485" type="curve"/>
      <point x="363" y="584"/>
      <point x="333" y="633"/>
    </contour>
  </outline>
</glyph>
<glyph name="seven" format="1">
  <advance width="378"/>
  <unicode hex="0037"/>
  <outline>
    <contour>
      <point x="80" y="-11" type="curve"/>
      <point x="170" y="255"/>
      <point x="247" y="397"/>
      <point x="384" y="595" type="curve"/>
      <point x="383" y="613"/>
      <point x="379" y="628"/>
      <point x="371" y="647" type="curve"/>
      <point x="228" y="642"/>
      <point x="137" y="652"/>
      <point x="-1" y="676" type="curve"/>
      <point x="-9" y="654"/>
      <point x="-13" y="630"/>
      <point x="-12" y="607" type="curve"/>
      <point x="113" y="589"/>
      <point x="196" y="588"/>
      <point x="334" y="592" type="curve"/>
      <point x="331" y="626" type="line"/>
      <point x="204" y="450"/>
      <point x="101" y="263"/>
      <point x="4" y="0" type="curve"/>
      <point x="30" y="-9"/>
      <point x="53" y="-12"/>
    </contour>
  </outline>
</glyph>
<glyph name="colon" format="1">
  <advance width="168"/>
  <unicode hex="003A"/>
  <outline>
    <contour>
      <point x="133" y="28"/>
      <point x="134" y="53"/>
      <point x="135" y="83" type="curve"/>
      <point x="95" y="87"/>
      <point x="63" y="83"/>
      <point x="39" y="79" type="curve"/>
      <point x="39" y="50"/>
      <point x="40" y="32"/>
      <point x="41" y="0" type="curve"/>
      <point x="66" y="-3"/>
      <point x="97" y="-4"/>
      <point x="130" y="-1" type="curve"/>
    </contour>
    <contour>
      <point x="132" y="485"/>
      <point x="132" y="512"/>
      <point x="132" y="542" type="curve"/>
      <point x="120" y="545"/>
      <point x="106" y="547"/>
      <point x="91" y="547" type="curve" smooth="yes"/>
      <point x="70" y="547"/>
      <point x="52" y="545"/>
      <point x="36" y="541" type="curve"/>
      <point x="37" y="512"/>
      <point x="39" y="492"/>
      <point x="40" y="461" type="curve"/>
      <point x="69" y="458"/>
      <point x="95" y="457"/>
      <point x="128" y="460" type="curve"/>
    </contour>
  </outline>
</glyph>
<glyph name="semicolon" format="1">
  <advance width="168"/>
  <unicode hex="003B"/>
  <outline>
    <contour>
      <point x="131" y="460" type="curve"/>
      <point x="135" y="485"/>
      <point x="135" y="512"/>
      <point x="135" y="542" type="curve"/>
      <point x="123" y="545"/>
      <point x="109" y="547"/>
      <point x="94" y="547" type="curve" smooth="yes"/>
      <point x="73" y="547"/>
      <point x="55" y="545"/>
      <point x="39" y="541" type="curve"/>
      <point x="40" y="512"/>
      <point x="42" y="492"/>
      <point x="43" y="461" type="curve"/>
      <point x="72" y="458"/>
      <point x="98" y="457"/>
    </contour>
    <contour>
      <point x="123" y="77" type="curve"/>
      <point x="99" y="81"/>
      <point x="72" y="82"/>
      <point x="47" y="81" type="curve"/>
      <point x="47" y="-9"/>
      <point x="36" y="-85"/>
      <point x="5" y="-210" type="curve"/>
      <point x="23" y="-216"/>
      <point x="37" y="-219"/>
      <point x="55" y="-221" type="curve"/>
      <point x="104" y="-108"/>
      <point x="124" y="-18"/>
    </contour>
  </outline>
</glyph>
<glyph name="less" format="1">
  <advance width="364"/>
  <unicode hex="003C"/>
  <outline>
    <contour>
      <point x="62" y="313" type="line"/>
      <point x="140" y="370"/>
      <point x="222" y="416"/>
      <point x="335" y="464" type="curve"/>
      <point x="331" y="482"/>
      <point x="326" y="492"/>
      <point x="318" y="512" type="curve"/>
      <point x="211" y="469"/>
      <point x="117" y="420"/>
      <point x="33" y="359" type="curve"/>
      <point x="30" y="320" type="line"/>
      <point x="107" y="260"/>
      <point x="207" y="208"/>
      <point x="316" y="167" type="curve"/>
      <point x="324" y="182"/>
      <point x="330" y="197"/>
      <point x="332" y="215" type="curve"/>
      <point x="220" y="263"/>
      <point x="128" y="310"/>
      <point x="59" y="366" type="curve"/>
    </contour>
  </outline>
</glyph>
<glyph name="equal" format="1">
  <advance width="365"/>
  <unicode hex="003D"/>
  <outline>
    <contour>
      <point x="38" y="412" type="curve"/>
      <point x="34" y="395"/>
      <point x="32" y="379"/>
      <point x="32" y="358" type="curve"/>
      <point x="130" y="346"/>
      <point x="239" y="346"/>
      <point x="336" y="358" type="curve"/>
      <point x="340" y="375"/>
      <point x="342" y="393"/>
      <point x="342" y="410" type="curve"/>
      <point x="215" y="399"/>
      <point x="129" y="401"/>
    </contour>
    <contour>
      <point x="27" y="285" type="curve"/>
      <point x="24" y="267"/>
      <point x="22" y="252"/>
      <point x="22" y="231" type="curve"/>
      <point x="120" y="219"/>
      <point x="229" y="219"/>
      <point x="326" y="231" type="curve"/>
      <point x="330" y="248"/>
      <point x="332" y="266"/>
      <point x="332" y="283" type="curve"/>
      <point x="204" y="272"/>
      <point x="119" y="274"/>
    </contour>
  </outline>
</glyph>
<glyph name="at" format="1">
  <advance width="881"/>
  <unicode hex="0040"/>
  <outline>
    <contour>
      <point x="525" y="457" type="curve"/>
      <point x="533" y="504" type="line"/>
      <point x="519" y="513"/>
      <point x="473" y="532"/>
      <point x="433" y="532" type="curve" smooth="yes"/>
      <point x="330" y="532"/>
      <point x="254" y="442"/>
      <point x="254" y="293" type="curve" smooth="yes"/>
      <point x="254" y="173"/>
      <point x="310" y="96"/>
      <point x="388" y="96" type="curve" smooth="yes"/>
      <point x="467" y="96"/>
      <point x="520" y="163"/>
      <point x="533" y="368" type="curve"/>
      <point x="507" y="395" type="line"/>
      <point x="499" y="207"/>
      <point x="451" y="149"/>
      <point x="398" y="149" type="curve" smooth="yes"/>
      <point x="354" y="149"/>
      <point x="323" y="202"/>
      <point x="323" y="303" type="curve" smooth="yes"/>
      <point x="323" y="418"/>
      <point x="376" y="482"/>
      <point x="441" y="482" type="curve" smooth="yes"/>
      <point x="484" y="482"/>
      <point x="505" y="468"/>
    </contour>
    <contour>
      <point x="817" y="356" type="curve" smooth="yes"/>
      <point x="817" y="540"/>
      <point x="712" y="720"/>
      <point x="455" y="720" type="curve" smooth="yes"/>
      <point x="200" y="720"/>
      <point x="42" y="550"/>
      <point x="42" y="289" type="curve" smooth="yes"/>
      <point x="42" y="54"/>
      <point x="193" y="-97"/>
      <point x="413" y="-97" type="curve" smooth="yes"/>
      <point x="497" y="-97"/>
      <point x="575" y="-76"/>
      <point x="640" y="-36" type="curve"/>
      <point x="629" y="-16"/>
      <point x="622" y="-2"/>
      <point x="605" y="13" type="curve"/>
      <point x="557" y="-26"/>
      <point x="498" y="-44"/>
      <point x="421" y="-44" type="curve" smooth="yes"/>
      <point x="225" y="-44"/>
      <point x="108" y="91"/>
      <point x="108" y="305" type="curve" smooth="yes"/>
      <point x="108" y="524"/>
      <point x="244" y="667"/>
      <point x="443" y="667" type="curve" smooth="yes"/>
      <point x="651" y="667"/>
      <point x="753" y="528"/>
      <point x="753" y="358" type="curve" smooth="yes"/>
      <point x="753" y="220"/>
      <point x="697" y="134"/>
      <point x="627" y="134" type="curve" smooth="yes"/>
      <point x="576" y="134"/>
      <point x="552" y="183"/>
      <point x="552" y="310" type="curve" smooth="yes"/>
      <point x="552" y="372"/>
      <point x="555" y="441"/>
      <point x="563" y="553" type="curve"/>
      <point x="536" y="559"/>
      <point x="510" y="557"/>
      <point x="486" y="549" type="curve"/>
      <point x="487" y="449"/>
      <point x="490" y="324"/>
      <point x="491" y="256" type="curve" smooth="yes"/>
      <point x="493" y="141"/>
      <point x="542" y="85"/>
      <point x="624" y="85" type="curve" smooth="yes"/>
      <point x="728" y="85"/>
      <point x="817" y="188"/>
    </contour>
  </outline>
</glyph>
<glyph name="A" format="1">
  <advance width="615"/>
  <unicode hex="0041"/>
  <outline>
    <contour>
      <point x="595" y="-80" type="curve"/>
      <point x="545" y="257"/>
      <point x="478" y="457"/>
      <point x="354" y="696" type="curve"/>
      <point x="329" y="702"/>
      <point x="307" y="704"/>
      <point x="274" y="705" type="curve"/>
      <point x="214" y="443"/>
      <point x="156" y="257"/>
      <point x="19" y="15" type="curve"/>
      <point x="35" y="0"/>
      <point x="56" y="-15"/>
      <point x="88" y="-21" type="curve"/>
      <point x="209" y="213"/>
      <point x="270" y="401"/>
      <point x="324" y="649" type="curve"/>
      <point x="293" y="656" type="line"/>
      <point x="405" y="437"/>
      <point x="466" y="250"/>
      <point x="518" y="-105" type="curve"/>
      <point x="548" y="-100"/>
      <point x="571" y="-94"/>
    </contour>
    <contour>
      <point x="487" y="219" type="curve"/>
      <point x="480" y="279" type="line"/>
      <point x="375" y="279"/>
      <point x="257" y="271"/>
      <point x="159" y="252" type="curve"/>
      <point x="162" y="197" type="line"/>
      <point x="253" y="214"/>
      <point x="370" y="221"/>
    </contour>
    <contour>
      <point x="309" y="745" type="move" name="top"/>
    </contour>
  </outline>
</glyph>
<glyph name="C" format="1">
  <advance width="547"/>
  <unicode hex="0043"/>
  <outline>
    <contour>
      <point x="489" y="209" type="curve"/>
      <point x="469" y="219"/>
      <point x="449" y="223"/>
      <point x="424" y="222" type="curve"/>
      <point x="428" y="102"/>
      <point x="378" y="23"/>
      <point x="285" y="23" type="curve" smooth="yes"/>
      <point x="185" y="23"/>
      <point x="130" y="121"/>
      <point x="130" y="298" type="curve" smooth="yes"/>
      <point x="130" y="519"/>
      <point x="221" y="635"/>
      <point x="309" y="635" type="curve" smooth="yes"/>
      <point x="389" y="635"/>
      <point x="420" y="581"/>
      <point x="411" y="448" type="curve"/>
      <point x="442" y="447"/>
      <point x="469" y="452"/>
      <point x="489" y="465" type="curve"/>
      <point x="493" y="615"/>
      <point x="441" y="693"/>
      <point x="323" y="693" type="curve" smooth="yes"/>
      <point x="157" y="693"/>
      <point x="46" y="524"/>
      <point x="46" y="281" type="curve" smooth="yes"/>
      <point x="46" y="73"/>
      <point x="133" y="-35"/>
      <point x="274" y="-35" type="curve" smooth="yes"/>
      <point x="408" y="-35"/>
      <point x="481" y="51"/>
    </contour>
  </outline>
</glyph>
<glyph name="G" format="1">
  <advance width="568"/>
  <unicode hex="0047"/>
  <outline>
    <contour>
      <point x="476" y="223" type="curve"/>
      <point x="423" y="249" type="line"/>
      <point x="397" y="115"/>
      <point x="339" y="43"/>
      <point x="259" y="43" type="curve" smooth="yes"/>
      <point x="184" y="43"/>
      <point x="128" y="131"/>
      <point x="128" y="323" type="curve" smooth="yes"/>
      <point x="128" y="526"/>
      <point x="198" y="666"/>
      <point x="289" y="666" type="curve" smooth="yes"/>
      <point x="359" y="666"/>
      <point x="398" y="604"/>
      <point x="401" y="478" type="curve"/>
      <point x="432" y="479"/>
      <point x="457" y="483"/>
      <point x="481" y="490" type="curve"/>
      <point x="481" y="623"/>
      <point x="424" y="724"/>
      <point x="308" y="724" type="curve" smooth="yes"/>
      <point x="147" y="724"/>
      <point x="46" y="544"/>
      <point x="46" y="299" type="curve" smooth="yes"/>
      <point x="46" y="93"/>
      <point x="127" y="-21"/>
      <point x="242" y="-21" type="curve" smooth="yes"/>
      <point x="359" y="-21"/>
      <point x="427" y="63"/>
    </contour>
    <contour>
      <point x="538" y="-21" type="curve"/>
      <point x="500" y="104"/>
      <point x="484" y="220"/>
      <point x="486" y="348" type="curve"/>
      <point x="456" y="348"/>
      <point x="425" y="345"/>
      <point x="400" y="339" type="curve"/>
      <point x="408" y="195"/>
      <point x="434" y="79"/>
      <point x="477" y="-29" type="curve"/>
      <point x="499" y="-28"/>
      <point x="522" y="-25"/>
    </contour>
  </outline>
</glyph>
<glyph name="H" format="1">
  <advance width="603"/>
  <unicode hex="0048"/>
  <outline>
    <contour>
      <point x="156" y="13" type="curve"/>
      <point x="145" y="208"/>
      <point x="142" y="553"/>
      <point x="156" y="708" type="curve"/>
      <point x="142" y="712"/>
      <point x="130" y="714"/>
      <point x="115" y="714" type="curve" smooth="yes"/>
      <point x="94" y="714"/>
      <point x="76" y="709"/>
      <point x="65" y="704" type="curve"/>
      <point x="65" y="489"/>
      <point x="71" y="252"/>
      <point x="86" y="7" type="curve"/>
      <point x="109" y="5"/>
      <point x="138" y="8"/>
    </contour>
    <contour>
      <point x="529" y="-55" type="curve"/>
      <point x="529" y="151"/>
      <point x="520" y="490"/>
      <point x="508" y="732" type="curve"/>
      <point x="499" y="738"/>
      <point x="485" y="742"/>
      <point x="472" y="742" type="curve" smooth="yes"/>
      <point x="456" y="742"/>
      <point x="444" y="739"/>
      <point x="428" y="735" type="curve"/>
      <point x="444" y="560"/>
      <point x="451" y="144"/>
      <point x="451" y="-46" type="curve"/>
      <point x="467" y="-50"/>
      <point x="503" y="-55"/>
    </contour>
    <contour>
      <point x="471" y="342" type="curve"/>
      <point x="463" y="406" type="line"/>
      <point x="342" y="406"/>
      <point x="233" y="398"/>
      <point x="120" y="376" type="curve"/>
      <point x="124" y="320" type="line"/>
      <point x="238" y="338"/>
      <point x="356" y="342"/>
    </contour>
  </outline>
</glyph>
<glyph name="K" format="1">
  <advance width="562"/>
  <unicode hex="004B"/>
  <outline>
    <contour>
      <point x="169" y="-62" type="curve"/>
      <point x="152" y="68"/>
      <point x="145" y="163"/>
      <point x="145" y="331" type="curve" smooth="yes"/>
      <point x="145" y="449"/>
      <point x="149" y="564"/>
      <point x="170" y="698" type="curve"/>
      <point x="159" y="701"/>
      <point x="145" y="704"/>
      <point x="129" y="704" type="curve" smooth="yes"/>
      <point x="110" y="704"/>
      <point x="91" y="699"/>
      <point x="76" y="695" type="curve"/>
      <point x="69" y="596"/>
      <point x="66" y="512"/>
      <point x="66" y="440" type="curve" smooth="yes"/>
      <point x="66" y="263"/>
      <point x="73" y="133"/>
      <point x="100" y="-70" type="curve"/>
      <point x="121" y="-70"/>
      <point x="151" y="-66"/>
    </contour>
    <contour>
      <point x="131" y="212" type="line"/>
      <point x="311" y="349"/>
      <point x="394" y="448"/>
      <point x="495" y="636" type="curve"/>
      <point x="478" y="656"/>
      <point x="457" y="675"/>
      <point x="433" y="685" type="curve"/>
      <point x="341" y="490"/>
      <point x="284" y="405"/>
      <point x="107" y="252" type="curve"/>
    </contour>
    <contour>
      <point x="491" y="-84" type="curve"/>
      <point x="520" y="-70"/>
      <point x="538" y="-52"/>
      <point x="553" y="-31" type="curve"/>
      <point x="425" y="164"/>
      <point x="367" y="230"/>
      <point x="236" y="345" type="curve"/>
      <point x="191" y="298" type="line"/>
      <point x="338" y="158"/>
      <point x="405" y="66"/>
    </contour>
  </outline>
</glyph>
<glyph name="M" format="1">
  <advance width="740"/>
  <unicode hex="004D"/>
  <outline>
    <contour>
      <point x="659" y="733" type="curve"/>
      <point x="637" y="744"/>
      <point x="611" y="751"/>
      <point x="587" y="755" type="curve"/>
      <point x="484" y="582"/>
      <point x="406" y="415"/>
      <point x="354" y="232" type="curve"/>
      <point x="389" y="232" type="line"/>
      <point x="337" y="431"/>
      <point x="246" y="616"/>
      <point x="149" y="755" type="curve"/>
      <point x="122" y="750"/>
      <point x="95" y="738"/>
      <point x="71" y="725" type="curve"/>
      <point x="202" y="544"/>
      <point x="280" y="374"/>
      <point x="342" y="174" type="curve"/>
      <point x="359" y="172"/>
      <point x="379" y="173"/>
      <point x="395" y="179" type="curve"/>
      <point x="467" y="409"/>
      <point x="548" y="572"/>
    </contour>
    <contour>
      <point x="139" y="507" type="curve" smooth="yes"/>
      <point x="139" y="589"/>
      <point x="138" y="621"/>
      <point x="152" y="715" type="curve"/>
      <point x="71" y="725" type="line"/>
      <point x="63" y="498"/>
      <point x="79" y="211"/>
      <point x="114" y="-4" type="curve"/>
      <point x="138" y="-4"/>
      <point x="168" y="0"/>
      <point x="187" y="5" type="curve"/>
      <point x="154" y="193"/>
      <point x="139" y="364"/>
    </contour>
    <contour>
      <point x="658" y="-43" type="curve"/>
      <point x="665" y="194"/>
      <point x="670" y="507"/>
      <point x="659" y="733" type="curve"/>
      <point x="593" y="729" type="line"/>
      <point x="598" y="391"/>
      <point x="593" y="174"/>
      <point x="579" y="-56" type="curve"/>
      <point x="610" y="-56"/>
      <point x="634" y="-52"/>
    </contour>
  </outline>
</glyph>
<glyph name="N" format="1">
  <advance width="630"/>
  <unicode hex="004E"/>
  <outline>
    <contour>
      <point x="169" y="-32" type="curve"/>
      <point x="160" y="93"/>
      <point x="152" y="218"/>
      <point x="150" y="331" type="curve" smooth="yes"/>
      <point x="148" y="469"/>
      <point x="145" y="561"/>
      <point x="151" y="683" type="curve"/>
      <point x="133" y="686"/>
      <point x="75" y="683"/>
      <point x="67" y="677" type="curve"/>
      <point x="67" y="462"/>
      <point x="77" y="273"/>
      <point x="104" y="-40" type="curve"/>
      <point x="128" y="-39"/>
      <point x="152" y="-36"/>
    </contour>
    <contour>
      <point x="533" y="24" type="curve"/>
      <point x="550" y="222"/>
      <point x="554" y="366"/>
      <point x="554" y="549" type="curve" smooth="yes"/>
      <point x="554" y="622"/>
      <point x="551" y="689"/>
      <point x="548" y="757" type="curve"/>
      <point x="514" y="756"/>
      <point x="489" y="750"/>
      <point x="463" y="742" type="curve"/>
      <point x="477" y="650"/>
      <point x="481" y="495"/>
      <point x="481" y="352" type="curve" smooth="yes"/>
      <point x="481" y="226"/>
      <point x="480" y="106"/>
      <point x="468" y="17" type="curve"/>
      <point x="492" y="18"/>
      <point x="512" y="20"/>
    </contour>
    <contour>
      <point x="511" y="68" type="line"/>
      <point x="391" y="376"/>
      <point x="270" y="558"/>
      <point x="156" y="705" type="curve"/>
      <point x="116" y="699"/>
      <point x="96" y="691"/>
      <point x="67" y="677" type="curve"/>
      <point x="217" y="514"/>
      <point x="349" y="295"/>
      <point x="468" y="17" type="curve"/>
    </contour>
  </outline>
</glyph>
<glyph name="P" format="1">
  <advance width="550"/>
  <unicode hex="0050"/>
  <outline>
    <contour>
      <point x="161" y="-68" type="curve"/>
      <point x="147" y="89"/>
      <point x="142" y="193"/>
      <point x="143" y="336" type="curve"/>
      <point x="143" y="447"/>
      <point x="147" y="557"/>
      <point x="162" y="703" type="curve"/>
      <point x="74" y="715" type="line"/>
      <point x="70" y="666"/>
      <point x="67" y="586"/>
      <point x="67" y="538" type="curve" smooth="yes"/>
      <point x="67" y="340"/>
      <point x="69" y="210"/>
      <point x="92" y="-65" type="curve"/>
      <point x="108" y="-69"/>
      <point x="143" y="-70"/>
    </contour>
    <contour>
      <point x="511" y="547" type="curve" smooth="yes"/>
      <point x="511" y="660"/>
      <point x="430" y="742"/>
      <point x="256" y="742" type="curve" smooth="yes"/>
      <point x="194" y="742"/>
      <point x="134" y="731"/>
      <point x="74" y="715" type="curve"/>
      <point x="75" y="707"/>
      <point x="96" y="662"/>
      <point x="101" y="654" type="curve"/>
      <point x="150" y="673"/>
      <point x="198" y="687"/>
      <point x="254" y="687" type="curve" smooth="yes"/>
      <point x="375" y="687"/>
      <point x="429" y="628"/>
      <point x="429" y="537" type="curve" smooth="yes"/>
      <point x="429" y="415"/>
      <point x="313" y="335"/>
      <point x="125" y="288" type="curve"/>
      <point x="136" y="230" type="line"/>
      <point x="376" y="301"/>
      <point x="511" y="399"/>
    </contour>
  </outline>
</glyph>
<glyph name="Q" format="1">
  <advance width="592"/>
  <unicode hex="0051"/>
  <outline>
    <contour>
      <point x="545" y="360" type="curve" smooth="yes"/>
      <point x="545" y="538"/>
      <point x="480" y="673"/>
      <point x="325" y="673" type="curve" smooth="yes"/>
      <point x="156" y="673"/>
      <point x="41" y="506"/>
      <point x="41" y="277" type="curve" smooth="yes"/>
      <point x="41" y="79"/>
      <point x="134" y="-40"/>
      <point x="264" y="-40" type="curve" smooth="yes"/>
      <point x="445" y="-40"/>
      <point x="545" y="151"/>
    </contour>
    <contour>
      <point x="315" y="612" type="curve" smooth="yes"/>
      <point x="413" y="612"/>
      <point x="463" y="523"/>
      <point x="463" y="343" type="curve" smooth="yes"/>
      <point x="463" y="159"/>
      <point x="391" y="19"/>
      <point x="271" y="19" type="curve" smooth="yes"/>
      <point x="177" y="19"/>
      <point x="123" y="128"/>
      <point x="123" y="289" type="curve" smooth="yes"/>
      <point x="123" y="483"/>
      <point x="202" y="612"/>
    </contour>
    <contour>
      <point x="529" y="-105" type="curve"/>
      <point x="549" y="-91"/>
      <point x="568" y="-73"/>
      <point x="579" y="-52" type="curve"/>
      <point x="475" y="76"/>
      <point x="422" y="126"/>
      <point x="326" y="194" type="curve"/>
      <point x="312" y="185"/>
      <point x="303" y="167"/>
      <point x="295" y="156" type="curve"/>
      <point x="384" y="84"/>
      <point x="443" y="17"/>
    </contour>
  </outline>
</glyph>
<glyph name="T" format="1">
  <advance width="590"/>
  <unicode hex="0054"/>
  <outline>
    <contour>
      <point x="559" y="722" type="curve"/>
      <point x="560" y="731"/>
      <point x="562" y="743"/>
      <point x="561" y="755" type="curve" smooth="yes"/>
      <point x="560" y="767"/>
      <point x="558" y="780"/>
      <point x="554" y="791" type="curve"/>
      <point x="357" y="788"/>
      <point x="224" y="776"/>
      <point x="22" y="742" type="curve"/>
      <point x="21" y="725"/>
      <point x="23" y="701"/>
      <point x="29" y="677" type="curve"/>
      <point x="242" y="708"/>
      <point x="355" y="719"/>
    </contour>
    <contour>
      <point x="361" y="34" type="curve"/>
      <point x="364" y="101"/>
      <point x="366" y="167"/>
      <point x="366" y="230" type="curve" smooth="yes"/>
      <point x="366" y="415"/>
      <point x="356" y="570"/>
      <point x="336" y="758" type="curve"/>
      <point x="319" y="758"/>
      <point x="260" y="753"/>
      <point x="246" y="750" type="curve"/>
      <point x="279" y="536"/>
      <point x="294" y="252"/>
      <point x="287" y="24" type="curve"/>
      <point x="316" y="25"/>
      <point x="344" y="29"/>
    </contour>
  </outline>
</glyph>
<glyph name="V" format="1">
  <advance width="559"/>
  <unicode hex="0056"/>
  <outline>
    <contour>
      <point x="282" y="-87" type="curve"/>
      <point x="419" y="204"/>
      <point x="484" y="407"/>
      <point x="521" y="747" type="curve"/>
      <point x="494" y="757"/>
      <point x="472" y="761"/>
      <point x="446" y="761" type="curve"/>
      <point x="418" y="456"/>
      <point x="366" y="253"/>
      <point x="260" y="-2" type="curve"/>
      <point x="181" y="199"/>
      <point x="128" y="413"/>
      <point x="102" y="634" type="curve"/>
      <point x="72" y="631"/>
      <point x="48" y="624"/>
      <point x="22" y="612" type="curve"/>
      <point x="59" y="352"/>
      <point x="126" y="120"/>
      <point x="219" y="-95" type="curve"/>
      <point x="242" y="-95"/>
      <point x="262" y="-93"/>
    </contour>
  </outline>
</glyph>
<glyph name="Z" format="1">
  <advance width="585"/>
  <unicode hex="005A"/>
  <outline>
    <contour>
      <point x="503" y="-34" type="curve"/>
      <point x="515" y="-7"/>
      <point x="521" y="19"/>
      <point x="522" y="46" type="curve"/>
      <point x="393" y="37"/>
      <point x="252" y="40"/>
      <point x="101" y="55" type="curve"/>
      <point x="313" y="280"/>
      <point x="447" y="449"/>
      <point x="548" y="606" type="curve"/>
      <point x="551" y="614"/>
      <point x="557" y="654"/>
      <point x="558" y="663" type="curve"/>
      <point x="406" y="685"/>
      <point x="272" y="705"/>
      <point x="112" y="738" type="curve"/>
      <point x="98" y="715"/>
      <point x="91" y="692"/>
      <point x="90" y="664" type="curve"/>
      <point x="207" y="643"/>
      <point x="331" y="627"/>
      <point x="501" y="612" type="curve"/>
      <point x="476" y="638" type="line"/>
      <point x="400" y="500"/>
      <point x="269" y="321"/>
      <point x="28" y="69" type="curve"/>
      <point x="24" y="51"/>
      <point x="22" y="27"/>
      <point x="23" y="5" type="curve"/>
      <point x="154" y="-16"/>
      <point x="331" y="-33"/>
    </contour>
  </outline>
</glyph>
<glyph name="bracketleft" format="1">
  <advance width="355"/>
  <unicode hex="005B"/>
  <outline>
    <contour>
      <point x="344" y="-130" type="curve"/>
      <point x="344" y="-113"/>
      <point x="342" y="-88"/>
      <point x="338" y="-72" type="curve"/>
      <point x="288" y="-81"/>
      <point x="227" y="-86"/>
      <point x="182" y="-86" type="curve"/>
      <point x="131" y="288"/>
      <point x="128" y="502"/>
      <point x="139" y="754" type="curve"/>
      <point x="60" y="753" type="line"/>
      <point x="60" y="457"/>
      <point x="80" y="160"/>
      <point x="126" y="-142" type="curve"/>
      <point x="206" y="-143"/>
      <point x="280" y="-139"/>
    </contour>
    <contour>
      <point x="280" y="786" type="curve"/>
      <point x="211" y="782"/>
      <point x="138" y="772"/>
      <point x="60" y="753" type="curve"/>
      <point x="107" y="710" type="line"/>
      <point x="157" y="721"/>
      <point x="222" y="726"/>
      <point x="279" y="728" type="curve"/>
      <point x="281" y="747"/>
      <point x="281" y="767"/>
    </contour>
  </outline>
</glyph>
<glyph name="bracketright" format="1">
  <advance width="331"/>
  <unicode hex="005D"/>
  <outline>
    <contour>
      <point x="11" y="791" type="curve"/>
      <point x="11" y="774"/>
      <point x="13" y="749"/>
      <point x="16" y="734" type="curve"/>
      <point x="67" y="742"/>
      <point x="123" y="748"/>
      <point x="168" y="748" type="curve"/>
      <point x="199" y="490"/>
      <point x="204" y="209"/>
      <point x="178" y="-84" type="curve"/>
      <point x="247" y="-86" type="line"/>
      <point x="265" y="205"/>
      <point x="270" y="596"/>
      <point x="234" y="804" type="curve"/>
      <point x="152" y="805"/>
      <point x="76" y="801"/>
    </contour>
    <contour>
      <point x="29" y="-115" type="curve"/>
      <point x="97" y="-111"/>
      <point x="168" y="-103"/>
      <point x="247" y="-86" type="curve"/>
      <point x="201" y="-40" type="line"/>
      <point x="157" y="-49"/>
      <point x="93" y="-55"/>
      <point x="30" y="-58" type="curve"/>
      <point x="29" y="-76"/>
      <point x="28" y="-97"/>
    </contour>
  </outline>
</glyph>
<glyph name="asciicircum" format="1">
  <advance width="395"/>
  <unicode hex="005E"/>
  <outline>
    <contour>
      <point x="171" y="474" type="line"/>
      <point x="228" y="395"/>
      <point x="274" y="313"/>
      <point x="322" y="201" type="curve"/>
      <point x="340" y="204"/>
      <point x="350" y="209"/>
      <point x="370" y="217" type="curve"/>
      <point x="327" y="324"/>
      <point x="278" y="418"/>
      <point x="217" y="502" type="curve"/>
      <point x="178" y="505" type="line"/>
      <point x="118" y="428"/>
      <point x="66" y="328"/>
      <point x="24" y="220" type="curve"/>
      <point x="40" y="211"/>
      <point x="55" y="205"/>
      <point x="72" y="203" type="curve"/>
      <point x="120" y="316"/>
      <point x="167" y="407"/>
      <point x="223" y="476" type="curve"/>
    </contour>
  </outline>
</glyph>
<glyph name="a" format="1">
  <advance width="452"/>
  <unicode hex="0061"/>
  <outline>
    <contour>
      <point x="334" y="-34" type="curve"/>
      <point x="314" y="-34"/>
      <point x="290" y="-30"/>
      <point x="269" y="-23" type="curve"/>
      <point x="307" y="139"/>
      <point x="316" y="199"/>
      <point x="316" y="331" type="curve" smooth="yes"/>
      <point x="316" y="443"/>
      <point x="289" y="483"/>
      <point x="232" y="483" type="curve" smooth="yes"/>
      <point x="171" y="483"/>
      <point x="125" y="423"/>
      <point x="122" y="340" type="curve"/>
      <point x="86" y="345"/>
      <point x="63" y="357"/>
      <point x="51" y="379" type="curve"/>
      <point x="66" y="462"/>
      <point x="144" y="537"/>
      <point x="242" y="537" type="curve" smooth="yes"/>
      <point x="365" y="537"/>
      <point x="395" y="439"/>
      <point x="395" y="341" type="curve" smooth="yes"/>
      <point x="395" y="243"/>
      <point x="363" y="72"/>
    </contour>
    <contour>
      <point x="325" y="228" type="line"/>
      <point x="147" y="241"/>
      <point x="106" y="191"/>
      <point x="106" y="138" type="curve" smooth="yes"/>
      <point x="106" y="88"/>
      <point x="142" y="58"/>
      <point x="193" y="58" type="curve" smooth="yes"/>
      <point x="240" y="58"/>
      <point x="282" y="76"/>
      <point x="314" y="109" type="curve"/>
      <point x="308" y="62" type="line"/>
      <point x="283" y="30"/>
      <point x="236" y="7"/>
      <point x="179" y="7" type="curve" smooth="yes"/>
      <point x="88" y="7"/>
      <point x="27" y="60"/>
      <point x="27" y="140" type="curve" smooth="yes"/>
      <point x="27" y="222"/>
      <point x="93" y="273"/>
      <point x="244" y="273" type="curve" smooth="yes"/>
      <point x="280" y="273"/>
      <point x="302" y="272"/>
      <point x="326" y="270" type="curve"/>
    </contour>
  </outline>
</glyph>
<glyph name="e" format="1">
  <advance width="435"/>
  <unicode hex="0065"/>
  <outline>
    <contour>
      <point x="88" y="273" type="line"/>
      <point x="138" y="252"/>
      <point x="192" y="243"/>
      <point x="240" y="243" type="curve" smooth="yes"/>
      <point x="287" y="243"/>
      <point x="328" y="246"/>
      <point x="359" y="257" type="curve"/>
      <point x="371" y="289"/>
      <point x="383" y="337"/>
      <point x="383" y="391" type="curve" smooth="yes"/>
      <point x="383" y="472"/>
      <point x="338" y="530"/>
      <point x="255" y="530" type="curve" smooth="yes"/>
      <point x="121" y="530"/>
      <point x="30" y="363"/>
      <point x="30" y="221" type="curve" smooth="yes"/>
      <point x="30" y="93"/>
      <point x="86" y="-11"/>
      <point x="204" y="-11" type="curve" smooth="yes"/>
      <point x="297" y="-11"/>
      <point x="381" y="71"/>
      <point x="403" y="137" type="curve"/>
      <point x="387" y="153"/>
      <point x="363" y="166"/>
      <point x="342" y="170" type="curve"/>
      <point x="323" y="101"/>
      <point x="262" y="43"/>
      <point x="208" y="43" type="curve" smooth="yes"/>
      <point x="141" y="43"/>
      <point x="107" y="124"/>
      <point x="107" y="219" type="curve" smooth="yes"/>
      <point x="107" y="335"/>
      <point x="166" y="476"/>
      <point x="249" y="476" type="curve" smooth="yes"/>
      <point x="297" y="476"/>
      <point x="310" y="445"/>
      <point x="310" y="394" type="curve" smooth="yes"/>
      <point x="310" y="360"/>
      <point x="302" y="323"/>
      <point x="295" y="296" type="curve"/>
      <point x="287" y="294"/>
      <point x="266" y="292"/>
      <point x="252" y="292" type="curve" smooth="yes"/>
      <point x="213" y="292"/>
      <point x="147" y="296"/>
      <point x="88" y="327" type="curve"/>
    </contour>
  </outline>
</glyph>
<glyph name="g" format="1">
  <advance width="452"/>
  <unicode hex="0067"/>
  <outline>
    <contour>
      <point x="288" y="451" type="curve"/>
      <point x="359" y="490" type="line"/>
      <point x="324" y="507"/>
      <point x="281" y="517"/>
      <point x="243" y="517" type="curve" smooth="yes"/>
      <point x="124" y="517"/>
      <point x="42" y="422"/>
      <point x="42" y="254" type="curve" smooth="yes"/>
      <point x="42" y="101"/>
      <point x="106" y="4"/>
      <point x="207" y="4" type="curve" smooth="yes"/>
      <point x="272" y="4"/>
      <point x="318" y="53"/>
      <point x="350" y="194" type="curve"/>
      <point x="322" y="232" type="line"/>
      <point x="303" y="134"/>
      <point x="274" y="62"/>
      <point x="218" y="62" type="curve" smooth="yes"/>
      <point x="166" y="62"/>
      <point x="123" y="125"/>
      <point x="123" y="257" type="curve" smooth="yes"/>
      <point x="123" y="398"/>
      <point x="164" y="460"/>
      <point x="239" y="460" type="curve" smooth="yes"/>
      <point x="256" y="460"/>
      <point x="275" y="457"/>
    </contour>
    <contour>
      <point x="329" y="490"/>
      <point x="295" y="487"/>
      <point x="275" y="471" type="curve"/>
      <point x="299" y="394"/>
      <point x="316" y="297"/>
      <point x="316" y="150" type="curve" smooth="yes"/>
      <point x="316" y="-124"/>
      <point x="253" y="-191"/>
      <point x="199" y="-191" type="curve" smooth="yes"/>
      <point x="148" y="-191"/>
      <point x="120" y="-153"/>
      <point x="106" y="-56" type="curve"/>
      <point x="80" y="-62"/>
      <point x="55" y="-73"/>
      <point x="35" y="-87" type="curve"/>
      <point x="45" y="-151"/>
      <point x="84" y="-247"/>
      <point x="194" y="-247" type="curve" smooth="yes"/>
      <point x="277" y="-247"/>
      <point x="393" y="-174"/>
      <point x="393" y="169" type="curve" smooth="yes"/>
      <point x="393" y="279"/>
      <point x="377" y="411"/>
      <point x="359" y="490" type="curve"/>
    </contour>
  </outline>
</glyph>
<glyph name="i" format="1">
  <advance width="206"/>
  <unicode hex="0069"/>
  <outline>
    <contour>
      <point x="166" y="658"/>
      <point x="181" y="702"/>
      <point x="194" y="730" type="curve"/>
      <point x="181" y="737"/>
      <point x="168" y="740"/>
      <point x="150" y="741" type="curve" smooth="yes"/>
      <point x="132" y="742"/>
      <point x="122" y="740"/>
      <point x="108" y="734" type="curve"/>
      <point x="97" y="709"/>
      <point x="91" y="673"/>
      <point x="91" y="648" type="curve" smooth="yes"/>
      <point x="91" y="637"/>
      <point x="92" y="627"/>
      <point x="94" y="616" type="curve"/>
      <point x="120" y="615"/>
      <point x="143" y="616"/>
      <point x="157" y="618" type="curve"/>
    </contour>
    <contour>
      <point x="142" y="511"/>
      <point x="133" y="512"/>
      <point x="124" y="512" type="curve" smooth="yes"/>
      <point x="105" y="512"/>
      <point x="88" y="507"/>
      <point x="73" y="498" type="curve"/>
      <point x="46" y="360"/>
      <point x="41" y="167"/>
      <point x="64" y="-7" type="curve"/>
      <point x="69" y="-8"/>
      <point x="75" y="-9"/>
      <point x="84" y="-9" type="curve" smooth="yes"/>
      <point x="98" y="-9"/>
      <point x="114" y="-6"/>
      <point x="124" y="-1" type="curve"/>
      <point x="113" y="174"/>
      <point x="128" y="380"/>
      <point x="152" y="508" type="curve"/>
    </contour>
  </outline>
</glyph>
<glyph name="j" format="1">
  <advance width="229"/>
  <unicode hex="006A"/>
  <outline>
    <contour>
      <point x="99" y="623" type="curve"/>
      <point x="105" y="664"/>
      <point x="117" y="709"/>
      <point x="128" y="738" type="curve"/>
      <point x="113" y="745"/>
      <point x="100" y="747"/>
      <point x="82" y="748" type="curve" smooth="yes"/>
      <point x="64" y="748"/>
      <point x="50" y="745"/>
      <point x="36" y="738" type="curve"/>
      <point x="29" y="715"/>
      <point x="27" y="690"/>
      <point x="29" y="663" type="curve" smooth="yes"/>
      <point x="29" y="647"/>
      <point x="32" y="631"/>
      <point x="36" y="616" type="curve"/>
      <point x="62" y="617"/>
      <point x="84" y="619"/>
    </contour>
    <contour>
      <point x="-61" y="-194"/>
      <point x="-105" y="-164"/>
      <point x="-137" y="-107" type="curve"/>
      <point x="-127" y="-86"/>
      <point x="-112" y="-67"/>
      <point x="-96" y="-55" type="curve"/>
      <point x="-71" y="-108"/>
      <point x="-44" y="-129"/>
      <point x="-11" y="-129" type="curve" smooth="yes"/>
      <point x="50" y="-129"/>
      <point x="87" y="-39"/>
      <point x="87" y="151" type="curve" smooth="yes"/>
      <point x="87" y="280"/>
      <point x="60" y="402"/>
      <point x="31" y="528" type="curve"/>
      <point x="58" y="538"/>
      <point x="91" y="540"/>
      <point x="122" y="537" type="curve"/>
      <point x="148" y="403"/>
      <point x="164" y="297"/>
      <point x="164" y="196" type="curve" smooth="yes"/>
      <point x="164" y="-70"/>
      <point x="98" y="-194"/>
      <point x="-4" y="-194" type="curve" smooth="yes"/>
    </contour>
  </outline>
</glyph>
<glyph name="p" format="1">
  <advance width="453"/>
  <unicode hex="0070"/>
  <outline>
    <contour>
      <point x="112" y="118" type="curve"/>
      <point x="85" y="48" type="line"/>
      <point x="109" y="27"/>
      <point x="138" y="10"/>
      <point x="191" y="10" type="curve" smooth="yes"/>
      <point x="310" y="10"/>
      <point x="415" y="151"/>
      <point x="415" y="358" type="curve" smooth="yes"/>
      <point x="415" y="479"/>
      <point x="364" y="556"/>
      <point x="287" y="556" type="curve" smooth="yes"/>
      <point x="194" y="556"/>
      <point x="126" y="464"/>
      <point x="100" y="327" type="curve"/>
      <point x="126" y="306" type="line"/>
      <point x="153" y="440"/>
      <point x="204" y="487"/>
      <point x="257" y="487" type="curve" smooth="yes"/>
      <point x="303" y="487"/>
      <point x="335" y="440"/>
      <point x="335" y="352" type="curve" smooth="yes"/>
      <point x="335" y="175"/>
      <point x="262" y="62"/>
      <point x="191" y="62" type="curve" smooth="yes"/>
      <point x="157" y="62"/>
      <point x="132" y="82"/>
    </contour>
    <contour>
      <point x="99" y="-220" type="curve"/>
      <point x="121" y="-220"/>
      <point x="147" y="-216"/>
      <point x="166" y="-210" type="curve"/>
      <point x="149" y="-101"/>
      <point x="131" y="38"/>
      <point x="131" y="261" type="curve"/>
      <point x="131" y="386"/>
      <point x="139" y="478"/>
      <point x="159" y="557" type="curve"/>
      <point x="149" y="559"/>
      <point x="143" y="561"/>
      <point x="130" y="561" type="curve" smooth="yes"/>
      <point x="107" y="561"/>
      <point x="86" y="556"/>
      <point x="69" y="547" type="curve"/>
      <point x="63" y="489"/>
      <point x="60" y="431"/>
      <point x="60" y="348" type="curve" smooth="yes"/>
      <point x="60" y="143"/>
      <point x="82" y="-92"/>
    </contour>
  </outline>
</glyph>
<glyph name="t" format="1">
  <advance width="371"/>
  <unicode hex="0074"/>
  <outline>
    <contour>
      <point x="211" y="10" type="curve" smooth="yes"/>
      <point x="288" y="10"/>
      <point x="327" y="86"/>
      <point x="330" y="189" type="curve"/>
      <point x="314" y="199"/>
      <point x="292" y="205"/>
      <point x="272" y="207" type="curve"/>
      <point x="270" y="106"/>
      <point x="252" y="65"/>
      <point x="217" y="65" type="curve" smooth="yes"/>
      <point x="176" y="65"/>
      <point x="157" y="147"/>
      <point x="157" y="282" type="curve" smooth="yes"/>
      <point x="157" y="404"/>
      <point x="177" y="538"/>
      <point x="212" y="648" type="curve"/>
      <point x="188" y="655"/>
      <point x="161" y="660"/>
      <point x="131" y="662" type="curve"/>
      <point x="98" y="530"/>
      <point x="84" y="415"/>
      <point x="84" y="293" type="curve" smooth="yes"/>
      <point x="84" y="109"/>
      <point x="126" y="10"/>
    </contour>
    <contour>
      <point x="33" y="541" type="curve"/>
      <point x="26" y="526"/>
      <point x="22" y="508"/>
      <point x="21" y="490" type="curve"/>
      <point x="105" y="472"/>
      <point x="218" y="469"/>
      <point x="324" y="480" type="curve"/>
      <point x="329" y="496"/>
      <point x="333" y="514"/>
      <point x="333" y="529" type="curve"/>
      <point x="218" y="519"/>
      <point x="114" y="523"/>
    </contour>
  </outline>
</glyph>
<glyph name="v" format="1">
  <advance width="437"/>
  <unicode hex="0076"/>
  <outline>
    <contour>
      <point x="222" y="14" type="curve"/>
      <point x="319" y="204"/>
      <point x="360" y="319"/>
      <point x="406" y="511" type="curve"/>
      <point x="386" y="522"/>
      <point x="361" y="531"/>
      <point x="336" y="534" type="curve"/>
      <point x="319" y="408"/>
      <point x="274" y="257"/>
      <point x="208" y="106" type="curve"/>
      <point x="166" y="320"/>
      <point x="131" y="446"/>
      <point x="87" y="568" type="curve"/>
      <point x="57" y="566"/>
      <point x="28" y="558"/>
      <point x="5" y="545" type="curve"/>
      <point x="74" y="381"/>
      <point x="125" y="205"/>
      <point x="162" y="9" type="curve"/>
      <point x="183" y="9"/>
      <point x="208" y="9"/>
    </contour>
  </outline>
</glyph>
<glyph name="y" format="1">
  <advance width="445"/>
  <unicode hex="0079"/>
  <outline>
    <contour>
      <point x="322" y="520"/>
      <point x="288" y="512"/>
      <point x="268" y="497" type="curve"/>
      <point x="292" y="420"/>
      <point x="309" y="323"/>
      <point x="309" y="175" type="curve" smooth="yes"/>
      <point x="309" y="-99"/>
      <point x="251" y="-166"/>
      <point x="201" y="-166" type="curve" smooth="yes"/>
      <point x="154" y="-166"/>
      <point x="130" y="-127"/>
      <point x="116" y="-30" type="curve"/>
      <point x="90" y="-36"/>
      <point x="66" y="-47"/>
      <point x="45" y="-61" type="curve"/>
      <point x="56" y="-126"/>
      <point x="92" y="-221"/>
      <point x="196" y="-221" type="curve" smooth="yes"/>
      <point x="275" y="-221"/>
      <point x="386" y="-148"/>
      <point x="386" y="194" type="curve" smooth="yes"/>
      <point x="386" y="304"/>
      <point x="371" y="436"/>
      <point x="352" y="515" type="curve"/>
    </contour>
    <contour>
      <point x="58" y="432"/>
      <point x="39" y="361"/>
      <point x="39" y="247" type="curve" smooth="yes"/>
      <point x="39" y="103"/>
      <point x="104" y="18"/>
      <point x="188" y="18" type="curve" smooth="yes"/>
      <point x="249" y="18"/>
      <point x="305" y="62"/>
      <point x="344" y="178" type="curve"/>
      <point x="322" y="234" type="line"/>
      <point x="292" y="128"/>
      <point x="254" y="83"/>
      <point x="209" y="83" type="curve" smooth="yes"/>
      <point x="147" y="83"/>
      <point x="117" y="160"/>
      <point x="117" y="249" type="curve" smooth="yes"/>
      <point x="117" y="335"/>
      <point x="127" y="396"/>
      <point x="160" y="518" type="curve"/>
      <point x="139" y="525"/>
      <point x="111" y="530"/>
      <point x="89" y="531" type="curve"/>
    </contour>
  </outline>
</glyph>
<glyph name="exclamdown" format="1">
  <advance width="217"/>
  <unicode hex="00A1"/>
  <outline>
    <contour>
      <point x="148" y="-157"/>
      <point x="148" y="-132"/>
      <point x="148" y="-115" type="curve" smooth="yes"/>
      <point x="148" y="18"/>
      <point x="146" y="145"/>
      <point x="134" y="341" type="curve"/>
      <point x="123" y="343"/>
      <point x="112" y="345"/>
      <point x="99" y="345" type="curve" smooth="yes"/>
      <point x="88" y="345"/>
      <point x="81" y="344"/>
      <point x="76" y="342" type="curve"/>
      <point x="81" y="174"/>
      <point x="78" y="-12"/>
      <point x="61" y="-182" type="curve"/>
      <point x="71" y="-185"/>
      <point x="80" y="-186"/>
      <point x="95" y="-186" type="curve" smooth="yes"/>
      <point x="114" y="-186"/>
      <point x="129" y="-182"/>
      <point x="147" y="-174" type="curve"/>
    </contour>
    <contour>
      <point x="137" y="497"/>
      <point x="137" y="523"/>
      <point x="135" y="551" type="curve"/>
      <point x="124" y="553"/>
      <point x="112" y="555"/>
      <point x="98" y="555" type="curve" smooth="yes"/>
      <point x="85" y="555"/>
      <point x="73" y="554"/>
      <point x="58" y="551" type="curve"/>
      <point x="60" y="522"/>
      <point x="61" y="502"/>
      <point x="63" y="473" type="curve"/>
      <point x="87" y="471"/>
      <point x="107" y="471"/>
      <point x="135" y="473" type="curve"/>
    </contour>
  </outline>
</glyph>
<glyph name="cent" format="1">
  <advance width="428"/>
  <unicode hex="00A2"/>
  <outline>
    <contour>
      <point x="321" y="425" type="curve"/>
      <point x="351" y="425"/>
      <point x="376" y="430"/>
      <point x="397" y="441" type="curve"/>
      <point x="397" y="547"/>
      <point x="349" y="613"/>
      <point x="253" y="613" type="curve" smooth="yes"/>
      <point x="123" y="613"/>
      <point x="37" y="459"/>
      <point x="37" y="271" type="curve" smooth="yes"/>
      <point x="37" y="152"/>
      <point x="81" y="46"/>
      <point x="206" y="46" type="curve" smooth="yes"/>
      <point x="303" y="46"/>
      <point x="381" y="126"/>
      <point x="398" y="192" type="curve"/>
      <point x="391" y="206"/>
      <point x="366" y="221"/>
      <point x="346" y="224" type="curve"/>
      <point x="316" y="154"/>
      <point x="274" y="101"/>
      <point x="218" y="101" type="curve" smooth="yes"/>
      <point x="143" y="101"/>
      <point x="113" y="181"/>
      <point x="113" y="276" type="curve" smooth="yes"/>
      <point x="113" y="415"/>
      <point x="170" y="561"/>
      <point x="248" y="561" type="curve" smooth="yes"/>
      <point x="302" y="561"/>
      <point x="321" y="505"/>
    </contour>
    <contour>
      <point x="345" y="524" type="line"/>
      <point x="361" y="580"/>
      <point x="385" y="630"/>
      <point x="410" y="676" type="curve"/>
      <point x="389" y="688"/>
      <point x="371" y="695"/>
      <point x="353" y="695" type="curve"/>
      <point x="334" y="659"/>
      <point x="318" y="611"/>
      <point x="303" y="559" type="curve"/>
    </contour>
    <contour>
      <point x="161" y="91" type="curve"/>
      <point x="115" y="127" type="line"/>
      <point x="97" y="65"/>
      <point x="74" y="17"/>
      <point x="47" y="-31" type="curve"/>
      <point x="67" y="-44"/>
      <point x="90" y="-48"/>
      <point x="107" y="-49" type="curve"/>
      <point x="128" y="-8"/>
      <point x="148" y="40"/>
    </contour>
  </outline>
</glyph>
<glyph name="yen" format="1">
  <advance width="477"/>
  <unicode hex="00A5"/>
  <outline>
    <contour>
      <point x="188" y="-47" type="curve"/>
      <point x="208" y="-47"/>
      <point x="232" y="-45"/>
      <point x="252" y="-41" type="curve"/>
      <point x="268" y="109"/>
      <point x="267" y="222"/>
      <point x="266" y="336" type="curve"/>
      <point x="193" y="326" type="line"/>
      <point x="199" y="198"/>
      <point x="198" y="99"/>
    </contour>
    <contour>
      <point x="421" y="191" type="curve" smooth="yes"/>
      <point x="422" y="200"/>
      <point x="422" y="207"/>
      <point x="422" y="216" type="curve"/>
      <point x="283" y="201"/>
      <point x="177" y="200"/>
      <point x="56" y="213" type="curve"/>
      <point x="52" y="199"/>
      <point x="51" y="178"/>
      <point x="51" y="159" type="curve"/>
      <point x="177" y="147"/>
      <point x="280" y="150"/>
      <point x="414" y="163" type="curve"/>
      <point x="417" y="172"/>
      <point x="420" y="182"/>
    </contour>
    <contour>
      <point x="259" y="284" type="line"/>
      <point x="310" y="285"/>
      <point x="361" y="289"/>
      <point x="420" y="296" type="curve"/>
      <point x="424" y="304"/>
      <point x="427" y="313"/>
      <point x="428" y="323" type="curve" smooth="yes"/>
      <point x="428" y="331"/>
      <point x="429" y="340"/>
      <point x="428" y="348" type="curve"/>
      <point x="365" y="342"/>
      <point x="312" y="337"/>
      <point x="259" y="336" type="curve"/>
    </contour>
    <contour>
      <point x="54" y="291" type="curve"/>
      <point x="106" y="286"/>
      <point x="153" y="284"/>
      <point x="199" y="284" type="curve"/>
      <point x="202" y="337" type="line"/>
      <point x="155" y="337"/>
      <point x="109" y="340"/>
      <point x="59" y="345" type="curve"/>
      <point x="55" y="330"/>
      <point x="54" y="310"/>
    </contour>
    <contour>
      <point x="206" y="248" type="curve"/>
      <point x="247" y="292" type="line"/>
      <point x="187" y="476"/>
      <point x="144" y="563"/>
      <point x="84" y="670" type="curve"/>
      <point x="72" y="666"/>
      <point x="61" y="662"/>
      <point x="51" y="657" type="curve" smooth="yes"/>
      <point x="38" y="651"/>
      <point x="28" y="643"/>
      <point x="21" y="635" type="curve"/>
      <point x="89" y="526"/>
      <point x="147" y="418"/>
    </contour>
    <contour>
      <point x="390" y="680" type="curve"/>
      <point x="345" y="539"/>
      <point x="299" y="439"/>
      <point x="209" y="296" type="curve"/>
      <point x="255" y="273" type="line"/>
      <point x="365" y="443"/>
      <point x="411" y="537"/>
      <point x="449" y="652" type="curve"/>
      <point x="428" y="668"/>
      <point x="412" y="678"/>
    </contour>
  </outline>
</glyph>
<glyph name="brokenbar" format="1">
  <advance width="269"/>
  <unicode hex="00A6"/>
  <outline>
    <contour>
      <point x="162" y="376" type="curve"/>
      <point x="162" y="504"/>
      <point x="165" y="628"/>
      <point x="170" y="725" type="curve"/>
      <point x="143" y="728"/>
      <point x="114" y="723"/>
      <point x="94" y="713" type="curve"/>
      <point x="93" y="605"/>
      <point x="93" y="489"/>
      <point x="96" y="371" type="curve"/>
      <point x="118" y="370"/>
      <point x="141" y="371"/>
    </contour>
    <contour>
      <point x="114" y="-170" type="curve"/>
      <point x="130" y="-171"/>
      <point x="158" y="-167"/>
      <point x="171" y="-163" type="curve"/>
      <point x="167" y="-70"/>
      <point x="163" y="70"/>
      <point x="162" y="220" type="curve"/>
      <point x="140" y="224"/>
      <point x="118" y="224"/>
      <point x="99" y="221" type="curve"/>
      <point x="102" y="85"/>
      <point x="106" y="-48"/>
    </contour>
  </outline>
</glyph>
<glyph name="section" format="1">
  <advance width="368"/>
  <unicode hex="00A7"/>
  <outline>
    <contour>
      <point x="262" y="232" type="curve" smooth="yes"/>
      <point x="262" y="178"/>
      <point x="225" y="148"/>
      <point x="168" y="140" type="curve"/>
      <point x="185" y="96" type="line"/>
      <point x="275" y="115"/>
      <point x="330" y="168"/>
      <point x="330" y="243" type="curve" smooth="yes"/>
      <point x="330" y="325"/>
      <point x="274" y="368"/>
      <point x="215" y="407" type="curve" smooth="yes"/>
      <point x="144" y="453"/>
      <point x="120" y="490"/>
      <point x="120" y="545" type="curve" smooth="yes"/>
      <point x="120" y="597"/>
      <point x="147" y="626"/>
      <point x="192" y="626" type="curve" smooth="yes"/>
      <point x="242" y="626"/>
      <point x="268" y="591"/>
      <point x="279" y="514" type="curve"/>
      <point x="301" y="515"/>
      <point x="320" y="519"/>
      <point x="337" y="529" type="curve"/>
      <point x="319" y="631"/>
      <point x="273" y="677"/>
      <point x="189" y="677" type="curve" smooth="yes"/>
      <point x="107" y="677"/>
      <point x="48" y="613"/>
      <point x="48" y="533" type="curve" smooth="yes"/>
      <point x="48" y="458"/>
      <point x="86" y="409"/>
      <point x="161" y="361" type="curve" smooth="yes"/>
      <point x="241" y="309"/>
      <point x="262" y="276"/>
    </contour>
    <contour>
      <point x="98" y="264" type="curve" smooth="yes"/>
      <point x="98" y="318"/>
      <point x="136" y="348"/>
      <point x="193" y="355" type="curve"/>
      <point x="176" y="399" type="line"/>
      <point x="86" y="381"/>
      <point x="31" y="327"/>
      <point x="31" y="252" type="curve" smooth="yes"/>
      <point x="31" y="171"/>
      <point x="89" y="127"/>
      <point x="148" y="88" type="curve" smooth="yes"/>
      <point x="223" y="38"/>
      <point x="251" y="1"/>
      <point x="251" y="-55" type="curve" smooth="yes"/>
      <point x="251" y="-102"/>
      <point x="224" y="-133"/>
      <point x="182" y="-133" type="curve" smooth="yes"/>
      <point x="131" y="-133"/>
      <point x="101" y="-96"/>
      <point x="89" y="-17" type="curve"/>
      <point x="69" y="-17"/>
      <point x="48" y="-24"/>
      <point x="32" y="-33" type="curve"/>
      <point x="52" y="-139"/>
      <point x="102" y="-183"/>
      <point x="184" y="-183" type="curve" smooth="yes"/>
      <point x="267" y="-183"/>
      <point x="323" y="-117"/>
      <point x="323" y="-44" type="curve" smooth="yes"/>
      <point x="323" y="33"/>
      <point x="281" y="82"/>
      <point x="202" y="134" type="curve" smooth="yes"/>
      <point x="122" y="185"/>
      <point x="98" y="220"/>
    </contour>
  </outline>
</glyph>
<glyph name="logicalnot" format="1">
  <advance width="364"/>
  <unicode hex="00AC"/>
  <outline>
    <contour>
      <point x="31" y="401" type="curve"/>
      <point x="27" y="383"/>
      <point x="25" y="368"/>
      <point x="25" y="347" type="curve"/>
      <point x="123" y="335"/>
      <point x="232" y="335"/>
      <point x="329" y="347" type="curve"/>
      <point x="335" y="399" type="line"/>
      <point x="207" y="388"/>
      <point x="122" y="390"/>
    </contour>
    <contour>
      <point x="277" y="224" type="curve"/>
      <point x="295" y="221"/>
      <point x="310" y="219"/>
      <point x="331" y="219" type="curve"/>
      <point x="338" y="277"/>
      <point x="341" y="339"/>
      <point x="335" y="399" type="curve"/>
      <point x="281" y="383" type="line"/>
      <point x="286" y="326"/>
      <point x="286" y="285"/>
    </contour>
  </outline>
</glyph>
<glyph name="registered" format="1">
  <advance width="747"/>
  <unicode hex="00AE"/>
  <outline>
    <contour>
      <point x="639" y="147"/>
      <point x="545" y="31"/>
      <point x="374" y="31" type="curve" smooth="yes"/>
      <point x="209" y="31"/>
      <point x="108" y="146"/>
      <point x="108" y="329" type="curve" smooth="yes"/>
      <point x="108" y="509"/>
      <point x="233" y="646"/>
      <point x="388" y="646" type="curve" smooth="yes"/>
      <point x="554" y="646"/>
      <point x="639" y="522"/>
      <point x="639" y="343" type="curve" smooth="yes"/>
    </contour>
    <contour>
      <point x="577" y="-21"/>
      <point x="705" y="116"/>
      <point x="705" y="341" type="curve" smooth="yes"/>
      <point x="705" y="537"/>
      <point x="613" y="699"/>
      <point x="400" y="699" type="curve" smooth="yes"/>
      <point x="188" y="699"/>
      <point x="42" y="550"/>
      <point x="42" y="318" type="curve" smooth="yes"/>
      <point x="42" y="109"/>
      <point x="176" y="-21"/>
      <point x="366" y="-21" type="curve" smooth="yes"/>
    </contour>
    <contour>
      <point x="317" y="139" type="curve"/>
      <point x="324" y="211"/>
      <point x="327" y="284"/>
      <point x="327" y="355" type="curve" smooth="yes"/>
      <point x="327" y="407"/>
      <point x="325" y="455"/>
      <point x="321" y="515" type="curve"/>
      <point x="307" y="519"/>
      <point x="269" y="521"/>
      <point x="250" y="518" type="curve"/>
      <point x="262" y="416"/>
      <point x="265" y="348"/>
      <point x="265" y="245" type="curve" smooth="yes"/>
      <point x="265" y="208"/>
      <point x="264" y="179"/>
      <point x="262" y="143" type="curve"/>
      <point x="278" y="139"/>
      <point x="301" y="138"/>
    </contour>
    <contour>
      <point x="318" y="288" type="line"/>
      <point x="437" y="318"/>
      <point x="502" y="373"/>
      <point x="502" y="451" type="curve" smooth="yes"/>
      <point x="502" y="511"/>
      <point x="458" y="557"/>
      <point x="374" y="557" type="curve" smooth="yes"/>
      <point x="330" y="557"/>
      <point x="283" y="542"/>
      <point x="250" y="518" type="curve"/>
      <point x="253" y="507"/>
      <point x="267" y="486"/>
      <point x="270" y="473" type="curve"/>
      <point x="297" y="497"/>
      <point x="332" y="517"/>
      <point x="368" y="517" type="curve" smooth="yes"/>
      <point x="411" y="517"/>
      <point x="436" y="490"/>
      <point x="436" y="442" type="curve" smooth="yes"/>
      <point x="436" y="382"/>
      <point x="397" y="345"/>
      <point x="312" y="328" type="curve"/>
    </contour>
    <contour>
      <point x="530" y="152" type="curve"/>
      <point x="489" y="240"/>
      <point x="450" y="303"/>
      <point x="408" y="345" type="curve"/>
      <point x="362" y="320" type="line"/>
      <point x="407" y="260"/>
      <point x="434" y="207"/>
      <point x="471" y="122" type="curve"/>
      <point x="494" y="128"/>
      <point x="518" y="140"/>
    </contour>
  </outline>
</glyph>
<glyph name="degree" format="1">
  <advance width="245"/>
  <unicode hex="00B0"/>
  <outline>
    <contour>
      <point x="131" y="741" type="curve" smooth="yes"/>
      <point x="54" y="741"/>
      <point x="10" y="695"/>
      <point x="10" y="629" type="curve" smooth="yes"/>
      <point x="10" y="566"/>
      <point x="51" y="521"/>
      <point x="117" y="521" type="curve" smooth="yes"/>
      <point x="192" y="521"/>
      <point x="235" y="570"/>
      <point x="235" y="648" type="curve" smooth="yes"/>
      <point x="235" y="702"/>
      <point x="197" y="741"/>
    </contour>
    <contour>
      <point x="126" y="700" type="curve" smooth="yes"/>
      <point x="152" y="700"/>
      <point x="179" y="685"/>
      <point x="179" y="639" type="curve" smooth="yes"/>
      <point x="179" y="592"/>
      <point x="151" y="565"/>
      <point x="120" y="565" type="curve" smooth="yes"/>
      <point x="86" y="565"/>
      <point x="63" y="588"/>
      <point x="63" y="628" type="curve" smooth="yes"/>
      <point x="63" y="671"/>
      <point x="89" y="700"/>
    </contour>
  </outline>
</glyph>
<glyph name="plusminus" format="1">
  <advance width="364"/>
  <unicode hex="00B1"/>
  <outline>
    <contour>
      <point x="26" y="161" type="curve"/>
      <point x="23" y="143"/>
      <point x="21" y="128"/>
      <point x="21" y="107" type="curve"/>
      <point x="119" y="95"/>
      <point x="228" y="95"/>
      <point x="325" y="107" type="curve"/>
      <point x="329" y="124"/>
      <point x="330" y="142"/>
      <point x="330" y="159" type="curve"/>
      <point x="203" y="148"/>
      <point x="117" y="150"/>
    </contour>
    <component base="plus" xOffset="-3" yOffset="8"/>
  </outline>
</glyph>
<glyph name="uni00B5" format="1">
  <advance width="443"/>
  <unicode hex="00B5"/>
  <outline>
    <contour>
      <point x="341" y="-6" type="curve" smooth="yes"/>
      <point x="360" y="-6"/>
      <point x="381" y="-2"/>
      <point x="394" y="3" type="curve"/>
      <point x="394" y="170"/>
      <point x="385" y="431"/>
      <point x="376" y="559" type="curve"/>
      <point x="354" y="559"/>
      <point x="323" y="555"/>
      <point x="307" y="550" type="curve"/>
      <point x="325" y="386"/>
      <point x="317" y="121"/>
      <point x="306" y="-3" type="curve"/>
      <point x="321" y="-5"/>
      <point x="329" y="-6"/>
    </contour>
    <contour>
      <point x="71" y="119" type="line"/>
      <point x="81" y="37"/>
      <point x="113" y="-1"/>
      <point x="168" y="-1" type="curve" smooth="yes"/>
      <point x="226" y="-1"/>
      <point x="285" y="44"/>
      <point x="339" y="165" type="curve"/>
      <point x="321" y="215" type="line"/>
      <point x="286" y="113"/>
      <point x="232" y="63"/>
      <point x="185" y="63" type="curve" smooth="yes"/>
      <point x="137" y="63"/>
      <point x="119" y="99"/>
      <point x="119" y="182" type="curve" smooth="yes"/>
      <point x="119" y="285"/>
      <point x="133" y="389"/>
      <point x="153" y="499" type="curve"/>
      <point x="134" y="505"/>
      <point x="104" y="511"/>
      <point x="82" y="512" type="curve"/>
      <point x="69" y="457"/>
      <point x="46" y="326"/>
      <point x="41" y="198" type="curve" smooth="yes"/>
      <point x="36" y="74"/>
      <point x="37" y="-29"/>
      <point x="39" y="-188" type="curve"/>
      <point x="51" y="-194"/>
      <point x="68" y="-198"/>
      <point x="86" y="-198" type="curve" smooth="yes"/>
      <point x="98" y="-198"/>
      <point x="109" y="-198"/>
      <point x="122" y="-195" type="curve"/>
      <point x="101" y="-97"/>
      <point x="87" y="57"/>
      <point x="87" y="177" type="curve"/>
    </contour>
  </outline>
</glyph>
<glyph name="cedilla" format="1">
  <advance width="261"/>
  <unicode hex="00B8"/>
  <outline>
    <contour>
      <point x="121" y="-225" type="curve" smooth="yes"/>
      <point x="187" y="-225"/>
      <point x="229" y="-186"/>
      <point x="229" y="-130" type="curve" smooth="yes"/>
      <point x="229" y="-84"/>
      <point x="198" y="-53"/>
      <point x="146" y="-53" type="curve" smooth="yes"/>
      <point x="122" y="-53"/>
      <point x="99" y="-60"/>
      <point x="75" y="-75" type="curve"/>
      <point x="106" y="-86" type="line"/>
      <point x="129" y="-54"/>
      <point x="138" y="-27"/>
      <point x="141" y="0" type="curve"/>
      <point x="93" y="9" type="line"/>
      <point x="89" y="-21"/>
      <point x="78" y="-50"/>
      <point x="61" y="-77" type="curve"/>
      <point x="66" y="-85"/>
      <point x="78" y="-96"/>
      <point x="87" y="-103" type="curve"/>
      <point x="99" y="-96"/>
      <point x="109" y="-93"/>
      <point x="123" y="-93" type="curve" smooth="yes"/>
      <point x="149" y="-93"/>
      <point x="167" y="-111"/>
      <point x="167" y="-135" type="curve" smooth="yes"/>
      <point x="167" y="-163"/>
      <point x="149" y="-179"/>
      <point x="119" y="-179" type="curve" smooth="yes"/>
      <point x="91" y="-179"/>
      <point x="69" y="-159"/>
      <point x="59" y="-129" type="curve"/>
      <point x="43" y="-135"/>
      <point x="32" y="-142"/>
      <point x="17" y="-152" type="curve"/>
      <point x="35" y="-201"/>
      <point x="71" y="-225"/>
    </contour>
    <contour>
      <point x="114" y="0" type="move" name="_bottom"/>
    </contour>
  </outline>
</glyph>
<glyph name="Eth" format="1">
  <advance width="576"/>
  <unicode hex="00D0"/>
  <outline>
    <contour>
      <point x="148" y="-11" type="curve"/>
      <point x="144" y="66"/>
      <point x="142" y="130"/>
      <point x="142" y="229" type="curve" smooth="yes"/>
      <point x="142" y="383"/>
      <point x="141" y="477"/>
      <point x="154" y="671" type="curve"/>
      <point x="143" y="674"/>
      <point x="81" y="677"/>
      <point x="67" y="675" type="curve"/>
      <point x="65" y="624"/>
      <point x="64" y="558"/>
      <point x="64" y="508" type="curve" smooth="yes"/>
      <point x="64" y="347"/>
      <point x="69" y="200"/>
      <point x="80" y="-3" type="curve"/>
      <point x="89" y="-5"/>
      <point x="139" y="-11"/>
    </contour>
    <contour>
      <point x="535" y="444" type="curve" smooth="yes"/>
      <point x="535" y="611"/>
      <point x="449" y="717"/>
      <point x="242" y="717" type="curve" smooth="yes"/>
      <point x="184" y="717"/>
      <point x="123" y="701"/>
      <point x="67" y="675" type="curve"/>
      <point x="69" y="667"/>
      <point x="89" y="625"/>
      <point x="94" y="617" type="curve"/>
      <point x="135" y="643"/>
      <point x="188" y="659"/>
      <point x="240" y="659" type="curve" smooth="yes"/>
      <point x="388" y="659"/>
      <point x="453" y="575"/>
      <point x="453" y="446" type="curve" smooth="yes"/>
      <point x="453" y="265"/>
      <point x="350" y="114"/>
      <point x="105" y="35" type="curve"/>
      <point x="148" y="-11" type="line"/>
      <point x="388" y="64"/>
      <point x="535" y="245"/>
    </contour>
    <contour>
      <point x="-23" y="403" type="curve"/>
      <point x="-26" y="389"/>
      <point x="-26" y="371"/>
      <point x="-25" y="350" type="curve"/>
      <point x="79" y="340"/>
      <point x="179" y="341"/>
      <point x="292" y="360" type="curve"/>
      <point x="295" y="378"/>
      <point x="295" y="397"/>
      <point x="294" y="412" type="curve"/>
      <point x="173" y="392"/>
      <point x="91" y="392"/>
    </contour>
  </outline>
</glyph>
<glyph name="multiply" format="1">
  <advance width="365"/>
  <unicode hex="00D7"/>
  <outline>
    <contour>
      <point x="278" y="446" type="curve"/>
      <point x="198" y="376"/>
      <point x="126" y="295"/>
      <point x="59" y="218" type="curve"/>
      <point x="69" y="204"/>
      <point x="81" y="191"/>
      <point x="95" y="181" type="curve"/>
      <point x="180" y="274"/>
      <point x="244" y="344"/>
      <point x="314" y="405" type="curve"/>
      <point x="305" y="420"/>
      <point x="294" y="434"/>
    </contour>
    <contour>
      <point x="274" y="178" type="curve"/>
      <point x="289" y="189"/>
      <point x="301" y="199"/>
      <point x="315" y="214" type="curve"/>
      <point x="250" y="298"/>
      <point x="168" y="381"/>
      <point x="88" y="442" type="curve"/>
      <point x="75" y="431"/>
      <point x="62" y="420"/>
      <point x="50" y="407" type="curve"/>
      <point x="152" y="321"/>
      <point x="213" y="256"/>
    </contour>
  </outline>
</glyph>
<glyph name="Oslash" format="1">
  <advance width="586"/>
  <unicode hex="00D8"/>
  <outline>
    <contour>
      <point x="53" y="-44" type="curve"/>
      <point x="68" y="-59"/>
      <point x="83" y="-68"/>
      <point x="109" y="-76" type="curve"/>
      <point x="261" y="201"/>
      <point x="393" y="455"/>
      <point x="527" y="761" type="curve"/>
      <point x="510" y="776"/>
      <point x="493" y="786"/>
      <point x="475" y="793" type="curve"/>
      <point x="320" y="454"/>
      <point x="197" y="191"/>
    </contour>
    <contour>
      <point x="545" y="394" type="curve" smooth="yes"/>
      <point x="545" y="614"/>
      <point x="467" y="733"/>
      <point x="319" y="733" type="curve" smooth="yes"/>
      <point x="151" y="733"/>
      <point x="38" y="563"/>
      <point x="38" y="339" type="curve" smooth="yes"/>
      <point x="38" y="135"/>
      <point x="126" y="-20"/>
      <point x="267" y="-20" type="curve" smooth="yes"/>
      <point x="475" y="-20"/>
      <point x="545" y="226"/>
    </contour>
    <contour>
      <point x="276" y="39" type="curve" smooth="yes"/>
      <point x="163" y="39"/>
      <point x="121" y="209"/>
      <point x="121" y="351" type="curve" smooth="yes"/>
      <point x="121" y="543"/>
      <point x="200" y="672"/>
      <point x="307" y="672" type="curve" smooth="yes"/>
      <point x="409" y="672"/>
      <point x="463" y="590"/>
      <point x="463" y="377" type="curve" smooth="yes"/>
      <point x="463" y="216"/>
      <point x="410" y="39"/>
    </contour>
  </outline>
</glyph>
<glyph name="Thorn" format="1">
  <advance width="537"/>
  <unicode hex="00DE"/>
  <outline>
    <contour>
      <point x="154" y="-68" type="curve"/>
      <point x="142" y="89"/>
      <point x="136" y="194"/>
      <point x="136" y="336" type="curve" smooth="yes"/>
      <point x="136" y="447"/>
      <point x="140" y="559"/>
      <point x="155" y="705" type="curve"/>
      <point x="129" y="715"/>
      <point x="98" y="719"/>
      <point x="68" y="716" type="curve"/>
      <point x="64" y="667"/>
      <point x="61" y="586"/>
      <point x="61" y="538" type="curve" smooth="yes"/>
      <point x="61" y="340"/>
      <point x="63" y="210"/>
      <point x="86" y="-65" type="curve"/>
      <point x="103" y="-69"/>
      <point x="132" y="-70"/>
    </contour>
    <contour>
      <point x="509" y="409" type="curve" smooth="yes"/>
      <point x="509" y="522"/>
      <point x="428" y="604"/>
      <point x="254" y="604" type="curve" smooth="yes"/>
      <point x="191" y="604"/>
      <point x="132" y="593"/>
      <point x="72" y="577" type="curve"/>
      <point x="98" y="516" type="line"/>
      <point x="144" y="538"/>
      <point x="196" y="549"/>
      <point x="252" y="549" type="curve" smooth="yes"/>
      <point x="372" y="549"/>
      <point x="427" y="490"/>
      <point x="427" y="399" type="curve" smooth="yes"/>
      <point x="427" y="277"/>
      <point x="311" y="197"/>
      <point x="123" y="150" type="curve"/>
      <point x="133" y="92" type="line"/>
      <point x="374" y="163"/>
      <point x="509" y="261"/>
    </contour>
  </outline>
</glyph>
<glyph name="germandbls" format="1">
  <advance width="570"/>
  <unicode hex="00DF"/>
  <outline>
    <contour>
      <point x="118" y="385" type="line"/>
      <point x="74" y="390"/>
      <point x="40" y="398"/>
      <point x="23" y="405" type="curve"/>
      <point x="23" y="417"/>
      <point x="26" y="443"/>
      <point x="31" y="449" type="curve"/>
      <point x="57" y="445"/>
      <point x="86" y="442"/>
      <point x="118" y="439" type="curve"/>
    </contour>
    <contour>
      <point x="323" y="402" type="curve" smooth="yes"/>
      <point x="323" y="273"/>
      <point x="547" y="280"/>
      <point x="547" y="119" type="curve" smooth="yes"/>
      <point x="547" y="27"/>
      <point x="492" y="-40"/>
      <point x="400" y="-40" type="curve" smooth="yes"/>
      <point x="310" y="-40"/>
      <point x="243" y="30"/>
      <point x="242" y="146" type="curve"/>
      <point x="260" y="152"/>
      <point x="283" y="156"/>
      <point x="305" y="155" type="curve"/>
      <point x="303" y="65"/>
      <point x="338" y="12"/>
      <point x="401" y="12" type="curve" smooth="yes"/>
      <point x="450" y="12"/>
      <point x="474" y="49"/>
      <point x="474" y="103" type="curve" smooth="yes"/>
      <point x="474" y="234"/>
      <point x="258" y="228"/>
      <point x="258" y="374" type="curve" smooth="yes"/>
      <point x="258" y="421"/>
      <point x="275" y="455"/>
      <point x="311" y="494" type="curve" smooth="yes"/>
      <point x="341" y="527"/>
      <point x="351" y="548"/>
      <point x="351" y="593" type="curve" smooth="yes"/>
      <point x="351" y="636"/>
      <point x="325" y="672"/>
      <point x="278" y="672" type="curve" smooth="yes"/>
      <point x="218" y="672"/>
      <point x="157" y="623"/>
      <point x="157" y="448" type="curve" smooth="yes"/>
      <point x="157" y="275"/>
      <point x="177" y="107"/>
      <point x="204" y="-6" type="curve"/>
      <point x="182" y="-13"/>
      <point x="152" y="-21"/>
      <point x="125" y="-21" type="curve"/>
      <point x="112" y="38"/>
      <point x="86" y="236"/>
      <point x="86" y="400" type="curve" smooth="yes"/>
      <point x="86" y="643"/>
      <point x="168" y="727"/>
      <point x="277" y="727" type="curve" smooth="yes"/>
      <point x="364" y="727"/>
      <point x="411" y="663"/>
      <point x="411" y="592" type="curve" smooth="yes"/>
      <point x="411" y="553"/>
      <point x="394" y="525"/>
      <point x="364" y="494" type="curve" smooth="yes"/>
      <point x="335" y="463"/>
      <point x="323" y="439"/>
    </contour>
  </outline>
</glyph>
<glyph name="ae" format="1">
  <advance width="717"/>
  <unicode hex="00E6"/>
  <outline>
    <contour>
      <point x="242" y="532" type="curve" smooth="yes"/>
      <point x="146" y="532"/>
      <point x="66" y="458"/>
      <point x="51" y="373" type="curve"/>
      <point x="63" y="352"/>
      <point x="86" y="340"/>
      <point x="122" y="335" type="curve"/>
      <point x="125" y="418"/>
      <point x="171" y="478"/>
      <point x="232" y="478" type="curve" smooth="yes"/>
      <point x="288" y="478"/>
      <point x="316" y="442"/>
      <point x="316" y="335" type="curve" smooth="yes"/>
      <point x="316" y="312"/>
      <point x="317" y="281"/>
      <point x="315" y="234" type="curve"/>
      <point x="352" y="237"/>
      <point x="364" y="206"/>
      <point x="376" y="210" type="curve"/>
      <point x="389" y="342" type="line"/>
      <point x="387" y="425"/>
      <point x="353" y="532"/>
    </contour>
    <contour>
      <point x="370" y="268" type="line"/>
      <point x="420" y="247"/>
      <point x="474" y="237"/>
      <point x="522" y="237" type="curve" smooth="yes"/>
      <point x="569" y="237"/>
      <point x="610" y="241"/>
      <point x="641" y="252" type="curve"/>
      <point x="653" y="283"/>
      <point x="665" y="332"/>
      <point x="665" y="386" type="curve" smooth="yes"/>
      <point x="665" y="466"/>
      <point x="620" y="525"/>
      <point x="539" y="525" type="curve" smooth="yes"/>
      <point x="404" y="525"/>
      <point x="314" y="340"/>
      <point x="314" y="217" type="curve" smooth="yes"/>
      <point x="314" y="89"/>
      <point x="372" y="-16"/>
      <point x="486" y="-16" type="curve" smooth="yes"/>
      <point x="579" y="-16"/>
      <point x="663" y="65"/>
      <point x="685" y="132" type="curve"/>
      <point x="669" y="148"/>
      <point x="645" y="161"/>
      <point x="624" y="165" type="curve"/>
      <point x="605" y="96"/>
      <point x="544" y="38"/>
      <point x="491" y="38" type="curve" smooth="yes"/>
      <point x="423" y="38"/>
      <point x="389" y="118"/>
      <point x="389" y="214" type="curve" smooth="yes"/>
      <point x="389" y="330"/>
      <point x="449" y="470"/>
      <point x="531" y="470" type="curve" smooth="yes"/>
      <point x="580" y="470"/>
      <point x="592" y="440"/>
      <point x="592" y="389" type="curve" smooth="yes"/>
      <point x="592" y="355"/>
      <point x="585" y="318"/>
      <point x="578" y="291" type="curve"/>
      <point x="569" y="289"/>
      <point x="548" y="287"/>
      <point x="534" y="287" type="curve" smooth="yes"/>
      <point x="496" y="287"/>
      <point x="429" y="291"/>
      <point x="370" y="322" type="curve"/>
    </contour>
    <contour>
      <point x="326" y="265" type="line"/>
      <point x="302" y="267"/>
      <point x="280" y="268"/>
      <point x="244" y="268" type="curve" smooth="yes"/>
      <point x="91" y="268"/>
      <point x="27" y="210"/>
      <point x="27" y="131" type="curve" smooth="yes"/>
      <point x="27" y="55"/>
      <point x="80" y="2"/>
      <point x="171" y="2" type="curve" smooth="yes"/>
      <point x="246" y="2"/>
      <point x="307" y="31"/>
      <point x="357" y="101" type="curve"/>
      <point x="353" y="144" type="line"/>
      <point x="308" y="82"/>
      <point x="246" y="53"/>
      <point x="185" y="53" type="curve" smooth="yes"/>
      <point x="133" y="53"/>
      <point x="106" y="83"/>
      <point x="106" y="129" type="curve" smooth="yes"/>
      <point x="106" y="186"/>
      <point x="154" y="237"/>
      <point x="325" y="223" type="curve"/>
    </contour>
  </outline>
</glyph>
<glyph name="eth" format="1">
  <advance width="461"/>
  <unicode hex="00F0"/>
  <outline>
    <contour>
      <point x="338" y="451" type="curve"/>
      <point x="346" y="502" type="line"/>
      <point x="334" y="510"/>
      <point x="289" y="521"/>
      <point x="251" y="521" type="curve" smooth="yes"/>
      <point x="117" y="521"/>
      <point x="33" y="406"/>
      <point x="33" y="233" type="curve" smooth="yes"/>
      <point x="33" y="87"/>
      <point x="90" y="-30"/>
      <point x="200" y="-30" type="curve" smooth="yes"/>
      <point x="281" y="-30"/>
      <point x="340" y="33"/>
      <point x="355" y="251" type="curve"/>
      <point x="326" y="279" type="line"/>
      <point x="318" y="81"/>
      <point x="261" y="28"/>
      <point x="211" y="28" type="curve" smooth="yes"/>
      <point x="151" y="28"/>
      <point x="109" y="99"/>
      <point x="109" y="244" type="curve" smooth="yes"/>
      <point x="109" y="403"/>
      <point x="185" y="467"/>
      <point x="260" y="467" type="curve" smooth="yes"/>
      <point x="299" y="467"/>
      <point x="320" y="460"/>
    </contour>
    <contour>
      <point x="313" y="476"/>
      <point x="322" y="128"/>
      <point x="336" y="-42" type="curve"/>
      <point x="355" y="-42"/>
      <point x="380" y="-37"/>
      <point x="393" y="-33" type="curve"/>
      <point x="391" y="16"/>
      <point x="390" y="53"/>
      <point x="390" y="122" type="curve" smooth="yes"/>
      <point x="390" y="306"/>
      <point x="389" y="589"/>
      <point x="400" y="722" type="curve"/>
      <point x="387" y="725"/>
      <point x="374" y="727"/>
      <point x="363" y="727" type="curve" smooth="yes"/>
      <point x="345" y="727"/>
      <point x="324" y="722"/>
      <point x="313" y="716" type="curve"/>
    </contour>
    <contour>
      <point x="174" y="621"/>
      <point x="174" y="603"/>
      <point x="174" y="582" type="curve"/>
      <point x="280" y="572"/>
      <point x="387" y="573"/>
      <point x="500" y="592" type="curve"/>
      <point x="502" y="610"/>
      <point x="503" y="629"/>
      <point x="502" y="644" type="curve"/>
      <point x="381" y="624"/>
      <point x="291" y="624"/>
      <point x="176" y="635" type="curve"/>
    </contour>
  </outline>
</glyph>
<glyph name="divide" format="1">
  <advance width="365"/>
  <unicode hex="00F7"/>
  <outline>
    <contour>
      <point x="33" y="349" type="curve"/>
      <point x="29" y="332"/>
      <point x="27" y="316"/>
      <point x="27" y="295" type="curve"/>
      <point x="125" y="283"/>
      <point x="234" y="283"/>
      <point x="331" y="295" type="curve"/>
      <point x="335" y="312"/>
      <point x="337" y="330"/>
      <point x="337" y="347" type="curve"/>
      <point x="209" y="337"/>
      <point x="124" y="338"/>
    </contour>
    <contour>
      <point x="239" y="398" type="curve"/>
      <point x="244" y="426"/>
      <point x="245" y="451"/>
      <point x="246" y="480" type="curve"/>
      <point x="206" y="486"/>
      <point x="174" y="482"/>
      <point x="150" y="477" type="curve"/>
      <point x="150" y="448"/>
      <point x="152" y="429"/>
      <point x="154" y="398" type="curve"/>
      <point x="182" y="394"/>
      <point x="206" y="394"/>
    </contour>
    <contour>
      <point x="236" y="152" type="curve"/>
      <point x="241" y="181"/>
      <point x="242" y="205"/>
      <point x="243" y="234" type="curve"/>
      <point x="203" y="240"/>
      <point x="170" y="236"/>
      <point x="147" y="231" type="curve"/>
      <point x="147" y="202"/>
      <point x="149" y="183"/>
      <point x="151" y="152" type="curve"/>
      <point x="179" y="148"/>
      <point x="203" y="148"/>
    </contour>
  </outline>
</glyph>
<glyph name="thorn" format="1">
  <advance width="445"/>
  <unicode hex="00FE"/>
  <outline>
    <contour>
      <point x="105" y="118" type="curve"/>
      <point x="79" y="48" type="line"/>
      <point x="103" y="27"/>
      <point x="131" y="10"/>
      <point x="184" y="10" type="curve" smooth="yes"/>
      <point x="303" y="10"/>
      <point x="408" y="151"/>
      <point x="408" y="358" type="curve" smooth="yes"/>
      <point x="408" y="479"/>
      <point x="358" y="556"/>
      <point x="281" y="556" type="curve" smooth="yes"/>
      <point x="187" y="556"/>
      <point x="119" y="464"/>
      <point x="93" y="327" type="curve"/>
      <point x="119" y="306" type="line"/>
      <point x="146" y="440"/>
      <point x="198" y="487"/>
      <point x="250" y="487" type="curve" smooth="yes"/>
      <point x="296" y="487"/>
      <point x="328" y="440"/>
      <point x="328" y="352" type="curve" smooth="yes"/>
      <point x="328" y="175"/>
      <point x="256" y="62"/>
      <point x="184" y="62" type="curve" smooth="yes"/>
      <point x="150" y="62"/>
      <point x="125" y="82"/>
    </contour>
    <contour>
      <point x="91" y="-220" type="curve"/>
      <point x="114" y="-220"/>
      <point x="140" y="-216"/>
      <point x="159" y="-210" type="curve"/>
      <point x="122" y="41"/>
      <point x="105" y="512"/>
      <point x="162" y="743" type="curve"/>
      <point x="152" y="746"/>
      <point x="143" y="748"/>
      <point x="128" y="748" type="curve" smooth="yes"/>
      <point x="107" y="748"/>
      <point x="89" y="742"/>
      <point x="73" y="732" type="curve"/>
      <point x="28" y="451"/>
      <point x="61" y="18"/>
    </contour>
  </outline>
</glyph>
<glyph name="Aogonek" format="1">
  <advance width="615"/>
  <unicode hex="0104"/>
  <outline>
    <contour>
      <point x="595" y="-80" type="curve"/>
      <point x="545" y="257"/>
      <point x="478" y="457"/>
      <point x="354" y="696" type="curve"/>
      <point x="329" y="702"/>
      <point x="307" y="704"/>
      <point x="274" y="705" type="curve"/>
      <point x="214" y="443"/>
      <point x="156" y="257"/>
      <point x="19" y="15" type="curve"/>
      <point x="35" y="0"/>
      <point x="56" y="-15"/>
      <point x="88" y="-21" type="curve"/>
      <point x="209" y="213"/>
      <point x="270" y="401"/>
      <point x="324" y="649" type="curve"/>
      <point x="293" y="656" type="line"/>
      <point x="405" y="437"/>
      <point x="466" y="250"/>
      <point x="518" y="-105" type="curve"/>
      <point x="548" y="-100"/>
      <point x="571" y="-94"/>
    </contour>
    <contour>
      <point x="487" y="219" type="curve"/>
      <point x="480" y="279" type="line"/>
      <point x="375" y="279"/>
      <point x="257" y="271"/>
      <point x="159" y="252" type="curve"/>
      <point x="162" y="197" type="line"/>
      <point x="253" y="214"/>
      <point x="370" y="221"/>
    </contour>
    <contour>
      <point x="583" y="-85" type="curve"/>
      <point x="553" y="-75" type="line"/>
      <point x="488" y="-118"/>
      <point x="454" y="-163"/>
      <point x="454" y="-215" type="curve" smooth="yes"/>
      <point x="454" y="-260"/>
      <point x="485" y="-290"/>
      <point x="535" y="-290" type="curve" smooth="yes"/>
      <point x="581" y="-290"/>
      <point x="611" y="-268"/>
      <point x="635" y="-232" type="curve"/>
      <point x="629" y="-215"/>
      <point x="622" y="-203"/>
      <point x="610" y="-193" type="curve"/>
      <point x="593" y="-224"/>
      <point x="575" y="-237"/>
      <point x="551" y="-237" type="curve" smooth="yes"/>
      <point x="528" y="-237"/>
      <point x="517" y="-223"/>
      <point x="517" y="-199" type="curve" smooth="yes"/>
      <point x="517" y="-163"/>
      <point x="535" y="-128"/>
    </contour>
  </outline>
</glyph>
<glyph name="aogonek" format="1">
  <advance width="450"/>
  <unicode hex="0105"/>
  <outline>
    <contour>
      <point x="334" y="-34" type="curve"/>
      <point x="314" y="-34"/>
      <point x="290" y="-30"/>
      <point x="269" y="-23" type="curve"/>
      <point x="307" y="139"/>
      <point x="316" y="199"/>
      <point x="316" y="331" type="curve" smooth="yes"/>
      <point x="316" y="443"/>
      <point x="289" y="483"/>
      <point x="232" y="483" type="curve" smooth="yes"/>
      <point x="171" y="483"/>
      <point x="125" y="423"/>
      <point x="122" y="340" type="curve"/>
      <point x="86" y="345"/>
      <point x="63" y="357"/>
      <point x="51" y="379" type="curve"/>
      <point x="66" y="462"/>
      <point x="144" y="537"/>
      <point x="242" y="537" type="curve" smooth="yes"/>
      <point x="365" y="537"/>
      <point x="395" y="439"/>
      <point x="395" y="341" type="curve" smooth="yes"/>
      <point x="395" y="243"/>
      <point x="363" y="72"/>
    </contour>
    <contour>
      <point x="325" y="228" type="line"/>
      <point x="147" y="241"/>
      <point x="106" y="191"/>
      <point x="106" y="138" type="curve" smooth="yes"/>
      <point x="106" y="88"/>
      <point x="142" y="58"/>
      <point x="193" y="58" type="curve" smooth="yes"/>
      <point x="240" y="58"/>
      <point x="282" y="76"/>
      <point x="314" y="109" type="curve"/>
      <point x="308" y="62" type="line"/>
      <point x="283" y="30"/>
      <point x="236" y="7"/>
      <point x="179" y="7" type="curve" smooth="yes"/>
      <point x="88" y="7"/>
      <point x="27" y="60"/>
      <point x="27" y="140" type="curve" smooth="yes"/>
      <point x="27" y="222"/>
      <point x="93" y="273"/>
      <point x="244" y="273" type="curve" smooth="yes"/>
      <point x="280" y="273"/>
      <point x="302" y="272"/>
      <point x="326" y="270" type="curve"/>
    </contour>
    <contour>
      <point x="308" y="-26" type="line"/>
      <point x="260" y="-69"/>
      <point x="242" y="-104"/>
      <point x="242" y="-140" type="curve" smooth="yes"/>
      <point x="242" y="-163"/>
      <point x="254" y="-178"/>
      <point x="276" y="-178" type="curve" smooth="yes"/>
      <point x="300" y="-178"/>
      <point x="318" y="-165"/>
      <point x="335" y="-134" type="curve"/>
      <point x="347" y="-144"/>
      <point x="354" y="-156"/>
      <point x="360" y="-173" type="curve"/>
      <point x="337" y="-209"/>
      <point x="307" y="-231"/>
      <point x="260" y="-231" type="curve" smooth="yes"/>
      <point x="211" y="-231"/>
      <point x="179" y="-201"/>
      <point x="179" y="-156" type="curve" smooth="yes"/>
      <point x="179" y="-104"/>
      <point x="213" y="-59"/>
      <point x="278" y="-16" type="curve"/>
    </contour>
  </outline>
</glyph>
<glyph name="Eogonek" format="1">
  <advance width="520"/>
  <unicode hex="0118"/>
  <outline>
    <contour>
      <point x="480" y="-13" type="curve"/>
      <point x="482" y="4"/>
      <point x="480" y="33"/>
      <point x="475" y="52" type="curve"/>
      <point x="384" y="32"/>
      <point x="294" y="23"/>
      <point x="191" y="20" type="curve"/>
      <point x="173" y="139"/>
      <point x="162" y="253"/>
      <point x="155" y="338" type="curve" smooth="yes"/>
      <point x="144" y="478"/>
      <point x="142" y="585"/>
      <point x="146" y="685" type="curve"/>
      <point x="58" y="691" type="line"/>
      <point x="61" y="503"/>
      <point x="87" y="218"/>
      <point x="126" y="-41" type="curve"/>
      <point x="237" y="-38"/>
      <point x="356" y="-31"/>
    </contour>
    <contour>
      <point x="411" y="356" type="curve"/>
      <point x="412" y="380"/>
      <point x="410" y="400"/>
      <point x="405" y="418" type="curve"/>
      <point x="302" y="409"/>
      <point x="224" y="395"/>
      <point x="131" y="378" type="curve"/>
      <point x="134" y="322" type="line"/>
      <point x="228" y="339"/>
      <point x="292" y="347"/>
    </contour>
    <contour>
      <point x="451" y="670" type="curve"/>
      <point x="455" y="689"/>
      <point x="457" y="711"/>
      <point x="457" y="735" type="curve"/>
      <point x="296" y="731"/>
      <point x="190" y="714"/>
      <point x="58" y="691" type="curve"/>
      <point x="81" y="633" type="line"/>
      <point x="195" y="655"/>
      <point x="312" y="669"/>
    </contour>
    <contour>
      <point x="480" y="-13" type="curve"/>
      <point x="450" y="-3" type="line"/>
      <point x="385" y="-46"/>
      <point x="350" y="-91"/>
      <point x="350" y="-143" type="curve" smooth="yes"/>
      <point x="350" y="-188"/>
      <point x="382" y="-218"/>
      <point x="431" y="-218" type="curve" smooth="yes"/>
      <point x="478" y="-218"/>
      <point x="508" y="-197"/>
      <point x="532" y="-161" type="curve"/>
      <point x="526" y="-143"/>
      <point x="518" y="-131"/>
      <point x="507" y="-121" type="curve"/>
      <point x="490" y="-153"/>
      <point x="472" y="-165"/>
      <point x="448" y="-165" type="curve" smooth="yes"/>
      <point x="425" y="-165"/>
      <point x="414" y="-151"/>
      <point x="414" y="-127" type="curve" smooth="yes"/>
      <point x="414" y="-92"/>
      <point x="432" y="-57"/>
    </contour>
  </outline>
</glyph>
<glyph name="eogonek" format="1">
  <advance width="435"/>
  <unicode hex="0119"/>
  <outline>
    <contour>
      <point x="322" y="25" type="curve" smooth="yes"/>
      <point x="283" y="-3"/>
      <point x="268" y="-43"/>
      <point x="268" y="-75" type="curve" smooth="yes"/>
      <point x="268" y="-101"/>
      <point x="282" y="-120"/>
      <point x="302" y="-120" type="curve" smooth="yes"/>
      <point x="326" y="-120"/>
      <point x="344" y="-108"/>
      <point x="361" y="-76" type="curve"/>
      <point x="373" y="-86"/>
      <point x="380" y="-98"/>
      <point x="386" y="-115" type="curve"/>
      <point x="362" y="-152"/>
      <point x="329" y="-170"/>
      <point x="288" y="-170" type="curve" smooth="yes"/>
      <point x="239" y="-170"/>
      <point x="205" y="-140"/>
      <point x="205" y="-91" type="curve" smooth="yes"/>
      <point x="205" y="-55"/>
      <point x="222" y="-22"/>
      <point x="263" y="14" type="curve"/>
      <point x="262" y="-7" type="line"/>
      <point x="244" y="-14"/>
      <point x="224" y="-16"/>
      <point x="204" y="-16" type="curve" smooth="yes"/>
      <point x="86" y="-16"/>
      <point x="30" y="88"/>
      <point x="30" y="216" type="curve" smooth="yes"/>
      <point x="30" y="357"/>
      <point x="121" y="525"/>
      <point x="255" y="525" type="curve" smooth="yes"/>
      <point x="338" y="525"/>
      <point x="383" y="466"/>
      <point x="383" y="386" type="curve" smooth="yes"/>
      <point x="383" y="332"/>
      <point x="371" y="283"/>
      <point x="359" y="252" type="curve"/>
      <point x="328" y="241"/>
      <point x="287" y="237"/>
      <point x="240" y="237" type="curve" smooth="yes"/>
      <point x="192" y="237"/>
      <point x="138" y="247"/>
      <point x="88" y="268" type="curve"/>
      <point x="88" y="322" type="line"/>
      <point x="147" y="291"/>
      <point x="213" y="287"/>
      <point x="252" y="287" type="curve" smooth="yes"/>
      <point x="266" y="287"/>
      <point x="287" y="289"/>
      <point x="295" y="291" type="curve"/>
      <point x="302" y="318"/>
      <point x="310" y="355"/>
      <point x="310" y="389" type="curve" smooth="yes"/>
      <point x="310" y="440"/>
      <point x="297" y="470"/>
      <point x="249" y="470" type="curve" smooth="yes"/>
      <point x="166" y="470"/>
      <point x="107" y="330"/>
      <point x="107" y="214" type="curve" smooth="yes"/>
      <point x="107" y="118"/>
      <point x="141" y="38"/>
      <point x="208" y="38" type="curve" smooth="yes"/>
      <point x="262" y="38"/>
      <point x="323" y="96"/>
      <point x="342" y="165" type="curve"/>
      <point x="363" y="161"/>
      <point x="387" y="148"/>
      <point x="403" y="132" type="curve"/>
      <point x="383" y="82"/>
      <point x="359" y="53"/>
    </contour>
  </outline>
</glyph>
<glyph name="Iogonek" format="1">
  <advance width="235"/>
  <unicode hex="012E"/>
  <outline>
    <contour>
      <point x="149" y="-20" type="curve"/>
      <point x="157" y="195"/>
      <point x="156" y="335"/>
      <point x="156" y="487" type="curve" smooth="yes"/>
      <point x="156" y="556"/>
      <point x="155" y="613"/>
      <point x="151" y="677" type="curve"/>
      <point x="140" y="679"/>
      <point x="131" y="680"/>
      <point x="119" y="680" type="curve" smooth="yes"/>
      <point x="98" y="680"/>
      <point x="81" y="675"/>
      <point x="66" y="667" type="curve"/>
      <point x="82" y="451"/>
      <point x="86" y="211"/>
      <point x="83" y="-28" type="curve"/>
      <point x="107" y="-27"/>
      <point x="135" y="-24"/>
    </contour>
    <contour>
      <point x="144" y="-21" type="curve"/>
      <point x="114" y="-11" type="line"/>
      <point x="49" y="-54"/>
      <point x="15" y="-99"/>
      <point x="15" y="-151" type="curve" smooth="yes"/>
      <point x="15" y="-196"/>
      <point x="47" y="-226"/>
      <point x="96" y="-226" type="curve" smooth="yes"/>
      <point x="143" y="-226"/>
      <point x="172" y="-205"/>
      <point x="196" y="-169" type="curve"/>
      <point x="190" y="-151"/>
      <point x="183" y="-139"/>
      <point x="171" y="-129" type="curve"/>
      <point x="154" y="-161"/>
      <point x="136" y="-173"/>
      <point x="112" y="-173" type="curve" smooth="yes"/>
      <point x="89" y="-173"/>
      <point x="78" y="-159"/>
      <point x="78" y="-135" type="curve" smooth="yes"/>
      <point x="78" y="-100"/>
      <point x="96" y="-65"/>
    </contour>
  </outline>
</glyph>
<glyph name="dotlessi" format="1">
  <advance width="206"/>
  <unicode hex="0131"/>
  <outline>
    <contour>
      <point x="142" y="511"/>
      <point x="133" y="512"/>
      <point x="124" y="512" type="curve" smooth="yes"/>
      <point x="105" y="512"/>
      <point x="88" y="507"/>
      <point x="73" y="498" type="curve"/>
      <point x="47" y="362"/>
      <point x="41" y="158"/>
      <point x="64" y="-7" type="curve"/>
      <point x="69" y="-8"/>
      <point x="75" y="-9"/>
      <point x="84" y="-9" type="curve" smooth="yes"/>
      <point x="98" y="-9"/>
      <point x="114" y="-6"/>
      <point x="124" y="-1" type="curve"/>
      <point x="113" y="174"/>
      <point x="128" y="380"/>
      <point x="152" y="508" type="curve"/>
    </contour>
  </outline>
</glyph>
<glyph name="Lslash" format="1">
  <advance width="466"/>
  <unicode hex="0141"/>
  <outline>
    <contour>
      <point x="463" y="-72" type="curve"/>
      <point x="463" y="-53"/>
      <point x="459" y="-23"/>
      <point x="456" y="-6" type="curve"/>
      <point x="361" y="-6"/>
      <point x="259" y="-16"/>
      <point x="175" y="-29" type="curve"/>
      <point x="152" y="129"/>
      <point x="146" y="257"/>
      <point x="144" y="387" type="curve" smooth="yes"/>
      <point x="144" y="488"/>
      <point x="145" y="580"/>
      <point x="153" y="672" type="curve"/>
      <point x="146" y="673"/>
      <point x="136" y="674"/>
      <point x="127" y="674" type="curve" smooth="yes"/>
      <point x="102" y="674"/>
      <point x="85" y="671"/>
      <point x="64" y="663" type="curve"/>
      <point x="58" y="427"/>
      <point x="76" y="157"/>
      <point x="111" y="-98" type="curve"/>
      <point x="218" y="-83"/>
      <point x="313" y="-73"/>
    </contour>
    <contour>
      <point x="-21" y="118" type="curve"/>
      <point x="119" y="197"/>
      <point x="231" y="273"/>
      <point x="358" y="372" type="curve"/>
      <point x="347" y="395"/>
      <point x="337" y="411"/>
      <point x="323" y="424" type="curve"/>
      <point x="191" y="322"/>
      <point x="83" y="248"/>
      <point x="-54" y="172" type="curve"/>
      <point x="-46" y="149"/>
      <point x="-36" y="133"/>
    </contour>
  </outline>
</glyph>
<glyph name="lslash" format="1">
  <advance width="202"/>
  <unicode hex="0142"/>
  <outline>
    <contour>
      <point x="60" y="730" type="curve"/>
      <point x="45" y="454"/>
      <point x="50" y="218"/>
      <point x="70" y="-61" type="curve"/>
      <point x="90" y="-61"/>
      <point x="125" y="-57"/>
      <point x="138" y="-53" type="curve"/>
      <point x="123" y="211"/>
      <point x="124" y="518"/>
      <point x="147" y="736" type="curve"/>
      <point x="133" y="740"/>
      <point x="120" y="742"/>
      <point x="107" y="742" type="curve" smooth="yes"/>
      <point x="89" y="742"/>
      <point x="71" y="736"/>
    </contour>
    <contour>
      <point x="-26" y="187" type="curve"/>
      <point x="77" y="258"/>
      <point x="165" y="322"/>
      <point x="254" y="400" type="curve"/>
      <point x="241" y="423"/>
      <point x="230" y="438"/>
      <point x="215" y="450" type="curve"/>
      <point x="123" y="370"/>
      <point x="38" y="307"/>
      <point x="-63" y="239" type="curve"/>
      <point x="-52" y="217"/>
      <point x="-42" y="201"/>
    </contour>
  </outline>
</glyph>
<glyph name="OE" format="1">
  <advance width="891"/>
  <unicode hex="0152"/>
  <outline>
    <contour>
      <point x="517" y="382" type="curve" smooth="yes"/>
      <point x="516" y="583"/>
      <point x="447" y="717"/>
      <point x="305" y="717" type="curve" smooth="yes"/>
      <point x="138" y="717"/>
      <point x="45" y="548"/>
      <point x="45" y="324" type="curve" smooth="yes"/>
      <point x="45" y="120"/>
      <point x="136" y="-35"/>
      <point x="283" y="-35" type="curve" smooth="yes"/>
      <point x="462" y="-35"/>
      <point x="519" y="185"/>
    </contour>
    <contour>
      <point x="440" y="361" type="curve" smooth="yes"/>
      <point x="442" y="171"/>
      <point x="398" y="24"/>
      <point x="291" y="24" type="curve" smooth="yes"/>
      <point x="172" y="24"/>
      <point x="127" y="194"/>
      <point x="127" y="335" type="curve" smooth="yes"/>
      <point x="127" y="528"/>
      <point x="184" y="657"/>
      <point x="292" y="657" type="curve" smooth="yes"/>
      <point x="388" y="657"/>
      <point x="438" y="556"/>
    </contour>
    <contour>
      <point x="851" y="-10" type="curve"/>
      <point x="853" y="7"/>
      <point x="851" y="36"/>
      <point x="846" y="55" type="curve"/>
      <point x="755" y="35"/>
      <point x="665" y="26"/>
      <point x="562" y="23" type="curve"/>
      <point x="544" y="142"/>
      <point x="533" y="253"/>
      <point x="526" y="338" type="curve" smooth="yes"/>
      <point x="515" y="478"/>
      <point x="513" y="585"/>
      <point x="517" y="684" type="curve"/>
      <point x="429" y="690" type="line"/>
      <point x="432" y="502"/>
      <point x="458" y="221"/>
      <point x="497" y="-38" type="curve"/>
      <point x="608" y="-35"/>
      <point x="727" y="-28"/>
    </contour>
    <contour>
      <point x="782" y="356" type="curve"/>
      <point x="783" y="380"/>
      <point x="781" y="400"/>
      <point x="776" y="418" type="curve"/>
      <point x="673" y="409"/>
      <point x="595" y="395"/>
      <point x="502" y="378" type="curve"/>
      <point x="505" y="322" type="line"/>
      <point x="599" y="339"/>
      <point x="663" y="347"/>
    </contour>
    <contour>
      <point x="822" y="669" type="curve"/>
      <point x="826" y="688"/>
      <point x="828" y="710"/>
      <point x="828" y="734" type="curve"/>
      <point x="667" y="731"/>
      <point x="561" y="713"/>
      <point x="429" y="690" type="curve"/>
      <point x="452" y="633" type="line"/>
      <point x="566" y="654"/>
      <point x="683" y="668"/>
    </contour>
  </outline>
</glyph>
<glyph name="oe" format="1">
  <advance width="764"/>
  <unicode hex="0153"/>
  <outline>
    <contour>
      <point x="224" y="468" type="curve" smooth="yes"/>
      <point x="163" y="468"/>
      <point x="105" y="374"/>
      <point x="105" y="240" type="curve" smooth="yes"/>
      <point x="105" y="149"/>
      <point x="136" y="33"/>
      <point x="216" y="33" type="curve" smooth="yes"/>
      <point x="273" y="33"/>
      <point x="329" y="131"/>
      <point x="329" y="266" type="curve" smooth="yes"/>
      <point x="329" y="411"/>
      <point x="290" y="468"/>
    </contour>
    <contour>
      <point x="369" y="114" type="line" smooth="yes"/>
      <point x="333" y="29"/>
      <point x="277" y="-22"/>
      <point x="202" y="-22" type="curve" smooth="yes"/>
      <point x="90" y="-22"/>
      <point x="29" y="90"/>
      <point x="29" y="230" type="curve" smooth="yes"/>
      <point x="29" y="405"/>
      <point x="117" y="523"/>
      <point x="240" y="523" type="curve" smooth="yes"/>
      <point x="326" y="523"/>
      <point x="385" y="462"/>
      <point x="403" y="363" type="curve" smooth="yes"/>
      <point x="367" y="367" type="line" smooth="yes"/>
      <point x="405" y="451"/>
      <point x="472" y="516"/>
      <point x="554" y="516" type="curve" smooth="yes"/>
      <point x="636" y="516"/>
      <point x="681" y="458"/>
      <point x="681" y="377" type="curve" smooth="yes"/>
      <point x="681" y="323"/>
      <point x="668" y="275"/>
      <point x="656" y="243" type="curve"/>
      <point x="625" y="232"/>
      <point x="584" y="229"/>
      <point x="537" y="229" type="curve" smooth="yes"/>
      <point x="489" y="229"/>
      <point x="435" y="238"/>
      <point x="385" y="259" type="curve"/>
      <point x="385" y="314" type="line"/>
      <point x="444" y="282"/>
      <point x="511" y="278"/>
      <point x="550" y="278" type="curve" smooth="yes"/>
      <point x="563" y="278"/>
      <point x="584" y="280"/>
      <point x="593" y="283" type="curve"/>
      <point x="600" y="310"/>
      <point x="608" y="346"/>
      <point x="608" y="380" type="curve" smooth="yes"/>
      <point x="608" y="431"/>
      <point x="595" y="462"/>
      <point x="546" y="462" type="curve" smooth="yes"/>
      <point x="464" y="462"/>
      <point x="404" y="321"/>
      <point x="404" y="206" type="curve" smooth="yes"/>
      <point x="404" y="110"/>
      <point x="438" y="29"/>
      <point x="506" y="29" type="curve" smooth="yes"/>
      <point x="559" y="29"/>
      <point x="620" y="87"/>
      <point x="640" y="157" type="curve"/>
      <point x="661" y="153"/>
      <point x="685" y="140"/>
      <point x="700" y="123" type="curve"/>
      <point x="678" y="53"/>
      <point x="588" y="-25"/>
      <point x="504" y="-25" type="curve" smooth="yes"/>
      <point x="417" y="-25"/>
      <point x="364" y="33"/>
      <point x="342" y="119" type="curve"/>
    </contour>
  </outline>
</glyph>
<glyph name="florin" format="1">
  <advance width="354"/>
  <unicode hex="0192"/>
  <outline>
    <contour>
      <point x="317" y="377" type="curve"/>
      <point x="305" y="374"/>
      <point x="279" y="371"/>
      <point x="240" y="371" type="curve" smooth="yes"/>
      <point x="154" y="371"/>
      <point x="68" y="380"/>
      <point x="11" y="398" type="curve"/>
      <point x="11" y="409"/>
      <point x="15" y="431"/>
      <point x="19" y="443" type="curve"/>
      <point x="83" y="433"/>
      <point x="150" y="428"/>
      <point x="241" y="428" type="curve" smooth="yes"/>
      <point x="272" y="428"/>
      <point x="298" y="430"/>
      <point x="323" y="435" type="curve"/>
      <point x="323" y="417"/>
      <point x="320" y="391"/>
    </contour>
    <contour>
      <point x="90" y="-155" type="curve" smooth="yes"/>
      <point x="21" y="-155"/>
      <point x="-13" y="-97"/>
      <point x="-13" y="-29" type="curve" smooth="yes"/>
      <point x="-13" y="-8"/>
      <point x="-7" y="17"/>
      <point x="0" y="31" type="curve"/>
      <point x="21" y="31"/>
      <point x="42" y="27"/>
      <point x="61" y="20" type="curve"/>
      <point x="56" y="8"/>
      <point x="52" y="-10"/>
      <point x="52" y="-35" type="curve" smooth="yes"/>
      <point x="52" y="-75"/>
      <point x="69" y="-100"/>
      <point x="97" y="-100" type="curve" smooth="yes"/>
      <point x="138" y="-100"/>
      <point x="159" y="-57"/>
      <point x="159" y="44" type="curve" smooth="yes"/>
      <point x="159" y="218"/>
      <point x="93" y="348"/>
      <point x="92" y="495" type="curve" smooth="yes"/>
      <point x="91" y="657"/>
      <point x="154" y="726"/>
      <point x="243" y="726" type="curve" smooth="yes"/>
      <point x="317" y="727"/>
      <point x="356" y="670"/>
      <point x="356" y="601" type="curve" smooth="yes"/>
      <point x="356" y="581"/>
      <point x="351" y="554"/>
      <point x="344" y="541" type="curve"/>
      <point x="322" y="540"/>
      <point x="301" y="544"/>
      <point x="282" y="551" type="curve"/>
      <point x="287" y="563"/>
      <point x="291" y="581"/>
      <point x="291" y="607" type="curve" smooth="yes"/>
      <point x="291" y="646"/>
      <point x="270" y="671"/>
      <point x="238" y="671" type="curve" smooth="yes"/>
      <point x="194" y="671"/>
      <point x="168" y="625"/>
      <point x="168" y="519" type="curve" smooth="yes"/>
      <point x="169" y="319"/>
      <point x="234" y="229"/>
      <point x="226" y="54" type="curve" smooth="yes"/>
      <point x="222" y="-92"/>
      <point x="173" y="-155"/>
    </contour>
  </outline>
</glyph>
<glyph name="uni02C9" format="1">
  <advance width="259"/>
  <unicode hex="02C9"/>
  <outline>
    <contour>
      <point x="34" y="701" type="curve"/>
      <point x="31" y="685"/>
      <point x="30" y="660"/>
      <point x="31" y="645" type="curve"/>
      <point x="69" y="632"/>
      <point x="134" y="626"/>
      <point x="226" y="637" type="curve"/>
      <point x="228" y="656"/>
      <point x="229" y="674"/>
      <point x="227" y="695" type="curve"/>
      <point x="165" y="687"/>
      <point x="99" y="689"/>
    </contour>
  </outline>
</glyph>
<glyph name="breve" format="1">
  <advance width="260"/>
  <unicode hex="02D8"/>
  <outline>
    <contour>
      <point x="58" y="735"/>
      <point x="38" y="733"/>
      <point x="21" y="727" type="curve"/>
      <point x="20" y="694"/>
      <point x="27" y="674"/>
      <point x="39" y="656" type="curve" smooth="yes"/>
      <point x="59" y="630"/>
      <point x="89" y="614"/>
      <point x="132" y="614" type="curve" smooth="yes"/>
      <point x="176" y="614"/>
      <point x="208" y="627"/>
      <point x="224" y="654" type="curve" smooth="yes"/>
      <point x="236" y="675"/>
      <point x="241" y="702"/>
      <point x="238" y="737" type="curve"/>
      <point x="220" y="740"/>
      <point x="199" y="740"/>
      <point x="184" y="736" type="curve"/>
      <point x="195" y="694"/>
      <point x="182" y="664"/>
      <point x="133" y="664" type="curve" smooth="yes"/>
      <point x="81" y="664"/>
      <point x="70" y="690"/>
      <point x="75" y="734" type="curve"/>
    </contour>
    <contour>
      <point x="137" y="560" type="move" name="_top"/>
    </contour>
  </outline>
</glyph>
<glyph name="dotaccent" format="1">
  <advance width="261"/>
  <unicode hex="02D9"/>
  <outline>
    <contour>
      <point x="169" y="662"/>
      <point x="184" y="706"/>
      <point x="197" y="734" type="curve"/>
      <point x="184" y="741"/>
      <point x="171" y="744"/>
      <point x="153" y="745" type="curve" smooth="yes"/>
      <point x="135" y="746"/>
      <point x="125" y="744"/>
      <point x="111" y="738" type="curve"/>
      <point x="100" y="714"/>
      <point x="94" y="677"/>
      <point x="94" y="652" type="curve" smooth="yes"/>
      <point x="94" y="641"/>
      <point x="95" y="631"/>
      <point x="97" y="621" type="curve"/>
      <point x="123" y="620"/>
      <point x="146" y="620"/>
      <point x="160" y="622" type="curve"/>
    </contour>
    <contour>
      <point x="130" y="560" type="move" name="_top"/>
    </contour>
  </outline>
</glyph>
<glyph name="ring" format="1">
  <advance width="260"/>
  <unicode hex="02DA"/>
  <outline>
    <contour>
      <point x="139" y="765" type="curve" smooth="yes"/>
      <point x="73" y="765"/>
      <point x="32" y="725"/>
      <point x="32" y="665" type="curve" smooth="yes"/>
      <point x="32" y="615"/>
      <point x="69" y="577"/>
      <point x="122" y="577" type="curve" smooth="yes"/>
      <point x="185" y="577"/>
      <point x="226" y="618"/>
      <point x="226" y="685" type="curve" smooth="yes"/>
      <point x="226" y="733"/>
      <point x="194" y="765"/>
    </contour>
    <contour>
      <point x="132" y="731" type="curve" smooth="yes"/>
      <point x="151" y="731"/>
      <point x="169" y="717"/>
      <point x="169" y="678" type="curve" smooth="yes"/>
      <point x="169" y="639"/>
      <point x="152" y="614"/>
      <point x="127" y="614" type="curve" smooth="yes"/>
      <point x="106" y="614"/>
      <point x="87" y="632"/>
      <point x="87" y="665" type="curve" smooth="yes"/>
      <point x="87" y="707"/>
      <point x="107" y="731"/>
    </contour>
    <contour>
      <point x="130" y="560" type="move" name="_top"/>
    </contour>
  </outline>
</glyph>
<glyph name="bn_chandrabindu" format="1">
  <advance width="0"/>
  <unicode hex="0981"/>
  <outline>
    <contour>
      <point x="75" y="668"/>
      <point x="134" y="729"/>
      <point x="147" y="811" type="curve"/>
      <point x="109" y="824" type="line"/>
      <point x="95" y="768"/>
      <point x="58" y="726"/>
      <point x="6" y="726" type="curve" smooth="yes"/>
      <point x="-39" y="726"/>
      <point x="-73" y="760"/>
      <point x="-84" y="798" type="curve"/>
      <point x="-138" y="779" type="line"/>
      <point x="-128" y="719"/>
      <point x="-75" y="668"/>
      <point x="-1" y="668" type="curve" smooth="yes"/>
    </contour>
    <contour>
      <point x="31" y="795"/>
      <point x="49" y="814"/>
      <point x="49" y="838" type="curve" smooth="yes"/>
      <point x="49" y="864"/>
      <point x="30" y="885"/>
      <point x="5" y="885" type="curve" smooth="yes"/>
      <point x="-18" y="885"/>
      <point x="-38" y="866"/>
      <point x="-38" y="842" type="curve" smooth="yes"/>
      <point x="-38" y="817"/>
      <point x="-19" y="795"/>
      <point x="6" y="795" type="curve" smooth="yes"/>
    </contour>
    <contour>
      <point x="0" y="665" type="move" name="_chandrabindu"/>
    </contour>
  </outline>
</glyph>
<glyph name="bn_anusvar" format="1">
  <advance width="441"/>
  <unicode hex="0982"/>
  <outline>
    <contour>
      <point x="401" y="-39"/>
      <point x="415" y="-28"/>
      <point x="425" y="-13" type="curve"/>
      <point x="340" y="141"/>
      <point x="188" y="260"/>
      <point x="54" y="312" type="curve"/>
      <point x="38" y="292"/>
      <point x="30" y="272"/>
      <point x="25" y="247" type="curve"/>
      <point x="149" y="210"/>
      <point x="287" y="103"/>
      <point x="381" y="-47" type="curve"/>
    </contour>
    <contour>
      <point x="299" y="328"/>
      <point x="367" y="395"/>
      <point x="367" y="476" type="curve" smooth="yes"/>
      <point x="367" y="552"/>
      <point x="310" y="606"/>
      <point x="231" y="606" type="curve" smooth="yes"/>
      <point x="146" y="606"/>
      <point x="81" y="540"/>
      <point x="80" y="458" type="curve" smooth="yes"/>
      <point x="80" y="382"/>
      <point x="138" y="328"/>
      <point x="214" y="328" type="curve" smooth="yes"/>
    </contour>
    <contour>
      <point x="176" y="380"/>
      <point x="135" y="418"/>
      <point x="135" y="476" type="curve" smooth="yes"/>
      <point x="135" y="524"/>
      <point x="164" y="554"/>
      <point x="213" y="554" type="curve" smooth="yes"/>
      <point x="271" y="554"/>
      <point x="312" y="518"/>
      <point x="312" y="461" type="curve" smooth="yes"/>
      <point x="312" y="412"/>
      <point x="281" y="380"/>
      <point x="231" y="380" type="curve" smooth="yes"/>
    </contour>
  </outline>
</glyph>
<glyph name="bn_ii" format="1">
  <advance width="543"/>
  <unicode hex="0988"/>
  <outline>
    <contour>
      <point x="448" y="-18"/>
      <point x="474" y="-13"/>
      <point x="492" y="-5" type="curve"/>
      <point x="451" y="152"/>
      <point x="454" y="292"/>
      <point x="493" y="415" type="curve"/>
      <point x="476" y="433"/>
      <point x="457" y="445"/>
      <point x="429" y="454" type="curve"/>
      <point x="396" y="416"/>
      <point x="349" y="322"/>
      <point x="316" y="229" type="curve"/>
      <point x="343" y="245" type="line"/>
      <point x="343" y="369"/>
      <point x="244" y="482"/>
      <point x="135" y="482" type="curve" smooth="yes"/>
      <point x="75" y="482"/>
      <point x="30" y="448"/>
      <point x="30" y="387" type="curve" smooth="yes"/>
      <point x="30" y="341"/>
      <point x="55" y="302"/>
      <point x="105" y="265" type="curve"/>
      <point x="122" y="266"/>
      <point x="147" y="280"/>
      <point x="161" y="297" type="curve"/>
      <point x="127" y="314"/>
      <point x="88" y="345"/>
      <point x="88" y="384" type="curve" smooth="yes"/>
      <point x="88" y="412"/>
      <point x="107" y="431"/>
      <point x="142" y="431" type="curve" smooth="yes"/>
      <point x="218" y="431"/>
      <point x="289" y="347"/>
      <point x="289" y="255" type="curve" smooth="yes"/>
      <point x="289" y="185"/>
      <point x="246" y="137"/>
      <point x="172" y="137" type="curve" smooth="yes"/>
      <point x="135" y="137"/>
      <point x="95" y="149"/>
      <point x="48" y="169" type="curve"/>
      <point x="68" y="89" type="line"/>
      <point x="106" y="76"/>
      <point x="144" y="70"/>
      <point x="174" y="70" type="curve" smooth="yes"/>
      <point x="304" y="70"/>
      <point x="359" y="155"/>
      <point x="439" y="391" type="curve"/>
      <point x="436" y="396" type="line"/>
      <point x="404" y="285"/>
      <point x="391" y="115"/>
      <point x="428" y="-19" type="curve"/>
    </contour>
    <contour>
      <point x="64" y="543"/>
      <point x="155" y="556"/>
      <point x="274" y="556" type="curve" smooth="yes"/>
      <point x="392" y="556"/>
      <point x="485" y="543"/>
      <point x="543" y="530" type="curve"/>
      <point x="545" y="538"/>
      <point x="546" y="551"/>
      <point x="546" y="563" type="curve" smooth="yes"/>
      <point x="546" y="573"/>
      <point x="546" y="583"/>
      <point x="543" y="589" type="curve"/>
      <point x="489" y="605"/>
      <point x="392" y="619"/>
      <point x="274" y="619" type="curve" smooth="yes"/>
      <point x="155" y="619"/>
      <point x="61" y="605"/>
      <point x="0" y="589" type="curve"/>
      <point x="-4" y="583"/>
      <point x="-6" y="574"/>
      <point x="-6" y="563" type="curve" smooth="yes"/>
      <point x="-6" y="552"/>
      <point x="-4" y="540"/>
      <point x="0" y="530" type="curve"/>
    </contour>
    <contour>
      <point x="543" y="589" type="line"/>
      <point x="529" y="682"/>
      <point x="482" y="760"/>
      <point x="395" y="760" type="curve" smooth="yes"/>
      <point x="333" y="760"/>
      <point x="264" y="737"/>
      <point x="216" y="737" type="curve" smooth="yes"/>
      <point x="160" y="737"/>
      <point x="132" y="772"/>
      <point x="106" y="812" type="curve"/>
      <point x="93" y="805"/>
      <point x="73" y="793"/>
      <point x="61" y="777" type="curve"/>
      <point x="95" y="720"/>
      <point x="139" y="679"/>
      <point x="212" y="679" type="curve" smooth="yes"/>
      <point x="272" y="679"/>
      <point x="332" y="701"/>
      <point x="397" y="701" type="curve" smooth="yes"/>
      <point x="464" y="701"/>
      <point x="491" y="643"/>
      <point x="503" y="579" type="curve"/>
    </contour>
    <contour>
      <point x="262" y="787" type="move" name="chandrabindu"/>
    </contour>
  </outline>
</glyph>
<glyph name="bn_ri" format="1">
  <advance width="676"/>
  <unicode hex="098B"/>
  <outline>
    <contour>
      <point x="383" y="13" type="line"/>
      <point x="337" y="150"/>
      <point x="242" y="231"/>
      <point x="144" y="274" type="curve"/>
      <point x="144" y="243" type="line"/>
      <point x="214" y="311"/>
      <point x="345" y="385"/>
      <point x="421" y="408" type="curve"/>
      <point x="424" y="484" type="line"/>
      <point x="298" y="441"/>
      <point x="161" y="360"/>
      <point x="94" y="293" type="curve"/>
      <point x="95" y="265"/>
      <point x="100" y="243"/>
      <point x="120" y="215" type="curve"/>
      <point x="222" y="187"/>
      <point x="305" y="113"/>
      <point x="366" y="-19" type="curve"/>
    </contour>
    <contour>
      <point x="590" y="28" type="line"/>
      <point x="547" y="129"/>
      <point x="482" y="199"/>
      <point x="413" y="240" type="curve"/>
      <point x="406" y="183" type="line"/>
      <point x="470" y="146"/>
      <point x="526" y="87"/>
      <point x="577" y="-7" type="curve"/>
    </contour>
    <contour>
      <point x="385" y="-20"/>
      <point x="406" y="-19"/>
      <point x="420" y="-15" type="curve"/>
      <point x="419" y="8"/>
      <point x="419" y="35"/>
      <point x="419" y="64" type="curve" smooth="yes"/>
      <point x="419" y="242"/>
      <point x="426" y="399"/>
      <point x="479" y="588" type="curve"/>
      <point x="460" y="599"/>
      <point x="437" y="605"/>
      <point x="415" y="605" type="curve"/>
      <point x="404" y="552"/>
      <point x="394" y="504"/>
      <point x="391" y="445" type="curve"/>
      <point x="386" y="416" type="line"/>
      <point x="370" y="305"/>
      <point x="363" y="182"/>
      <point x="363" y="64" type="curve" smooth="yes"/>
      <point x="363" y="18"/>
      <point x="363" y="0"/>
      <point x="366" y="-19" type="curve"/>
    </contour>
    <contour>
      <point x="600" y="-8"/>
      <point x="625" y="-3"/>
      <point x="642" y="6" type="curve"/>
      <point x="611" y="86"/>
      <point x="595" y="191"/>
      <point x="595" y="299" type="curve" smooth="yes"/>
      <point x="595" y="430"/>
      <point x="620" y="532"/>
      <point x="638" y="583" type="curve"/>
      <point x="623" y="589"/>
      <point x="602" y="593"/>
      <point x="583" y="593" type="curve"/>
      <point x="555" y="503"/>
      <point x="541" y="401"/>
      <point x="541" y="278" type="curve" smooth="yes"/>
      <point x="541" y="169"/>
      <point x="552" y="54"/>
      <point x="577" y="-7" type="curve"/>
    </contour>
    <contour>
      <point x="377" y="424" type="line"/>
      <point x="378" y="481"/>
      <point x="351" y="528"/>
      <point x="325" y="552" type="curve"/>
      <point x="284" y="574" type="line"/>
      <point x="250" y="526"/>
      <point x="201" y="496"/>
      <point x="157" y="496" type="curve" smooth="yes"/>
      <point x="123" y="496"/>
      <point x="104" y="514"/>
      <point x="104" y="550" type="curve" smooth="yes"/>
      <point x="105" y="571"/>
      <point x="111" y="592"/>
      <point x="121" y="606" type="curve"/>
      <point x="96" y="607"/>
      <point x="70" y="602"/>
      <point x="51" y="594" type="curve"/>
      <point x="44" y="580"/>
      <point x="39" y="562"/>
      <point x="39" y="540" type="curve" smooth="yes"/>
      <point x="39" y="469"/>
      <point x="86" y="430"/>
      <point x="148" y="430" type="curve" smooth="yes"/>
      <point x="209" y="430"/>
      <point x="270" y="472"/>
      <point x="306" y="528" type="curve"/>
      <point x="266" y="538" type="line"/>
      <point x="303" y="518"/>
      <point x="334" y="480"/>
      <point x="334" y="434" type="curve"/>
    </contour>
    <contour>
      <point x="371" y="690" type="move" name="chandrabindu"/>
    </contour>
  </outline>
</glyph>
<glyph name="bn_e" format="1">
  <advance width="582"/>
  <unicode hex="098F"/>
  <note>
    uni098F
  </note>
  <outline>
    <contour>
      <point x="450" y="-20"/>
      <point x="473" y="-17"/>
      <point x="491" y="-10" type="curve"/>
      <point x="508" y="125"/>
      <point x="518" y="281"/>
      <point x="518" y="484" type="curve" smooth="yes"/>
      <point x="518" y="575"/>
      <point x="458" y="634"/>
      <point x="389" y="634" type="curve" smooth="yes"/>
      <point x="288" y="634"/>
      <point x="158" y="507"/>
      <point x="158" y="391" type="curve" smooth="yes"/>
      <point x="158" y="320"/>
      <point x="208" y="278"/>
      <point x="273" y="278" type="curve" smooth="yes"/>
      <point x="304" y="278"/>
      <point x="335" y="289"/>
      <point x="358" y="309" type="curve"/>
      <point x="366" y="323"/>
      <point x="370" y="342"/>
      <point x="370" y="358" type="curve" smooth="yes"/>
      <point x="370" y="369"/>
      <point x="369" y="378"/>
      <point x="364" y="385" type="curve"/>
      <point x="349" y="367"/>
      <point x="323" y="343"/>
      <point x="286" y="343" type="curve" smooth="yes"/>
      <point x="255" y="343"/>
      <point x="231" y="360"/>
      <point x="231" y="399" type="curve" smooth="yes"/>
      <point x="231" y="481"/>
      <point x="332" y="583"/>
      <point x="398" y="583" type="curve" smooth="yes"/>
      <point x="432" y="583"/>
      <point x="456" y="556"/>
      <point x="456" y="506" type="curve" smooth="yes"/>
      <point x="456" y="337"/>
      <point x="446" y="144"/>
      <point x="424" y="16" type="curve"/>
      <point x="444" y="12" type="line"/>
      <point x="419" y="97"/>
      <point x="390" y="140"/>
      <point x="330" y="140" type="curve" smooth="yes"/>
      <point x="273" y="140"/>
      <point x="204" y="100"/>
      <point x="152" y="100" type="curve" smooth="yes"/>
      <point x="115" y="100"/>
      <point x="84" y="120"/>
      <point x="84" y="172" type="curve" smooth="yes"/>
      <point x="84" y="203"/>
      <point x="95" y="249"/>
      <point x="113" y="278" type="curve"/>
      <point x="101" y="287"/>
      <point x="85" y="293"/>
      <point x="63" y="294" type="curve"/>
      <point x="42" y="255"/>
      <point x="23" y="202"/>
      <point x="23" y="155" type="curve" smooth="yes"/>
      <point x="23" y="81"/>
      <point x="67" y="28"/>
      <point x="141" y="28" type="curve" smooth="yes"/>
      <point x="206" y="28"/>
      <point x="282" y="69"/>
      <point x="337" y="69" type="curve" smooth="yes"/>
      <point x="394" y="69"/>
      <point x="409" y="24"/>
      <point x="431" y="-20" type="curve"/>
    </contour>
    <contour>
      <point x="372" y="690" type="move" name="chandrabindu"/>
    </contour>
  </outline>
</glyph>
<glyph name="bn_o" format="1">
  <advance width="661"/>
  <unicode hex="0993"/>
  <outline>
    <contour>
      <point x="551" y="-20"/>
      <point x="614" y="63"/>
      <point x="614" y="160" type="curve" smooth="yes"/>
      <point x="614" y="237"/>
      <point x="575" y="301"/>
      <point x="526" y="345" type="curve"/>
      <point x="495" y="305" type="line"/>
      <point x="535" y="272"/>
      <point x="556" y="229"/>
      <point x="556" y="175" type="curve" smooth="yes"/>
      <point x="556" y="97"/>
      <point x="513" y="50"/>
      <point x="432" y="50" type="curve" smooth="yes"/>
      <point x="276" y="50"/>
      <point x="156" y="227"/>
      <point x="72" y="573" type="curve"/>
      <point x="53" y="566"/>
      <point x="37" y="557"/>
      <point x="21" y="544" type="curve"/>
      <point x="83" y="289"/>
      <point x="194" y="-20"/>
      <point x="428" y="-20" type="curve" smooth="yes"/>
    </contour>
    <contour>
      <point x="478" y="217"/>
      <point x="519" y="251"/>
      <point x="546" y="301" type="curve"/>
      <point x="504" y="342" type="line"/>
      <point x="478" y="296"/>
      <point x="453" y="276"/>
      <point x="425" y="276" type="curve" smooth="yes"/>
      <point x="401" y="276"/>
      <point x="382" y="292"/>
      <point x="382" y="316" type="curve" smooth="yes"/>
      <point x="382" y="342"/>
      <point x="401" y="362"/>
      <point x="428" y="362" type="curve" smooth="yes"/>
      <point x="462" y="362"/>
      <point x="495" y="332"/>
      <point x="510" y="288" type="curve"/>
      <point x="533" y="338" type="line"/>
      <point x="516" y="378"/>
      <point x="473" y="407"/>
      <point x="430" y="407" type="curve" smooth="yes"/>
      <point x="376" y="407"/>
      <point x="340" y="364"/>
      <point x="340" y="311" type="curve" smooth="yes"/>
      <point x="340" y="254"/>
      <point x="381" y="217"/>
      <point x="431" y="217" type="curve" smooth="yes"/>
    </contour>
    <contour>
      <point x="582" y="339"/>
      <point x="607" y="404"/>
      <point x="607" y="464" type="curve" smooth="yes"/>
      <point x="607" y="569"/>
      <point x="529" y="634"/>
      <point x="425" y="634" type="curve" smooth="yes"/>
      <point x="308" y="634"/>
      <point x="216" y="549"/>
      <point x="218" y="416" type="curve"/>
      <point x="234" y="398"/>
      <point x="269" y="385"/>
      <point x="292" y="385" type="curve"/>
      <point x="290" y="394"/>
      <point x="288" y="411"/>
      <point x="288" y="429" type="curve" smooth="yes"/>
      <point x="288" y="513"/>
      <point x="353" y="581"/>
      <point x="445" y="580" type="curve" smooth="yes"/>
      <point x="511" y="580"/>
      <point x="550" y="544"/>
      <point x="550" y="478" type="curve" smooth="yes"/>
      <point x="550" y="427"/>
      <point x="527" y="377"/>
      <point x="494" y="340" type="curve"/>
      <point x="516" y="312" type="line"/>
      <point x="547" y="300" type="line"/>
    </contour>
    <contour>
      <point x="356" y="690" type="move" name="chandrabindu"/>
    </contour>
  </outline>
</glyph>
<glyph name="bn_ja" format="1">
  <advance width="690"/>
  <unicode hex="099C"/>
  <outline>
    <contour>
      <point x="423" y="-8"/>
      <point x="484" y="75"/>
      <point x="484" y="204" type="curve" smooth="yes"/>
      <point x="484" y="253"/>
      <point x="476" y="305"/>
      <point x="463" y="348" type="curve"/>
      <point x="450" y="361"/>
      <point x="431" y="375"/>
      <point x="416" y="383" type="curve"/>
      <point x="372" y="338"/>
      <point x="319" y="308"/>
      <point x="284" y="308" type="curve" smooth="yes"/>
      <point x="262" y="308"/>
      <point x="237" y="318"/>
      <point x="237" y="361" type="curve" smooth="yes"/>
      <point x="237" y="416"/>
      <point x="280" y="510"/>
      <point x="325" y="566" type="curve"/>
      <point x="262" y="580" type="line"/>
      <point x="223" y="529"/>
      <point x="182" y="438"/>
      <point x="182" y="374" type="curve" smooth="yes"/>
      <point x="182" y="294"/>
      <point x="243" y="247"/>
      <point x="300" y="247" type="curve" smooth="yes"/>
      <point x="353" y="247"/>
      <point x="406" y="285"/>
      <point x="448" y="324" type="curve"/>
      <point x="419" y="352" type="line"/>
      <point x="428" y="315"/>
      <point x="434" y="268"/>
      <point x="434" y="226" type="curve" smooth="yes"/>
      <point x="434" y="118"/>
      <point x="395" y="61"/>
      <point x="316" y="61" type="curve" smooth="yes"/>
      <point x="205" y="61"/>
      <point x="126" y="177"/>
      <point x="59" y="452" type="curve"/>
      <point x="42" y="445"/>
      <point x="24" y="437"/>
      <point x="9" y="427" type="curve"/>
      <point x="57" y="223"/>
      <point x="133" y="-8"/>
      <point x="315" y="-8" type="curve" smooth="yes"/>
    </contour>
    <contour>
      <point x="590" y="-13"/>
      <point x="623" y="-7"/>
      <point x="639" y="0" type="curve"/>
      <point x="620" y="73"/>
      <point x="610" y="147"/>
      <point x="610" y="220" type="curve" smooth="yes"/>
      <point x="610" y="291"/>
      <point x="619" y="360"/>
      <point x="641" y="425" type="curve"/>
      <point x="633" y="449"/>
      <point x="618" y="471"/>
      <point x="601" y="484" type="curve"/>
      <point x="570" y="467"/>
      <point x="538" y="459"/>
      <point x="506" y="459" type="curve" smooth="yes"/>
      <point x="431" y="459"/>
      <point x="394" y="502"/>
      <point x="362" y="577" type="curve"/>
      <point x="313" y="573" type="line"/>
      <point x="345" y="480"/>
      <point x="412" y="396"/>
      <point x="519" y="396" type="curve" smooth="yes"/>
      <point x="551" y="396"/>
      <point x="582" y="403"/>
      <point x="608" y="419" type="curve"/>
      <point x="586" y="427" type="line"/>
      <point x="560" y="356"/>
      <point x="547" y="267"/>
      <point x="547" y="183" type="curve" smooth="yes"/>
      <point x="547" y="114"/>
      <point x="555" y="45"/>
      <point x="570" y="-13" type="curve"/>
    </contour>
    <contour>
      <point x="84" y="548"/>
      <point x="215" y="564"/>
      <point x="342" y="564" type="curve" smooth="yes"/>
      <point x="469" y="564"/>
      <point x="599" y="548"/>
      <point x="690" y="530" type="curve"/>
      <point x="692" y="538"/>
      <point x="695" y="550"/>
      <point x="695" y="563" type="curve" smooth="yes"/>
      <point x="695" y="572"/>
      <point x="693" y="583"/>
      <point x="690" y="589" type="curve"/>
      <point x="609" y="610"/>
      <point x="475" y="627"/>
      <point x="346" y="627" type="curve" smooth="yes"/>
      <point x="217" y="627"/>
      <point x="82" y="610"/>
      <point x="0" y="589" type="curve"/>
      <point x="-3" y="583"/>
      <point x="-5" y="574"/>
      <point x="-5" y="564" type="curve" smooth="yes"/>
      <point x="-5" y="552"/>
      <point x="-3" y="539"/>
      <point x="0" y="530" type="curve"/>
    </contour>
    <contour>
      <point x="310" y="-1" type="move" name="blwm"/>
    </contour>
    <contour>
      <point x="239" y="-120" type="move" name="nukt"/>
    </contour>
    <contour>
      <point x="371" y="690" type="move" name="reph"/>
    </contour>
    <contour>
      <point x="371" y="690" type="move" name="chandrabindu"/>
    </contour>
    <contour>
      <point x="227" y="0" type="move" name="haln"/>
    </contour>
  </outline>
</glyph>
<glyph name="bn_ddha" format="1">
  <advance width="476"/>
  <unicode hex="09A2"/>
  <outline>
    <contour>
      <point x="311" y="-20"/>
      <point x="440" y="119"/>
      <point x="440" y="250" type="curve" smooth="yes"/>
      <point x="440" y="330"/>
      <point x="391" y="375"/>
      <point x="327" y="375" type="curve" smooth="yes"/>
      <point x="291" y="375"/>
      <point x="261" y="362"/>
      <point x="240" y="342" type="curve"/>
      <point x="234" y="331"/>
      <point x="230" y="316"/>
      <point x="230" y="300" type="curve" smooth="yes"/>
      <point x="230" y="288"/>
      <point x="233" y="276"/>
      <point x="240" y="267" type="curve"/>
      <point x="253" y="287"/>
      <point x="280" y="311"/>
      <point x="314" y="311" type="curve" smooth="yes"/>
      <point x="345" y="311"/>
      <point x="368" y="288"/>
      <point x="368" y="242" type="curve" smooth="yes"/>
      <point x="368" y="146"/>
      <point x="267" y="30"/>
      <point x="200" y="30" type="curve" smooth="yes"/>
      <point x="166" y="31"/>
      <point x="141" y="58"/>
      <point x="141" y="109" type="curve" smooth="yes"/>
      <point x="141" y="277"/>
      <point x="155" y="469"/>
      <point x="178" y="597" type="curve"/>
      <point x="106" y="596" type="line"/>
      <point x="90" y="467"/>
      <point x="79" y="314"/>
      <point x="79" y="130" type="curve" smooth="yes"/>
      <point x="79" y="40"/>
      <point x="138" y="-20"/>
      <point x="209" y="-20" type="curve" smooth="yes"/>
    </contour>
    <contour>
      <point x="46" y="543"/>
      <point x="131" y="557"/>
      <point x="233" y="557" type="curve" smooth="yes"/>
      <point x="329" y="557"/>
      <point x="412" y="544"/>
      <point x="476" y="530" type="curve"/>
      <point x="478" y="538"/>
      <point x="480" y="549"/>
      <point x="480" y="561" type="curve" smooth="yes"/>
      <point x="480" y="572"/>
      <point x="479" y="582"/>
      <point x="476" y="589" type="curve"/>
      <point x="413" y="607"/>
      <point x="327" y="620"/>
      <point x="231" y="620" type="curve" smooth="yes"/>
      <point x="129" y="620"/>
      <point x="43" y="606"/>
      <point x="0" y="589" type="curve"/>
      <point x="-3" y="581"/>
      <point x="-4" y="569"/>
      <point x="-4" y="560" type="curve" smooth="yes"/>
      <point x="-4" y="549"/>
      <point x="-3" y="541"/>
      <point x="0" y="530" type="curve"/>
    </contour>
    <contour>
      <point x="201" y="-1" type="move" name="blwm"/>
    </contour>
    <contour>
      <point x="188" y="-120" type="move" name="nukt"/>
    </contour>
    <contour>
      <point x="224" y="690" type="move" name="reph"/>
    </contour>
    <contour>
      <point x="224" y="690" type="move" name="chandrabindu"/>
    </contour>
    <contour>
      <point x="105" y="0" type="move" name="haln"/>
    </contour>
  </outline>
</glyph>
<glyph name="bn_na" format="1">
  <advance width="480"/>
  <unicode hex="09A8"/>
  <outline>
    <contour>
      <point x="218" y="172"/>
      <point x="222" y="203"/>
      <point x="222" y="226" type="curve"/>
      <point x="211" y="219"/>
      <point x="189" y="214"/>
      <point x="166" y="214" type="curve" smooth="yes"/>
      <point x="108" y="214"/>
      <point x="75" y="243"/>
      <point x="75" y="289" type="curve" smooth="yes"/>
      <point x="75" y="332"/>
      <point x="103" y="356"/>
      <point x="147" y="356" type="curve" smooth="yes"/>
      <point x="233" y="356"/>
      <point x="328" y="260"/>
      <point x="327" y="172" type="curve"/>
      <point x="346" y="239" type="line"/>
      <point x="312" y="350"/>
      <point x="229" y="423"/>
      <point x="147" y="423" type="curve" smooth="yes"/>
      <point x="76" y="423"/>
      <point x="27" y="371"/>
      <point x="27" y="293" type="curve" smooth="yes"/>
      <point x="27" y="204"/>
      <point x="87" y="145"/>
      <point x="172" y="145" type="curve" smooth="yes"/>
      <point x="194" y="145"/>
      <point x="208" y="149"/>
      <point x="213" y="154" type="curve"/>
    </contour>
    <contour>
      <point x="363" y="-19"/>
      <point x="389" y="-16"/>
      <point x="406" y="-12" type="curve"/>
      <point x="397" y="36"/>
      <point x="390" y="146"/>
      <point x="390" y="261" type="curve" smooth="yes"/>
      <point x="390" y="378"/>
      <point x="397" y="462"/>
      <point x="413" y="557" type="curve"/>
      <point x="360" y="570" type="line"/>
      <point x="335" y="442"/>
      <point x="327" y="338"/>
      <point x="327" y="162" type="curve" smooth="yes"/>
      <point x="327" y="81"/>
      <point x="329" y="22"/>
      <point x="332" y="-19" type="curve"/>
    </contour>
    <contour>
      <point x="73" y="546"/>
      <point x="169" y="557"/>
      <point x="254" y="557" type="curve" smooth="yes"/>
      <point x="335" y="557"/>
      <point x="421" y="547"/>
      <point x="480" y="530" type="curve"/>
      <point x="483" y="538"/>
      <point x="484" y="550"/>
      <point x="484" y="563" type="curve" smooth="yes"/>
      <point x="484" y="576"/>
      <point x="483" y="583"/>
      <point x="480" y="589" type="curve"/>
      <point x="402" y="610"/>
      <point x="330" y="620"/>
      <point x="252" y="620" type="curve" smooth="yes"/>
      <point x="171" y="620"/>
      <point x="83" y="609"/>
      <point x="0" y="589" type="curve"/>
      <point x="-3" y="583"/>
      <point x="-5" y="574"/>
      <point x="-5" y="564" type="curve" smooth="yes"/>
      <point x="-5" y="554"/>
      <point x="-3" y="542"/>
      <point x="0" y="530" type="curve"/>
    </contour>
    <contour>
      <point x="359" y="0" type="move" name="blwm"/>
    </contour>
    <contour>
      <point x="182" y="-3" type="move" name="nukt"/>
    </contour>
    <contour>
      <point x="383" y="690" type="move" name="reph"/>
    </contour>
    <contour>
      <point x="383" y="690" type="move" name="chandrabindu"/>
    </contour>
    <contour>
      <point x="279" y="0" type="move" name="haln"/>
    </contour>
  </outline>
</glyph>
<glyph name="bn_bha" format="1">
  <advance width="603"/>
  <unicode hex="09AD"/>
  <outline>
    <contour>
      <point x="502" y="-20"/>
      <point x="579" y="68"/>
      <point x="579" y="206" type="curve" smooth="yes"/>
      <point x="579" y="266"/>
      <point x="565" y="330"/>
      <point x="543" y="379" type="curve"/>
      <point x="531" y="392"/>
      <point x="513" y="406"/>
      <point x="500" y="414" type="curve"/>
      <point x="430" y="350"/>
      <point x="379" y="313"/>
      <point x="326" y="313" type="curve" smooth="yes"/>
      <point x="290" y="313"/>
      <point x="265" y="331"/>
      <point x="265" y="364" type="curve" smooth="yes"/>
      <point x="265" y="400"/>
      <point x="299" y="431"/>
      <point x="360" y="446" type="curve"/>
      <point x="352" y="470"/>
      <point x="331" y="490"/>
      <point x="312" y="497" type="curve"/>
      <point x="264" y="480"/>
      <point x="212" y="438"/>
      <point x="212" y="374" type="curve" smooth="yes"/>
      <point x="212" y="304"/>
      <point x="274" y="254"/>
      <point x="345" y="254" type="curve" smooth="yes"/>
      <point x="415" y="254"/>
      <point x="472" y="302"/>
      <point x="531" y="359" type="curve"/>
      <point x="494" y="378" type="line"/>
      <point x="511" y="337"/>
      <point x="524" y="282"/>
      <point x="524" y="226" type="curve" smooth="yes"/>
      <point x="524" y="110"/>
      <point x="469" y="52"/>
      <point x="377" y="52" type="curve" smooth="yes"/>
      <point x="248" y="52"/>
      <point x="149" y="166"/>
      <point x="69" y="455" type="curve"/>
      <point x="51" y="448"/>
      <point x="34" y="438"/>
      <point x="17" y="427" type="curve"/>
      <point x="74" y="215"/>
      <point x="170" y="-20"/>
      <point x="376" y="-20" type="curve" smooth="yes"/>
    </contour>
    <contour>
      <point x="73" y="544"/>
      <point x="172" y="557"/>
      <point x="300" y="557" type="curve" smooth="yes"/>
      <point x="428" y="557"/>
      <point x="528" y="544"/>
      <point x="603" y="530" type="curve"/>
      <point x="607" y="538"/>
      <point x="609" y="550"/>
      <point x="609" y="561" type="curve" smooth="yes"/>
      <point x="609" y="572"/>
      <point x="607" y="583"/>
      <point x="603" y="589" type="curve"/>
      <point x="529" y="606"/>
      <point x="429" y="620"/>
      <point x="300" y="620" type="curve" smooth="yes"/>
      <point x="171" y="620"/>
      <point x="71" y="606"/>
      <point x="0" y="589" type="curve"/>
      <point x="-3" y="583"/>
      <point x="-5" y="572"/>
      <point x="-5" y="561" type="curve" smooth="yes"/>
      <point x="-5" y="549"/>
      <point x="-3" y="537"/>
      <point x="0" y="530" type="curve"/>
    </contour>
    <contour>
      <point x="373" y="-3" type="move" name="blwm"/>
    </contour>
    <contour>
      <point x="370" y="-120" type="move" name="nukt"/>
    </contour>
    <contour>
      <point x="302" y="690" type="move" name="reph"/>
    </contour>
    <contour>
      <point x="302" y="690" type="move" name="chandrabindu"/>
    </contour>
    <contour>
      <point x="250" y="0" type="move" name="haln"/>
    </contour>
  </outline>
</glyph>
<glyph name="bn_ma" format="1">
  <advance width="502"/>
  <unicode hex="09AE"/>
  <outline>
    <contour>
      <point x="271" y="216"/>
      <point x="278" y="233"/>
      <point x="278" y="257" type="curve" smooth="yes"/>
      <point x="278" y="388"/>
      <point x="121" y="404"/>
      <point x="121" y="497" type="curve" smooth="yes"/>
      <point x="121" y="517"/>
      <point x="128" y="539"/>
      <point x="143" y="558" type="curve"/>
      <point x="68" y="556" type="line"/>
      <point x="57" y="541"/>
      <point x="46" y="514"/>
      <point x="46" y="488" type="curve" smooth="yes"/>
      <point x="46" y="390"/>
      <point x="213" y="386"/>
      <point x="213" y="291" type="curve" smooth="yes"/>
      <point x="213" y="275"/>
      <point x="207" y="266"/>
      <point x="203" y="260" type="curve"/>
      <point x="262" y="205" type="line"/>
    </contour>
    <contour>
      <point x="217" y="105"/>
      <point x="257" y="156"/>
      <point x="265" y="219" type="curve"/>
      <point x="211" y="258" type="line"/>
      <point x="208" y="199"/>
      <point x="183" y="170"/>
      <point x="145" y="170" type="curve" smooth="yes"/>
      <point x="113" y="170"/>
      <point x="92" y="190"/>
      <point x="92" y="219" type="curve" smooth="yes"/>
      <point x="92" y="247"/>
      <point x="110" y="271"/>
      <point x="140" y="271" type="curve" smooth="yes"/>
      <point x="171" y="271"/>
      <point x="206" y="246"/>
      <point x="222" y="205" type="curve"/>
      <point x="236" y="262" type="line"/>
      <point x="217" y="298"/>
      <point x="182" y="319"/>
      <point x="142" y="319" type="curve" smooth="yes"/>
      <point x="88" y="319"/>
      <point x="45" y="280"/>
      <point x="45" y="218" type="curve" smooth="yes"/>
      <point x="45" y="152"/>
      <point x="92" y="105"/>
      <point x="153" y="105" type="curve" smooth="yes"/>
    </contour>
    <contour>
      <point x="391" y="10" type="line"/>
      <point x="362" y="112"/>
      <point x="308" y="201"/>
      <point x="246" y="257" type="curve"/>
      <point x="219" y="204" type="line"/>
      <point x="281" y="153"/>
      <point x="338" y="84"/>
      <point x="377" y="-19" type="curve"/>
    </contour>
    <contour>
      <point x="401" y="-19"/>
      <point x="426" y="-14"/>
      <point x="446" y="1" type="curve"/>
      <point x="418" y="80"/>
      <point x="413" y="204"/>
      <point x="413" y="294" type="curve" smooth="yes"/>
      <point x="413" y="397"/>
      <point x="418" y="467"/>
      <point x="433" y="558" type="curve"/>
      <point x="373" y="570" type="line"/>
      <point x="355" y="443"/>
      <point x="350" y="327"/>
      <point x="350" y="209" type="curve" smooth="yes"/>
      <point x="350" y="74"/>
      <point x="359" y="31"/>
      <point x="377" y="-19" type="curve"/>
    </contour>
    <contour>
      <point x="64" y="544"/>
      <point x="171" y="557"/>
      <point x="261" y="557" type="curve" smooth="yes"/>
      <point x="351" y="557"/>
      <point x="440" y="544"/>
      <point x="502" y="530" type="curve"/>
      <point x="506" y="544"/>
      <point x="509" y="573"/>
      <point x="502" y="589" type="curve"/>
      <point x="444" y="606"/>
      <point x="361" y="620"/>
      <point x="263" y="620" type="curve" smooth="yes"/>
      <point x="165" y="620"/>
      <point x="72" y="606"/>
      <point x="0" y="589" type="curve"/>
      <point x="-8" y="576"/>
      <point x="-5" y="547"/>
      <point x="0" y="530" type="curve"/>
    </contour>
    <contour>
      <point x="398" y="1" type="move" name="blwm"/>
    </contour>
    <contour>
      <point x="220" y="0" type="move" name="nukt"/>
    </contour>
    <contour>
      <point x="398" y="690" type="move" name="reph"/>
    </contour>
    <contour>
      <point x="398" y="690" type="move" name="chandrabindu"/>
    </contour>
    <contour>
      <point x="304" y="0" type="move" name="haln"/>
    </contour>
  </outline>
</glyph>
<glyph name="bn_ssa" format="1">
  <advance width="493"/>
  <unicode hex="09B7"/>
  <outline>
    <contour>
      <point x="376" y="15" type="line"/>
      <point x="319" y="150"/>
      <point x="219" y="225"/>
      <point x="117" y="261" type="curve"/>
      <point x="114" y="224" type="line"/>
      <point x="262" y="389" type="line"/>
      <point x="196" y="422" type="line"/>
      <point x="56" y="269" type="line"/>
      <point x="59" y="245"/>
      <point x="70" y="221"/>
      <point x="99" y="200" type="curve"/>
      <point x="202" y="177"/>
      <point x="288" y="111"/>
      <point x="357" y="-19" type="curve"/>
    </contour>
    <contour>
      <point x="372" y="363" type="line"/>
      <point x="277" y="410" type="line" smooth="yes"/>
      <point x="176" y="460"/>
      <point x="111" y="510"/>
      <point x="108" y="554" type="curve"/>
      <point x="24" y="556" type="line"/>
      <point x="24" y="503"/>
      <point x="102" y="442"/>
      <point x="180" y="404" type="curve" smooth="yes"/>
      <point x="357" y="318" type="line"/>
    </contour>
    <contour>
      <point x="381" y="-19"/>
      <point x="408" y="-16"/>
      <point x="426" y="-6" type="curve"/>
      <point x="405" y="74"/>
      <point x="403" y="202"/>
      <point x="403" y="292" type="curve" smooth="yes"/>
      <point x="403" y="397"/>
      <point x="408" y="466"/>
      <point x="423" y="557" type="curve"/>
      <point x="363" y="570" type="line"/>
      <point x="347" y="443"/>
      <point x="339" y="337"/>
      <point x="339" y="190" type="curve" smooth="yes"/>
      <point x="339" y="74"/>
      <point x="348" y="19"/>
      <point x="357" y="-19" type="curve"/>
    </contour>
    <contour>
      <point x="63" y="544"/>
      <point x="148" y="557"/>
      <point x="254" y="557" type="curve" smooth="yes"/>
      <point x="349" y="557"/>
      <point x="439" y="544"/>
      <point x="493" y="530" type="curve"/>
      <point x="497" y="544"/>
      <point x="500" y="574"/>
      <point x="493" y="589" type="curve"/>
      <point x="443" y="606"/>
      <point x="350" y="620"/>
      <point x="257" y="620" type="curve" smooth="yes"/>
      <point x="150" y="620"/>
      <point x="62" y="606"/>
      <point x="0" y="589" type="curve"/>
      <point x="-8" y="576"/>
      <point x="-5" y="547"/>
      <point x="0" y="530" type="curve"/>
    </contour>
    <contour>
      <point x="378" y="-1" type="move" name="blwm"/>
    </contour>
    <contour>
      <point x="153" y="0" type="move" name="nukt"/>
    </contour>
    <contour>
      <point x="400" y="690" type="move" name="reph"/>
    </contour>
    <contour>
      <point x="400" y="690" type="move" name="chandrabindu"/>
    </contour>
    <contour>
      <point x="303" y="0" type="move" name="haln"/>
    </contour>
  </outline>
</glyph>
<glyph name="bn_ikaar" format="1">
  <advance width="233"/>
  <unicode hex="09BF"/>
  <outline>
    <contour>
      <point x="140" y="-52"/>
      <point x="177" y="-48"/>
      <point x="194" y="-42" type="curve"/>
      <point x="167" y="107"/>
      <point x="155" y="271"/>
      <point x="157" y="502" type="curve"/>
      <point x="147" y="532" type="line"/>
      <point x="129" y="574"/>
      <point x="107" y="618"/>
      <point x="107" y="678" type="curve" smooth="yes"/>
      <point x="107" y="748"/>
      <point x="139" y="787"/>
      <point x="233" y="787" type="curve" smooth="yes"/>
      <point x="351" y="787"/>
      <point x="469" y="747"/>
      <point x="617" y="672" type="curve"/>
      <point x="629" y="687"/>
      <point x="639" y="703"/>
      <point x="644" y="722" type="curve"/>
      <point x="508" y="787"/>
      <point x="344" y="850"/>
      <point x="212" y="850" type="curve" smooth="yes"/>
      <point x="97" y="850"/>
      <point x="40" y="791"/>
      <point x="40" y="702" type="curve" smooth="yes"/>
      <point x="40" y="631"/>
      <point x="77" y="571"/>
      <point x="121" y="513" type="curve"/>
      <point x="115" y="494" type="line"/>
      <point x="94" y="494" type="line"/>
      <point x="93" y="301"/>
      <point x="101" y="106"/>
      <point x="112" y="-52" type="curve"/>
    </contour>
    <contour>
      <point x="147" y="502" type="line"/>
      <point x="121" y="547"/>
      <point x="57" y="575"/>
      <point x="0" y="589" type="curve"/>
      <point x="-5" y="577"/>
      <point x="-6" y="547"/>
      <point x="0" y="530" type="curve"/>
      <point x="62" y="516"/>
      <point x="95" y="483"/>
      <point x="95" y="445" type="curve"/>
    </contour>
    <contour>
      <point x="159" y="496"/>
      <point x="185" y="517"/>
      <point x="233" y="530" type="curve"/>
      <point x="238" y="547"/>
      <point x="240" y="577"/>
      <point x="233" y="589" type="curve"/>
      <point x="172" y="574"/>
      <point x="116" y="546"/>
      <point x="101" y="505" type="curve"/>
      <point x="150" y="473" type="line"/>
    </contour>
  </outline>
</glyph>
<glyph name="bn_rrikaar" format="1">
  <advance width="0"/>
  <unicode hex="09C4"/>
  <outline>
    <contour>
      <point x="58" y="-244" type="curve"/>
      <point x="-96" y="-136" type="line"/>
      <point x="-102" y="-163" type="line"/>
      <point x="37" y="-24" type="line"/>
      <point x="18" y="4" type="line"/>
      <point x="-28" y="11" type="line"/>
      <point x="-28" y="-8" type="line"/>
      <point x="-155" y="-135" type="line"/>
      <point x="-155" y="-152" type="line"/>
      <point x="24" y="-291" type="line"/>
      <point x="39" y="-278"/>
      <point x="51" y="-261"/>
    </contour>
    <contour>
      <point x="-36" y="-371" type="line"/>
      <point x="-22" y="-359"/>
      <point x="-12" y="-344"/>
      <point x="-6" y="-329" type="curve"/>
      <point x="-131" y="-241" type="line"/>
      <point x="-132" y="-267" type="line"/>
      <point x="-57" y="-196" type="line"/>
      <point x="-115" y="-176" type="line"/>
      <point x="-182" y="-242" type="line"/>
      <point x="-182" y="-259" type="line"/>
    </contour>
    <contour>
      <point x="0" y="-20" type="move" name="_blwm"/>
    </contour>
  </outline>
</glyph>
<glyph name="bn_ekaar" format="1">
  <advance width="260"/>
  <unicode hex="09C7"/>
  <outline>
    <contour>
      <point x="246" y="-66"/>
      <point x="282" y="-42"/>
      <point x="306" y="-1" type="curve"/>
      <point x="306" y="19"/>
      <point x="286" y="51"/>
      <point x="263" y="64" type="curve"/>
      <point x="231" y="6"/>
      <point x="214" y="-13"/>
      <point x="195" y="-13" type="curve" smooth="yes"/>
      <point x="156" y="-13"/>
      <point x="137" y="69"/>
      <point x="137" y="232" type="curve" smooth="yes"/>
      <point x="137" y="434"/>
      <point x="169" y="510"/>
      <point x="260" y="530" type="curve"/>
      <point x="263" y="538"/>
      <point x="264" y="550"/>
      <point x="264" y="562" type="curve" smooth="yes"/>
      <point x="264" y="573"/>
      <point x="263" y="583"/>
      <point x="260" y="589" type="curve"/>
      <point x="192" y="574"/>
      <point x="152" y="552"/>
      <point x="134" y="521" type="curve"/>
      <point x="121" y="517" type="line"/>
      <point x="87" y="463"/>
      <point x="67" y="351"/>
      <point x="67" y="229" type="curve" smooth="yes"/>
      <point x="67" y="49"/>
      <point x="123" y="-66"/>
      <point x="208" y="-66" type="curve" smooth="yes"/>
    </contour>
    <contour>
      <point x="167" y="506" type="line"/>
      <point x="147" y="539"/>
      <point x="80" y="572"/>
      <point x="0" y="589" type="curve"/>
      <point x="-2" y="583"/>
      <point x="-4" y="572"/>
      <point x="-4" y="561" type="curve" smooth="yes"/>
      <point x="-4" y="550"/>
      <point x="-2" y="539"/>
      <point x="0" y="530" type="curve"/>
      <point x="82" y="508"/>
      <point x="122" y="481"/>
      <point x="122" y="448" type="curve"/>
    </contour>
  </outline>
</glyph>
<glyph name="bn_two" format="1">
  <advance width="550"/>
  <unicode hex="09E8"/>
  <outline>
    <contour>
      <point x="357" y="264"/>
      <point x="313" y="234"/>
      <point x="231" y="234" type="curve" smooth="yes"/>
      <point x="184" y="234"/>
      <point x="127" y="246"/>
      <point x="65" y="269" type="curve"/>
      <point x="85" y="182" type="line"/>
      <point x="227" y="151"/>
      <point x="354" y="83"/>
      <point x="486" y="-37" type="curve"/>
      <point x="500" y="-20"/>
      <point x="512" y="-4"/>
      <point x="521" y="13" type="curve"/>
      <point x="410" y="106"/>
      <point x="295" y="170"/>
      <point x="186" y="209" type="curve"/>
      <point x="167" y="178" type="line"/>
      <point x="193" y="173"/>
      <point x="219" y="171"/>
      <point x="241" y="171" type="curve" smooth="yes"/>
      <point x="345" y="171"/>
      <point x="420" y="216"/>
      <point x="420" y="314" type="curve" smooth="yes"/>
      <point x="420" y="480"/>
      <point x="194" y="465"/>
      <point x="174" y="586" type="curve"/>
      <point x="150" y="575"/>
      <point x="130" y="559"/>
      <point x="111" y="540" type="curve"/>
      <point x="131" y="435"/>
      <point x="357" y="440"/>
      <point x="357" y="324" type="curve" smooth="yes"/>
    </contour>
  </outline>
</glyph>
<glyph name="bn_six" format="1">
  <advance width="550"/>
  <unicode hex="09EC"/>
  <outline>
    <contour>
      <point x="444" y="-20"/>
      <point x="505" y="70"/>
      <point x="505" y="207" type="curve" smooth="yes"/>
      <point x="505" y="277"/>
      <point x="489" y="347"/>
      <point x="466" y="399" type="curve"/>
      <point x="452" y="408"/>
      <point x="434" y="415"/>
      <point x="419" y="418" type="curve"/>
      <point x="373" y="349"/>
      <point x="340" y="305"/>
      <point x="307" y="305" type="curve" smooth="yes"/>
      <point x="285" y="305"/>
      <point x="267" y="323"/>
      <point x="267" y="365" type="curve" smooth="yes"/>
      <point x="267" y="400"/>
      <point x="278" y="443"/>
      <point x="278" y="475" type="curve" smooth="yes"/>
      <point x="278" y="522"/>
      <point x="249" y="558"/>
      <point x="184" y="585" type="curve"/>
      <point x="161" y="575"/>
      <point x="141" y="560"/>
      <point x="123" y="541" type="curve"/>
      <point x="182" y="524"/>
      <point x="219" y="502"/>
      <point x="219" y="458" type="curve" smooth="yes"/>
      <point x="219" y="438"/>
      <point x="211" y="398"/>
      <point x="211" y="373" type="curve" smooth="yes"/>
      <point x="211" y="309"/>
      <point x="257" y="244"/>
      <point x="320" y="244" type="curve" smooth="yes"/>
      <point x="382" y="244"/>
      <point x="425" y="310"/>
      <point x="464" y="369" type="curve"/>
      <point x="429" y="377" type="line"/>
      <point x="444" y="337"/>
      <point x="454" y="282"/>
      <point x="454" y="226" type="curve" smooth="yes"/>
      <point x="454" y="112"/>
      <point x="415" y="50"/>
      <point x="334" y="50" type="curve" smooth="yes"/>
      <point x="225" y="50"/>
      <point x="143" y="163"/>
      <point x="73" y="455" type="curve"/>
      <point x="54" y="453"/>
      <point x="36" y="448"/>
      <point x="19" y="440" type="curve"/>
      <point x="69" y="226"/>
      <point x="148" y="-20"/>
      <point x="332" y="-20" type="curve" smooth="yes"/>
    </contour>
    <contour>
      <point x="323" y="0" type="move" name="blwm"/>
    </contour>
  </outline>
</glyph>
<glyph name="bn_currency2" format="1">
  <advance width="524"/>
  <unicode hex="09F5"/>
  <outline>
    <contour>
      <point x="110" y="-20" type="line"/>
      <point x="304" y="134"/>
      <point x="437" y="325"/>
      <point x="507" y="553" type="curve"/>
      <point x="491" y="561"/>
      <point x="473" y="568"/>
      <point x="455" y="571" type="curve"/>
      <point x="379" y="340"/>
      <point x="242" y="167"/>
      <point x="61" y="51" type="curve"/>
    </contour>
    <contour>
      <point x="61" y="51" type="curve"/>
      <point x="247" y="158" type="line"/>
      <point x="272" y="205"/>
      <point x="283" y="247"/>
      <point x="283" y="283" type="curve" smooth="yes"/>
      <point x="283" y="389"/>
      <point x="211" y="444"/>
      <point x="135" y="444" type="curve" smooth="yes"/>
      <point x="62" y="444"/>
      <point x="12" y="397"/>
      <point x="12" y="329" type="curve" smooth="yes"/>
      <point x="12" y="255"/>
      <point x="67" y="204"/>
      <point x="140" y="204" type="curve" smooth="yes"/>
      <point x="162" y="204"/>
      <point x="180" y="209"/>
      <point x="185" y="214" type="curve"/>
      <point x="189" y="231"/>
      <point x="191" y="260"/>
      <point x="190" y="281" type="curve"/>
      <point x="178" y="273"/>
      <point x="155" y="268"/>
      <point x="131" y="268" type="curve" smooth="yes"/>
      <point x="86" y="268"/>
      <point x="61" y="289"/>
      <point x="61" y="323" type="curve" smooth="yes"/>
      <point x="61" y="360"/>
      <point x="89" y="381"/>
      <point x="134" y="381" type="curve" smooth="yes"/>
      <point x="181" y="381"/>
      <point x="236" y="343"/>
      <point x="236" y="275" type="curve" smooth="yes"/>
      <point x="236" y="202"/>
      <point x="177" y="123"/>
    </contour>
  </outline>
</glyph>
<glyph name="quotesinglbase" format="1">
  <advance width="141"/>
  <unicode hex="201A"/>
  <outline>
    <contour>
      <point x="108" y="77" type="curve"/>
      <point x="84" y="81"/>
      <point x="57" y="81"/>
      <point x="34" y="79" type="curve"/>
      <point x="38" y="23"/>
      <point x="32" y="-55"/>
      <point x="13" y="-160" type="curve"/>
      <point x="27" y="-164"/>
      <point x="46" y="-168"/>
      <point x="63" y="-169" type="curve"/>
      <point x="98" y="-57"/>
      <point x="108" y="0"/>
    </contour>
  </outline>
</glyph>
<glyph name="dagger" format="1">
  <advance width="464"/>
  <unicode hex="2020"/>
  <outline>
    <contour>
      <point x="264" y="712" type="curve"/>
      <point x="255" y="714"/>
      <point x="246" y="715"/>
      <point x="237" y="715" type="curve" smooth="yes"/>
      <point x="222" y="715"/>
      <point x="207" y="713"/>
      <point x="198" y="710" type="curve"/>
      <point x="199" y="638"/>
      <point x="203" y="581"/>
      <point x="208" y="496" type="curve"/>
      <point x="222" y="495"/>
      <point x="243" y="496"/>
      <point x="253" y="499" type="curve"/>
      <point x="261" y="602"/>
      <point x="263" y="656"/>
    </contour>
    <contour>
      <point x="33" y="544" type="curve"/>
      <point x="31" y="535"/>
      <point x="30" y="531"/>
      <point x="30" y="521" type="curve" smooth="yes"/>
      <point x="29" y="507"/>
      <point x="32" y="488"/>
      <point x="34" y="477" type="curve"/>
      <point x="105" y="484"/>
      <point x="160" y="487"/>
      <point x="245" y="486" type="curve"/>
      <point x="247" y="501"/>
      <point x="247" y="520"/>
      <point x="243" y="531" type="curve"/>
      <point x="142" y="541"/>
      <point x="88" y="546"/>
    </contour>
    <contour>
      <point x="429" y="475" type="curve"/>
      <point x="431" y="483"/>
      <point x="432" y="489"/>
      <point x="432" y="498" type="curve" smooth="yes"/>
      <point x="433" y="512"/>
      <point x="430" y="530"/>
      <point x="428" y="541" type="curve"/>
      <point x="359" y="535"/>
      <point x="302" y="533"/>
      <point x="222" y="532" type="curve"/>
      <point x="220" y="518"/>
      <point x="221" y="499"/>
      <point x="223" y="488" type="curve"/>
      <point x="323" y="478"/>
      <point x="375" y="473"/>
    </contour>
    <contour>
      <point x="199" y="-210" type="curve"/>
      <point x="221" y="-213"/>
      <point x="243" y="-212"/>
      <point x="259" y="-209" type="curve"/>
      <point x="258" y="48"/>
      <point x="268" y="269"/>
      <point x="251" y="515" type="curve"/>
      <point x="238" y="516"/>
      <point x="217" y="515"/>
      <point x="206" y="512" type="curve"/>
      <point x="193" y="276"/>
      <point x="199" y="2"/>
    </contour>
  </outline>
</glyph>
<glyph name="daggerdbl" format="1">
  <advance width="464"/>
  <unicode hex="2021"/>
  <outline>
    <contour>
      <point x="264" y="712" type="curve"/>
      <point x="255" y="714"/>
      <point x="246" y="715"/>
      <point x="237" y="715" type="curve" smooth="yes"/>
      <point x="222" y="715"/>
      <point x="207" y="713"/>
      <point x="198" y="710" type="curve"/>
      <point x="199" y="638"/>
      <point x="203" y="581"/>
      <point x="208" y="496" type="curve"/>
      <point x="222" y="495"/>
      <point x="243" y="496"/>
      <point x="253" y="499" type="curve"/>
      <point x="261" y="602"/>
      <point x="263" y="656"/>
    </contour>
    <contour>
      <point x="33" y="544" type="curve"/>
      <point x="31" y="535"/>
      <point x="30" y="531"/>
      <point x="30" y="521" type="curve" smooth="yes"/>
      <point x="29" y="507"/>
      <point x="32" y="488"/>
      <point x="34" y="477" type="curve"/>
      <point x="105" y="484"/>
      <point x="160" y="487"/>
      <point x="245" y="486" type="curve"/>
      <point x="247" y="501"/>
      <point x="247" y="520"/>
      <point x="243" y="531" type="curve"/>
      <point x="142" y="541"/>
      <point x="88" y="546"/>
    </contour>
    <contour>
      <point x="429" y="474" type="curve"/>
      <point x="431" y="483"/>
      <point x="432" y="489"/>
      <point x="432" y="498" type="curve" smooth="yes"/>
      <point x="433" y="512"/>
      <point x="430" y="530"/>
      <point x="428" y="541" type="curve"/>
      <point x="359" y="535"/>
      <point x="302" y="533"/>
      <point x="222" y="532" type="curve"/>
      <point x="220" y="518"/>
      <point x="221" y="499"/>
      <point x="223" y="488" type="curve"/>
      <point x="323" y="478"/>
      <point x="375" y="473"/>
    </contour>
    <contour>
      <point x="211" y="-5" type="curve"/>
      <point x="226" y="-7"/>
      <point x="244" y="-8"/>
      <point x="256" y="-5" type="curve"/>
      <point x="267" y="219"/>
      <point x="268" y="311"/>
      <point x="251" y="515" type="curve"/>
      <point x="237" y="516"/>
      <point x="216" y="515"/>
      <point x="206" y="512" type="curve"/>
      <point x="195" y="340"/>
      <point x="197" y="191"/>
    </contour>
    <contour>
      <point x="198" y="-204" type="curve"/>
      <point x="206" y="-206"/>
      <point x="217" y="-209"/>
      <point x="227" y="-209" type="curve" smooth="yes"/>
      <point x="241" y="-209"/>
      <point x="254" y="-207"/>
      <point x="265" y="-205" type="curve"/>
      <point x="265" y="-136"/>
      <point x="261" y="-76"/>
      <point x="256" y="8" type="curve"/>
      <point x="244" y="9"/>
      <point x="223" y="10"/>
      <point x="211" y="8" type="curve"/>
      <point x="204" y="-95"/>
      <point x="201" y="-146"/>
    </contour>
    <contour>
      <point x="430" y="-39" type="curve"/>
      <point x="432" y="-31"/>
      <point x="434" y="-24"/>
      <point x="434" y="-13" type="curve" smooth="yes"/>
      <point x="435" y="-1"/>
      <point x="432" y="15"/>
      <point x="431" y="27" type="curve"/>
      <point x="362" y="23"/>
      <point x="303" y="18"/>
      <point x="219" y="17" type="curve"/>
      <point x="218" y="4"/>
      <point x="216" y="-15"/>
      <point x="220" y="-28" type="curve"/>
      <point x="323" y="-35"/>
      <point x="372" y="-39"/>
    </contour>
    <contour>
      <point x="31" y="2" type="curve" smooth="yes"/>
      <point x="31" y="-9"/>
      <point x="34" y="-26"/>
      <point x="35" y="-38" type="curve"/>
      <point x="103" y="-32"/>
      <point x="160" y="-30"/>
      <point x="241" y="-28" type="curve"/>
      <point x="243" y="-16"/>
      <point x="244" y="2"/>
      <point x="241" y="15" type="curve"/>
      <point x="143" y="24"/>
      <point x="92" y="28"/>
      <point x="35" y="28" type="curve"/>
      <point x="33" y="20"/>
      <point x="31" y="13"/>
    </contour>
  </outline>
</glyph>
<glyph name="bullet" format="1">
  <advance width="224"/>
  <unicode hex="2022"/>
  <outline>
    <contour>
      <point x="187" y="253"/>
      <point x="189" y="294"/>
      <point x="191" y="342" type="curve"/>
      <point x="124" y="351"/>
      <point x="73" y="346"/>
      <point x="35" y="336" type="curve"/>
      <point x="35" y="288"/>
      <point x="37" y="259"/>
      <point x="41" y="206" type="curve"/>
      <point x="84" y="201"/>
      <point x="124" y="201"/>
      <point x="179" y="206" type="curve"/>
    </contour>
  </outline>
</glyph>
<glyph name="perthousand" format="1">
  <advance width="1146"/>
  <unicode hex="2030"/>
  <outline>
    <contour>
      <point x="212" y="755" type="curve"/>
      <point x="106" y="755"/>
      <point x="37" y="670"/>
      <point x="37" y="525" type="curve" smooth="yes"/>
      <point x="37" y="414"/>
      <point x="85" y="320"/>
      <point x="178" y="320" type="curve" smooth="yes"/>
      <point x="291" y="320"/>
      <point x="343" y="433"/>
      <point x="343" y="579" type="curve" smooth="yes"/>
      <point x="343" y="684"/>
      <point x="297" y="755"/>
    </contour>
    <contour>
      <point x="197" y="709" type="curve" smooth="yes"/>
      <point x="250" y="709"/>
      <point x="273" y="657"/>
      <point x="273" y="550" type="curve" smooth="yes"/>
      <point x="273" y="446"/>
      <point x="244" y="366"/>
      <point x="190" y="366" type="curve" smooth="yes"/>
      <point x="137" y="366"/>
      <point x="106" y="441"/>
      <point x="106" y="534" type="curve" smooth="yes"/>
      <point x="106" y="644"/>
      <point x="145" y="709"/>
    </contour>
    <contour>
      <point x="624" y="423" type="curve"/>
      <point x="518" y="423"/>
      <point x="449" y="338"/>
      <point x="449" y="193" type="curve" smooth="yes"/>
      <point x="449" y="82"/>
      <point x="498" y="-11"/>
      <point x="591" y="-11" type="curve" smooth="yes"/>
      <point x="704" y="-11"/>
      <point x="756" y="100"/>
      <point x="756" y="247" type="curve" smooth="yes"/>
      <point x="756" y="352"/>
      <point x="709" y="423"/>
    </contour>
    <contour>
      <point x="610" y="377" type="curve" smooth="yes"/>
      <point x="663" y="377"/>
      <point x="686" y="325"/>
      <point x="686" y="218" type="curve" smooth="yes"/>
      <point x="686" y="113"/>
      <point x="656" y="34"/>
      <point x="603" y="34" type="curve" smooth="yes"/>
      <point x="549" y="34"/>
      <point x="518" y="109"/>
      <point x="518" y="202" type="curve" smooth="yes"/>
      <point x="518" y="311"/>
      <point x="558" y="377"/>
    </contour>
    <contour>
      <point x="977" y="423" type="curve"/>
      <point x="871" y="423"/>
      <point x="802" y="338"/>
      <point x="802" y="193" type="curve" smooth="yes"/>
      <point x="802" y="82"/>
      <point x="851" y="-11"/>
      <point x="944" y="-11" type="curve" smooth="yes"/>
      <point x="1057" y="-11"/>
      <point x="1109" y="100"/>
      <point x="1109" y="247" type="curve" smooth="yes"/>
      <point x="1109" y="352"/>
      <point x="1062" y="423"/>
    </contour>
    <contour>
      <point x="963" y="377" type="curve" smooth="yes"/>
      <point x="1016" y="377"/>
      <point x="1039" y="325"/>
      <point x="1039" y="218" type="curve" smooth="yes"/>
      <point x="1039" y="113"/>
      <point x="1009" y="34"/>
      <point x="956" y="34" type="curve" smooth="yes"/>
      <point x="902" y="34"/>
      <point x="871" y="109"/>
      <point x="871" y="202" type="curve" smooth="yes"/>
      <point x="871" y="311"/>
      <point x="911" y="377"/>
    </contour>
    <component base="fraction" xOffset="210" yOffset="-3"/>
  </outline>
</glyph>
<glyph name="guilsinglright" format="1">
  <advance width="262"/>
  <unicode hex="203A"/>
  <outline>
    <contour>
      <point x="75" y="63" type="curve"/>
      <point x="153" y="122"/>
      <point x="210" y="186"/>
      <point x="253" y="264" type="curve"/>
      <point x="201" y="283" type="line"/>
      <point x="165" y="226"/>
      <point x="109" y="166"/>
      <point x="26" y="111" type="curve"/>
      <point x="42" y="88"/>
      <point x="55" y="74"/>
    </contour>
    <contour>
      <point x="29" y="397" type="curve"/>
      <point x="85" y="325"/>
      <point x="143" y="272"/>
      <point x="215" y="229" type="curve"/>
      <point x="253" y="264" type="line"/>
      <point x="194" y="302"/>
      <point x="135" y="361"/>
      <point x="81" y="443" type="curve"/>
      <point x="59" y="429"/>
      <point x="41" y="415"/>
    </contour>
  </outline>
</glyph>
<glyph name="uni20BA" format="1">
  <advance width="513"/>
  <unicode hex="20BA"/>
  <outline>
    <contour>
      <point x="494" y="304" type="curve"/>
      <point x="475" y="318"/>
      <point x="456" y="325"/>
      <point x="432" y="330" type="curve"/>
      <point x="403" y="139"/>
      <point x="323" y="82"/>
      <point x="208" y="73" type="curve"/>
      <point x="188" y="206"/>
      <point x="183" y="308"/>
      <point x="182" y="418" type="curve" smooth="yes"/>
      <point x="181" y="517"/>
      <point x="182" y="600"/>
      <point x="190" y="690" type="curve"/>
      <point x="182" y="692"/>
      <point x="173" y="693"/>
      <point x="164" y="693" type="curve" smooth="yes"/>
      <point x="142" y="693"/>
      <point x="122" y="689"/>
      <point x="101" y="682" type="curve"/>
      <point x="92" y="460"/>
      <point x="106" y="261"/>
      <point x="144" y="0" type="curve"/>
      <point x="350" y="14"/>
      <point x="457" y="81"/>
    </contour>
    <contour>
      <point x="340" y="430" type="curve"/>
      <point x="344" y="444"/>
      <point x="346" y="465"/>
      <point x="345" y="481" type="curve"/>
      <point x="210" y="462"/>
      <point x="134" y="457"/>
      <point x="17" y="465" type="curve"/>
      <point x="13" y="449"/>
      <point x="14" y="427"/>
      <point x="16" y="411" type="curve"/>
      <point x="130" y="403"/>
      <point x="210" y="410"/>
    </contour>
    <contour>
      <point x="341" y="297" type="curve"/>
      <point x="345" y="311"/>
      <point x="346" y="332"/>
      <point x="346" y="347" type="curve"/>
      <point x="210" y="328"/>
      <point x="135" y="323"/>
      <point x="18" y="331" type="curve"/>
      <point x="15" y="315"/>
      <point x="16" y="293"/>
      <point x="17" y="277" type="curve"/>
      <point x="131" y="269"/>
      <point x="210" y="276"/>
    </contour>
  </outline>
</glyph>
<glyph name="uni20BD" format="1">
  <advance width="574"/>
  <unicode hex="20BD"/>
  <outline>
    <contour>
      <point x="226" y="-22" type="curve"/>
      <point x="214" y="124"/>
      <point x="209" y="222"/>
      <point x="209" y="356" type="curve" smooth="yes"/>
      <point x="209" y="450"/>
      <point x="215" y="545"/>
      <point x="228" y="668" type="curve"/>
      <point x="140" y="678" type="line"/>
      <point x="136" y="629"/>
      <point x="133" y="550"/>
      <point x="133" y="502" type="curve" smooth="yes"/>
      <point x="133" y="335"/>
      <point x="138" y="223"/>
      <point x="158" y="-19" type="curve"/>
      <point x="179" y="-23"/>
      <point x="204" y="-25"/>
    </contour>
    <contour>
      <point x="525" y="529" type="curve" smooth="yes"/>
      <point x="525" y="631"/>
      <point x="450" y="706"/>
      <point x="291" y="706" type="curve" smooth="yes"/>
      <point x="242" y="706"/>
      <point x="186" y="695"/>
      <point x="140" y="678" type="curve"/>
      <point x="178" y="624" type="line"/>
      <point x="209" y="642"/>
      <point x="251" y="652"/>
      <point x="292" y="652" type="curve" smooth="yes"/>
      <point x="392" y="652"/>
      <point x="444" y="604"/>
      <point x="444" y="527" type="curve" smooth="yes"/>
      <point x="444" y="410"/>
      <point x="336" y="325"/>
      <point x="36" y="350" type="curve"/>
      <point x="33" y="336"/>
      <point x="33" y="317"/>
      <point x="35" y="295" type="curve"/>
      <point x="344" y="267"/>
      <point x="525" y="369"/>
    </contour>
    <contour>
      <point x="362" y="177" type="curve"/>
      <point x="366" y="191"/>
      <point x="367" y="213"/>
      <point x="366" y="228" type="curve"/>
      <point x="231" y="209"/>
      <point x="151" y="209"/>
      <point x="34" y="217" type="curve"/>
      <point x="30" y="201"/>
      <point x="31" y="179"/>
      <point x="33" y="163" type="curve"/>
      <point x="116" y="154"/>
      <point x="234" y="157"/>
    </contour>
  </outline>
</glyph>
<glyph name="trademark" format="1">
  <advance width="752"/>
  <unicode hex="2122"/>
  <outline>
    <contour>
      <point x="444" y="355" type="curve"/>
      <point x="427" y="441"/>
      <point x="418" y="533"/>
      <point x="418" y="614" type="curve" smooth="yes"/>
      <point x="418" y="652"/>
      <point x="418" y="679"/>
      <point x="426" y="729" type="curve"/>
      <point x="360" y="734" type="line"/>
      <point x="357" y="616"/>
      <point x="367" y="457"/>
      <point x="384" y="348" type="curve"/>
      <point x="399" y="348"/>
      <point x="436" y="352"/>
    </contour>
    <contour>
      <point x="702" y="329" type="curve"/>
      <point x="704" y="449"/>
      <point x="706" y="618"/>
      <point x="700" y="740" type="curve"/>
      <point x="645" y="740" type="line"/>
      <point x="647" y="585"/>
      <point x="642" y="435"/>
      <point x="635" y="318" type="curve"/>
      <point x="665" y="318"/>
      <point x="683" y="322"/>
    </contour>
    <contour>
      <point x="550" y="461" type="curve"/>
      <point x="613" y="559"/>
      <point x="653" y="636"/>
      <point x="700" y="740" type="curve"/>
      <point x="687" y="746"/>
      <point x="661" y="754"/>
      <point x="644" y="756" type="curve"/>
      <point x="615" y="663"/>
      <point x="588" y="604"/>
      <point x="532" y="515" type="curve"/>
      <point x="549" y="512" type="line"/>
      <point x="517" y="605"/>
      <point x="470" y="694"/>
      <point x="424" y="759" type="curve"/>
      <point x="408" y="757"/>
      <point x="373" y="743"/>
      <point x="360" y="734" type="curve"/>
      <point x="425" y="656"/>
      <point x="470" y="567"/>
      <point x="512" y="457" type="curve"/>
      <point x="521" y="457"/>
      <point x="540" y="459"/>
    </contour>
    <contour>
      <point x="303" y="706" type="curve"/>
      <point x="304" y="714"/>
      <point x="306" y="723"/>
      <point x="306" y="734" type="curve" smooth="yes"/>
      <point x="305" y="743"/>
      <point x="304" y="753"/>
      <point x="301" y="762" type="curve"/>
      <point x="191" y="761"/>
      <point x="115" y="753"/>
      <point x="10" y="734" type="curve"/>
      <point x="10" y="719"/>
      <point x="12" y="701"/>
      <point x="17" y="684" type="curve"/>
      <point x="128" y="699"/>
      <point x="195" y="706"/>
    </contour>
    <contour>
      <point x="204" y="355" type="curve"/>
      <point x="207" y="396"/>
      <point x="208" y="439"/>
      <point x="208" y="481" type="curve" smooth="yes"/>
      <point x="208" y="575"/>
      <point x="204" y="654"/>
      <point x="194" y="739" type="curve"/>
      <point x="171" y="739"/>
      <point x="139" y="736"/>
      <point x="120" y="732" type="curve"/>
      <point x="137" y="621"/>
      <point x="145" y="461"/>
      <point x="143" y="348" type="curve"/>
      <point x="168" y="348"/>
      <point x="188" y="351"/>
    </contour>
  </outline>
</glyph>
<glyph name="estimated" format="1">
  <advance width="695"/>
  <unicode hex="212E"/>
  <outline>
    <contour>
      <point x="653" y="267" type="line" name=""/>
      <point x="653" y="274" type="line" smooth="yes" name=""/>
      <point x="653" y="426" name=""/>
      <point x="516" y="551" name=""/>
      <point x="347" y="551" type="curve" smooth="yes" name=""/>
      <point x="178" y="551" name=""/>
      <point x="41" y="426" name=""/>
      <point x="41" y="274" type="curve" smooth="yes" name=""/>
      <point x="41" y="122" name=""/>
      <point x="178" y="-1" name=""/>
      <point x="347" y="-1" type="curve" smooth="yes" name=""/>
      <point x="447" y="-1" name=""/>
      <point x="533" y="42" name=""/>
      <point x="589" y="106" type="curve" name=""/>
      <point x="545" y="106" type="line" name=""/>
      <point x="497" y="50" name=""/>
      <point x="428" y="16" name=""/>
      <point x="348" y="16" type="curve" smooth="yes" name=""/>
      <point x="273" y="16" name=""/>
      <point x="207" y="47" name=""/>
      <point x="160" y="96" type="curve" name=""/>
      <point x="155" y="102" name=""/>
      <point x="153" y="108" name=""/>
      <point x="153" y="114" type="curve" smooth="yes" name=""/>
      <point x="153" y="264" type="line" smooth="yes" name=""/>
      <point x="153" y="266" name=""/>
      <point x="154" y="267" name=""/>
      <point x="157" y="267" type="curve" smooth="yes" name=""/>
    </contour>
    <contour>
      <point x="541" y="286" type="line" smooth="yes" name=""/>
      <point x="541" y="283" name=""/>
      <point x="540" y="282" name=""/>
      <point x="538" y="282" type="curve" smooth="yes" name=""/>
      <point x="157" y="282" type="line" smooth="yes" name=""/>
      <point x="154" y="282" name=""/>
      <point x="153" y="283" name=""/>
      <point x="153" y="286" type="curve" smooth="yes" name=""/>
      <point x="153" y="434" type="line" smooth="yes" name=""/>
      <point x="153" y="443" name=""/>
      <point x="156" y="449" name=""/>
      <point x="161" y="453" type="curve" name=""/>
      <point x="208" y="504" name=""/>
      <point x="275" y="534" name=""/>
      <point x="348" y="534" type="curve" smooth="yes" name=""/>
      <point x="421" y="534" name=""/>
      <point x="486" y="504" name=""/>
      <point x="533" y="456" type="curve" smooth="yes" name=""/>
      <point x="538" y="451" name=""/>
      <point x="541" y="444" name=""/>
      <point x="541" y="437" type="curve" smooth="yes" name=""/>
    </contour>
  </outline>
</glyph>
<glyph name="product" format="1">
  <advance width="574"/>
  <unicode hex="220F"/>
  <outline>
    <contour>
      <point x="146" y="701" type="curve"/>
      <point x="55" y="701" type="line"/>
      <point x="55" y="479"/>
      <point x="61" y="219"/>
      <point x="76" y="-36" type="curve"/>
      <point x="99" y="-38"/>
      <point x="128" y="-35"/>
      <point x="146" y="-30" type="curve"/>
      <point x="134" y="187"/>
      <point x="131" y="533"/>
    </contour>
    <contour>
      <point x="519" y="-50" type="curve"/>
      <point x="519" y="153"/>
      <point x="510" y="485"/>
      <point x="498" y="725" type="curve"/>
      <point x="419" y="719" type="line"/>
      <point x="434" y="547"/>
      <point x="443" y="152"/>
      <point x="442" y="-41" type="curve"/>
      <point x="458" y="-45"/>
      <point x="493" y="-50"/>
    </contour>
    <contour>
      <point x="495" y="661" type="curve"/>
      <point x="498" y="726" type="line"/>
      <point x="342" y="728"/>
      <point x="195" y="720"/>
      <point x="55" y="701" type="curve"/>
      <point x="58" y="638" type="line"/>
      <point x="200" y="657"/>
      <point x="349" y="663"/>
    </contour>
  </outline>
</glyph>
<glyph name="minus" format="1">
  <advance width="365"/>
  <unicode hex="2212"/>
  <outline>
    <contour>
      <point x="37" y="349" type="curve"/>
      <point x="33" y="332"/>
      <point x="31" y="316"/>
      <point x="31" y="295" type="curve"/>
      <point x="129" y="283"/>
      <point x="238" y="283"/>
      <point x="335" y="295" type="curve"/>
      <point x="339" y="312"/>
      <point x="341" y="330"/>
      <point x="341" y="347" type="curve"/>
      <point x="214" y="337"/>
      <point x="128" y="338"/>
    </contour>
  </outline>
</glyph>
